<?xml version="1.0" encoding="utf-8"?>
<!-- Generator: Adobe Illustrator 23.0.3, SVG Export Plug-In . SVG Version: 6.00 Build 0)  -->
<svg version="1.1" id="Layer_1" xmlns="http://www.w3.org/2000/svg" xmlns:xlink="http://www.w3.org/1999/xlink" x="0px" y="0px"
	 viewBox="0 0 95 91" style="enable-background:new 0 0 95 91;" xml:space="preserve">
<style type="text/css">
	.st0{fill:#365D96;}
	.st1{fill:#FA6541;}
	.st2{fill:#F96441;}
	.st3{fill:#375D96;}
	.st4{fill:#FFFFFF;}
	.st5{fill:#DDDDDD;}
	.st6{fill:#FFFFFF;stroke:#464646;stroke-width:5;stroke-linecap:round;stroke-linejoin:round;}
	.st7{fill:#C00832;}
	.st8{fill:#940728;}
	.st9{fill:none;stroke:#35495E;stroke-width:5;stroke-linecap:round;stroke-linejoin:round;}
</style>
<g>
	<g>
		<path class="st0" d="M265.7-271.2c5.1-3.4,8.5-9.2,8.5-15.8c0-10.5-8.5-19-19-19c-10.5,0-19,8.5-19,19c0,6.6,3.4,12.4,8.5,15.8
			c-11.6,4.3-19.9,15.4-19.9,28.5h5.1c0-14,11.4-25.4,25.4-25.4c14,0,25.4,11.4,25.4,25.4h5.1C285.6-255.8,277.3-267,265.7-271.2z
			 M241.3-287.1c0-7.7,6.3-13.9,13.9-13.9c7.7,0,13.9,6.3,13.9,13.9s-6.3,13.9-13.9,13.9C247.5-273.1,241.3-279.4,241.3-287.1z"/>
		<path class="st1" d="M291.1-283.9c5.1-3.4,8.5-9.2,8.5-15.8c0-10.5-8.5-19-19-19c-5.1,0-9.7,2-13.1,5.3c-1.3,1.2-2.4,2.6-3.3,4.1
			c1.6,0.6,3.1,1.4,4.5,2.4c0.9-1.5,2.1-2.7,3.4-3.8c2.4-1.8,5.3-2.9,8.5-2.9c7.7,0,13.9,6.3,13.9,13.9c0,6.4-4.3,11.8-10.2,13.4
			c-1.2,0.3-2.5,0.5-3.8,0.5c-0.4,0-0.9,0-1.3-0.1c-0.1,1.8-0.4,3.6-0.9,5.3c0.7-0.1,1.4-0.2,2.2-0.2c1,0,2,0.1,3,0.2
			c12.6,1.5,22.3,12.2,22.3,25.2h5.1C311-268.5,302.7-279.6,291.1-283.9z"/>
		<path class="st1" d="M229.9-280.8c0.7,0,1.5,0.1,2.2,0.2c-0.5-1.7-0.8-3.5-0.9-5.3c-0.4,0-0.9,0.1-1.3,0.1c-1.3,0-2.6-0.2-3.8-0.5
			c-5.9-1.6-10.2-7-10.2-13.4c0-7.7,6.3-13.9,13.9-13.9c3.2,0,6.1,1.1,8.5,2.9c1.4,1,2.5,2.3,3.4,3.8c1.4-0.9,2.9-1.7,4.5-2.4
			c-0.9-1.5-2-2.9-3.3-4.1c-3.4-3.3-8-5.3-13.1-5.3c-10.5,0-19,8.5-19,19c0,6.6,3.4,12.4,8.5,15.8c-11.6,4.3-19.9,15.4-19.9,28.5
			h5.1c0-13,9.8-23.7,22.3-25.2C227.8-280.7,228.8-280.8,229.9-280.8z"/>
	</g>
	<g>
		<path class="st0" d="M47.4-269.7c6-4,10-10.8,10-18.5c0-12.2-10-22.2-22.2-22.2c-12.2,0-22.2,10-22.2,22.2c0,7.7,4,14.5,10,18.5
			c-13.6,5-23.3,18-23.3,33.3h5.9c0-16.3,13.3-29.6,29.6-29.6c16.3,0,29.6,13.3,29.6,29.6h5.9C70.6-251.6,60.9-264.6,47.4-269.7z
			 M35.1-271.9c-9,0-16.3-7.3-16.3-16.3s7.3-16.3,16.3-16.3s16.3,7.3,16.3,16.3S44.1-271.9,35.1-271.9z"/>
		<path class="st1" d="M77-284.5c6-4,10-10.8,10-18.5c0-12.2-10-22.2-22.2-22.2c-5.9,0-11.3,2.4-15.3,6.2c-1.5,1.4-2.8,3-3.8,4.8
			c1.8,0.7,3.6,1.7,5.2,2.8c1-1.7,2.4-3.2,4-4.4c2.7-2.1,6.2-3.4,9.9-3.4c9,0,16.3,7.3,16.3,16.3c0,7.5-5,13.7-11.9,15.7
			c-1.4,0.4-2.9,0.6-4.4,0.6c-0.5,0-1,0-1.6-0.1c-0.1,2.1-0.4,4.2-1,6.2c0.8-0.1,1.7-0.2,2.5-0.2c1.2,0,2.4,0.1,3.5,0.2
			c14.7,1.8,26.1,14.2,26.1,29.4h5.9C100.2-266.4,90.5-279.4,77-284.5z"/>
	</g>
	<path class="st1" d="M62.2-445.8c6-4,10-10.8,10-18.5c0-12.2-10-22.2-22.2-22.2s-22.2,10-22.2,22.2c0,7.7,4,14.5,10,18.5
		c-13.6,5-23.3,18-23.3,33.3h5.9c0-16.3,13.3-29.6,29.6-29.6c16.3,0,29.6,13.3,29.6,29.6h5.9C85.4-427.7,75.7-440.8,62.2-445.8z
		 M49.9-448c-9,0-16.3-7.3-16.3-16.3s7.3-16.3,16.3-16.3s16.3,7.3,16.3,16.3S58.9-448,49.9-448z"/>
	<path class="st2" d="M62.3-116.7c1-0.4,2-0.9,3-1.3c4.3-1.9,8.7-3.9,11.9-4.4c2.4-0.3,3-1.9,3.1-2.6c0.5-2.3-1.3-3.6-3-4.8
		c-1.9-1.3-5-3.4-5.2-5.7c-1-12.7-10.4-22-22.2-22c-11.9,0-21.7,9.7-22.2,22.1c-0.1,2.7-4,5.2-6.1,6.5c-1.7,1.1-3.6,2.3-3,4.6
		c0.2,0.7,0.9,2.3,3.4,2.4c4.1,0.1,9.2,2.4,14.2,4.6c0.5,0.2,0.9,0.4,1.4,0.6c-13.5,5-23.2,18-23.2,33.3h5.9
		c0-16.3,13.3-29.6,29.6-29.6c16.3,0,29.6,13.3,29.6,29.6h5.9C85.4-98.7,75.8-111.7,62.3-116.7z M38.6-122.8
		c-3.3-1.4-6.6-2.9-9.9-3.9c2.4-2,4.7-4.8,4.9-8.5c0.4-9.2,7.5-16.4,16.3-16.4c8.7,0,15.5,6.9,16.3,16.5c0.3,3.6,2.6,6.2,5,8.1
		c-2.7,0.9-5.5,2.2-8.3,3.5c-4.9,2.2-9.9,4.5-13,4.5C47.2-119,42.9-121,38.6-122.8z"/>
	<path class="st0" d="M267.5-447.2c6-4,10-10.8,10-18.5c0-12.2-10-22.2-22.2-22.2c-12.2,0-22.2,10-22.2,22.2c0,7.7,4,14.5,10,18.5
		c-13.6,5-23.3,18-23.3,33.3v3h71v-3C290.7-429.2,281-442.2,267.5-447.2z M238.9-465.7c0-9,7.3-16.3,16.3-16.3
		c9,0,16.3,7.3,16.3,16.3c0,9-7.3,16.3-16.3,16.3C246.2-449.5,238.9-456.8,238.9-465.7z M225.8-416.9c1.5-14.9,14.1-26.6,29.5-26.6
		c15.3,0,28,11.7,29.5,26.6H225.8z"/>
	<g>
		<path class="st2" d="M472.9-443.5c12.2,0,22.2-10,22.2-22.2c0-12.2-10-22.2-22.2-22.2c-12.2,0-22.2,10-22.2,22.2
			C450.7-453.5,460.6-443.5,472.9-443.5z M472.9-482c9,0,16.3,7.3,16.3,16.3c0,9-7.3,16.3-16.3,16.3c-9,0-16.3-7.3-16.3-16.3
			C456.6-474.7,463.9-482,472.9-482z"/>
		<path class="st3" d="M490.6-444.7c-1.7,1.5-3.7,2.7-5.7,3.7c9.5,4.2,16.4,13.3,17.5,24.1h-58.9c1.1-10.8,8-19.8,17.5-24.1
			c-2.1-1-4-2.2-5.7-3.7c-10.6,6.1-17.8,17.6-17.8,30.7v3h71v-3C508.4-427.1,501.2-438.5,490.6-444.7z"/>
	</g>
	<g>
		<path class="st0" d="M483.4-262.4c5.1-3.4,8.5-9.2,8.5-15.8c0-10.5-8.5-19-19-19c-10.5,0-19,8.5-19,19c0,6.6,3.4,12.4,8.5,15.8
			c-11.6,4.3-19.9,15.4-19.9,28.5h5.1c0-14,11.4-25.4,25.4-25.4c14,0,25.4,11.4,25.4,25.4h5.1C503.3-246.9,495-258.1,483.4-262.4z
			 M472.9-264.3c-7.7,0-13.9-6.3-13.9-13.9c0-7.7,6.3-13.9,13.9-13.9c7.7,0,13.9,6.3,13.9,13.9C486.8-270.5,480.6-264.3,472.9-264.3
			z"/>
		<path class="st0" d="M508.7-275c5.1-3.4,8.5-9.2,8.5-15.8c0-10.5-8.5-19-19-19c-5.1,0-9.7,2-13.1,5.3c-1.3,1.2-2.4,2.6-3.3,4.1
			c1.6,0.6,3.1,1.4,4.5,2.4c0.9-1.5,2.1-2.7,3.4-3.8c2.4-1.8,5.3-2.9,8.5-2.9c7.7,0,13.9,6.3,13.9,13.9c0,6.4-4.3,11.8-10.2,13.4
			c-1.2,0.3-2.5,0.5-3.8,0.5c-0.4,0-0.9,0-1.3-0.1c-0.1,1.8-0.4,3.6-0.9,5.3c0.7-0.1,1.4-0.2,2.2-0.2c1,0,2,0.1,3,0.2
			c12.6,1.5,22.3,12.2,22.3,25.2h5.1C528.7-259.6,520.3-270.8,508.7-275z"/>
		<path class="st0" d="M447.5-271.9c0.7,0,1.5,0.1,2.2,0.2c-0.5-1.7-0.8-3.5-0.9-5.3c-0.4,0-0.9,0.1-1.3,0.1c-1.3,0-2.6-0.2-3.8-0.5
			c-5.9-1.6-10.2-7-10.2-13.4c0-7.7,6.3-13.9,13.9-13.9c3.2,0,6.1,1.1,8.5,2.9c1.4,1,2.5,2.3,3.4,3.8c1.4-0.9,2.9-1.7,4.5-2.4
			c-0.9-1.5-2-2.9-3.3-4.1c-3.4-3.3-8-5.3-13.1-5.3c-10.5,0-19,8.5-19,19c0,6.6,3.4,12.4,8.5,15.8c-11.6,4.3-19.9,15.4-19.9,28.5
			h5.1c0-13,9.8-23.7,22.3-25.2C445.5-271.8,446.5-271.9,447.5-271.9z"/>
		<path class="st1" d="M526.5-292.8c5.1-3.4,8.5-9.2,8.5-15.8c0-10.5-8.5-19-19-19c-5.1,0-9.7,2-13.1,5.3c-1.3,1.2-2.4,2.6-3.3,4.1
			c1.6,0.6,3.1,1.4,4.5,2.4c0.9-1.5,2.1-2.7,3.4-3.8c2.4-1.8,5.3-2.9,8.5-2.9c7.7,0,13.9,6.3,13.9,13.9c0,5.6-3.3,10.5-8.1,12.7
			c0.2,1.2,0.3,2.4,0.3,3.7c0,1.2-0.1,2.3-0.3,3.4c11.2,2.6,19.5,12.7,19.5,24.6h5.1C546.4-277.4,538.1-288.5,526.5-292.8z"/>
		<path class="st1" d="M423.6-292.3c0-1.3,0.1-2.5,0.3-3.7c-4.8-2.2-8.1-7-8.1-12.7c0-7.7,6.3-13.9,13.9-13.9c3.2,0,6.1,1.1,8.5,2.9
			c1.4,1,2.5,2.3,3.4,3.8c1.4-0.9,2.9-1.7,4.5-2.4c-0.9-1.5-2-2.9-3.3-4.1c-3.4-3.3-8-5.3-13.1-5.3c-10.5,0-19,8.5-19,19
			c0,6.6,3.4,12.4,8.5,15.8c-11.6,4.3-19.9,15.4-19.9,28.5h5.1c0-12,8.3-22,19.5-24.6C423.7-290,423.6-291.1,423.6-292.3z"/>
		<path class="st1" d="M472.9-322.6c6.8,0,12.4,4.9,13.6,11.3c2.8-1.7,4.8-2,4.8-2c-2.1-8.2-9.5-14.3-18.4-14.3
			c-8.9,0-16.3,6.1-18.4,14.3c0,0,2,0.4,4.8,2C460.5-317.7,466.1-322.6,472.9-322.6z"/>
	</g>
	<path class="st0" d="M490.4,46.7h-2.5c4.4-4.1,7.2-9.8,7.2-16.3c0-12.2-10-22.2-22.2-22.2c-12.2,0-22.2,10-22.2,22.2
		c0,6.4,2.8,12.2,7.2,16.3h-2.5c-11.2,0-20.4,9.1-20.4,20.4v14.7h75.9V67C510.8,55.8,501.7,46.7,490.4,46.7z M456.6,30.4
		c0-9,7.3-16.3,16.3-16.3c9,0,16.3,7.3,16.3,16.3s-7.3,16.3-16.3,16.3C463.9,46.7,456.6,39.3,456.6,30.4z M455.3,52.6h35.2
		c7.2,0,13.2,5.4,14.2,12.3h-63.6C442.1,57.9,448.1,52.6,455.3,52.6z M440.9,75.8v-5h64v5H440.9z"/>
	<g>
		<path class="st2" d="M472.9-112.8c12.2,0,22.2-10,22.2-22.2s-10-22.2-22.2-22.2c-12.2,0-22.2,10-22.2,22.2
			S460.6-112.8,472.9-112.8z M472.9-151.3c9,0,16.3,7.3,16.3,16.3s-7.3,16.3-16.3,16.3c-9,0-16.3-7.3-16.3-16.3
			S463.9-151.3,472.9-151.3z"/>
		<path class="st0" d="M493.6-114.7h-7.3v5.9h7.3c5.3,0,9.6,4.3,9.6,9.6v9.4h-60.7v-9.4c0-5.3,4.3-9.6,9.6-9.6h7.3v-5.9h-7.3
			c-8.6,0-15.5,7-15.5,15.5v15.4h72.5v-15.4C509.1-107.7,502.2-114.7,493.6-114.7z"/>
	</g>
	<g>
		<path class="st0" d="M266.8,49.7c-1-0.5-2.1-0.9-3.1-1.3c5.9-4,9.9-10.7,9.9-18.4c0-12.2-9.9-22.1-22.1-22.1
			c-12.2,0-22.1,9.9-22.1,22.1c0,7.7,3.9,14.4,9.9,18.4c-13.5,5-23.1,17.9-23.1,33.1h5.9c0-16.2,13.2-29.4,29.4-29.4
			c4.5,0,8.8,1,12.8,2.9L266.8,49.7z M235.3,30c0-8.9,7.3-16.2,16.2-16.2c8.9,0,16.2,7.3,16.2,16.2s-7.3,16.2-16.2,16.2
			C242.6,46.2,235.3,39,235.3,30z"/>
		<path class="st2" d="M278.8,51c-8.5,0-15.5,6.9-15.5,15.5c0,8.5,6.9,15.5,15.5,15.5c8.5,0,15.5-6.9,15.5-15.5
			C294.2,58,287.3,51,278.8,51z M278.8,77.5c-6.1,0-11-5-11-11s5-11,11-11c6.1,0,11,5,11,11S284.9,77.5,278.8,77.5z"/>
		<rect x="271.3" y="64.3" class="st2" width="15" height="4.4"/>
	</g>
	<path class="st0" d="M267.6-116.7c1-0.4,2-0.9,3-1.3c4.3-1.9,8.7-3.9,11.9-4.4c2.4-0.3,3-1.9,3.1-2.6c0.5-2.3-1.3-3.6-3-4.8
		c-1.9-1.3-5-3.4-5.2-5.7c-1-12.7-10.4-22-22.2-22c-11.9,0-21.7,9.7-22.2,22.1c-0.1,2.7-4,5.2-6.1,6.5c-1.7,1.1-3.6,2.3-3,4.6
		c0.2,0.7,0.9,2.3,3.4,2.4c4.1,0.1,9.2,2.4,14.2,4.6c0.5,0.2,0.9,0.4,1.4,0.6c-13.5,5-23.2,18-23.2,33.3h2h3.9h59.2h3.9h2
		C290.7-98.7,281.1-111.7,267.6-116.7z M234-126.7c2.4-2,4.7-4.8,4.9-8.5c0.4-9.2,7.5-16.4,16.3-16.4c8.7,0,15.5,6.9,16.3,16.5
		c0.3,3.6,2.6,6.2,5,8.1c-2.7,0.9-5.5,2.2-8.3,3.5c-4.9,2.2-9.9,4.5-13,4.5c-2.7,0-7.1-1.9-11.3-3.8
		C240.6-124.3,237.3-125.7,234-126.7z M226.3-89.6c2.8-13.4,14.7-23.5,29-23.5c14.2,0,26.1,10.1,29,23.5H226.3z"/>
</g>
<g>
	<path class="st4" d="M63.5,86l-39.6,0c-2.3,0-4.3-1.9-4.3-4.2L19.5,9.3c0-2.3,1.9-4.2,4.2-4.3L75.3,5c2.3,0,4.3,1.9,4.3,4.2
		l0.1,60.6L63.5,86z"/>
	<path class="st5" d="M63.6,85.9l0-12.4c0-2,1.6-3.7,3.7-3.7l12.4,0L63.6,85.9z"/>
	<line class="st6" x1="54.5" y1="20.7" x2="62.8" y2="20.7"/>
	<line class="st6" x1="54.5" y1="13.9" x2="71.6" y2="13.8"/>
	
		<rect x="27.1" y="13.1" transform="matrix(1 -1.109404e-03 1.109404e-03 1 -2.631455e-02 4.281244e-02)" class="st7" width="22.9" height="21.3"/>
	
		<rect x="54.1" y="40.5" transform="matrix(1 -1.131012e-03 1.131012e-03 1 -5.586109e-02 7.141194e-02)" class="st7" width="18" height="17.8"/>
	<path class="st8" d="M40.7,29l0-1.5c0.5-0.5,1-1.3,1.2-2.4c0,0,0-0.2,0-0.1c1.4,0.1,2.3-4.1,0.9-3.6c0.2-0.5,0.3-1,0.5-1.7
		c0-0.2,0,0.2,0.1,0.5c1.2-2.2-0.6-4.3-2.1-4.5c-0.7-0.9-1.9-1.4-3.8-1.1c-1.8,0.3-3.4,1-3.8,3.2c0.3-0.2,0.5-0.3,0.9-0.6
		c-0.7,0.8-0.9,1.7-0.4,3.9c-1.5-0.2-0.5,3.7,0.8,3.8c0.3,0.9,0.7,1.9,1.7,2.6c0,0,0,0.9,0,1.5c0,0.3-2.4,0.4-3.2,0.5
		c-1.3,0.3-2.5,1.1-2.7,2.3c-0.1,0.6,0,2.5,0,2.5l15.9,0c0,0,0.2-1.9,0-2.5c-0.5-1.7-1.6-2-2.4-2.3C43.5,29.3,40.7,29.3,40.7,29z"/>
	<line class="st6" x1="27.9" y1="55.8" x2="49.5" y2="55.8"/>
	<line class="st6" x1="27.9" y1="62.9" x2="71.6" y2="62.9"/>
	<line class="st6" x1="27.9" y1="48.6" x2="49.5" y2="48.6"/>
	<line class="st6" x1="27.9" y1="41.5" x2="49.5" y2="41.4"/>
	<path class="st9" d="M63.5,86l-39.6,0c-2.3,0-4.3-1.9-4.3-4.2L19.5,9.3c0-2.3,1.9-4.2,4.2-4.3L75.3,5c2.3,0,4.3,1.9,4.3,4.2
		l0.1,60.6L63.5,86z"/>
</g>
</svg>
