<?xml version="1.0" encoding="utf-8"?>
<!-- Generator: Adobe Illustrator 23.0.3, SVG Export Plug-In . SVG Version: 6.00 Build 0)  -->
<svg version="1.1" id="Layer_1" xmlns="http://www.w3.org/2000/svg" xmlns:xlink="http://www.w3.org/1999/xlink" x="0px" y="0px"
	 viewBox="0 0 294.1 290.3" style="enable-background:new 0 0 294.1 290.3;" xml:space="preserve">
<style type="text/css">
	.st0{fill:#585858;}
	.st1{fill:#FFFFFF;}
	.st2{fill:#FFD04F;stroke:#464646;stroke-width:5;stroke-linecap:round;stroke-linejoin:round;stroke-miterlimit:10;}
	.st3{fill:none;stroke:#AFAFAF;stroke-width:5;stroke-linecap:round;stroke-linejoin:round;stroke-miterlimit:10;}
	.st4{fill:#FFFFFF;stroke:#464646;stroke-width:5;stroke-linecap:round;stroke-linejoin:round;stroke-miterlimit:10;}
	.st5{fill:none;stroke:#FFD04F;stroke-width:5;stroke-linecap:round;stroke-linejoin:round;stroke-miterlimit:10;}
	.st6{fill:#725044;}
	.st7{opacity:0.3;}
	.st8{fill:#A5A5A5;}
	.st9{fill:#848484;}
	.st10{fill:#707070;}
	.st11{clip-path:url(#SVGID_2_);fill:#4C4C4C;}
	.st12{fill:#CCCCCC;}
	.st13{opacity:0.65;}
	.st14{fill:#4C4C4C;}
</style>
<g>
	<path class="st0" d="M272.6,11.9l-164.8-1.8c-6.7-0.1-12.2,5.3-12.3,12l-2.4,225.5c-0.1,6.7,5.3,12.2,12,12.3l164.8,1.7
		c6.7,0.1,12.2-5.3,12.3-12l2.4-225.5C284.7,17.5,279.3,12,272.6,11.9z"/>
	
		<rect id="XMLID_1_" x="92.2" y="52.4" transform="matrix(1.063208e-02 -0.9999 0.9999 1.063208e-02 56.6126 317.8433)" class="st1" width="193.4" height="155.8"/>
	<path class="st2" d="M199.8,27.2c0.1-5.4-4.3-9.8-9.7-9.9c-5.4-0.1-9.8,4.3-9.9,9.7l-23.8-0.3c-2.1,0-3.8,1.7-3.8,3.7l0,3.4
		c0,3.5,2.8,6.4,6.3,6.5l62,0.7c3.5,0,6.4-2.8,6.5-6.3l0-3.4c0-2.1-1.7-3.8-3.7-3.8L199.8,27.2z"/>
	<line class="st3" x1="163.9" y1="62.7" x2="251.6" y2="63.6"/>
	<line class="st3" x1="163.7" y1="78.4" x2="237.2" y2="79.2"/>
	<line class="st3" x1="163.5" y1="94.1" x2="251.3" y2="95"/>
	<line class="st3" x1="163.3" y1="114.1" x2="216.5" y2="114.7"/>
	<line class="st3" x1="163.1" y1="129.8" x2="250.9" y2="130.8"/>
	<path class="st4" d="M124.9,113.7l-0.3,25.2l25.2,0.3l0.3-25.2L124.9,113.7z"/>
	<polyline class="st5" points="130.3,125.7 137.3,132.3 151.8,118.4 	"/>
	<path class="st4" d="M124.4,166.4l-0.3,25.2l25.2,0.3l0.3-25.2L124.4,166.4z"/>
	<polyline class="st5" points="129.8,178.4 136.8,184.9 151.2,171 	"/>
	<line class="st3" x1="162.7" y1="168" x2="240.1" y2="168.8"/>
	<line class="st3" x1="162.6" y1="183.7" x2="230.6" y2="184.4"/>
	<path class="st4" d="M125.5,61.1l-0.3,25.2l25.2,0.3l0.3-25.2L125.5,61.1z"/>
</g>
<g>
	<g>
		<path class="st6" d="M86.7,190L12,258.6c-5.7,5.3-5.9,14.3-0.4,19.8c5.5,5.5,14.5,5.3,19.8-0.4l68.5-74.7L86.7,190z"/>
		<g class="st7">
			<path class="st8" d="M85.5,190.1l-14.6,13.3l0,0c4.4,4.4,4.6,11.3,0.5,16L24.2,273c-4.1,4.4-10.3,5.5-15.5,3.3
				c1.3,1.9,3,3.5,5.4,4.7c5.6,2.7,12.3,1.2,16.5-3.4l68.2-74.3L85.5,190.1z"/>
		</g>
		<path class="st9" d="M128.6,101.4c-33.9,0-61.3,27.5-61.3,61.3S94.7,224,128.6,224s61.3-27.5,61.3-61.3S162.5,101.4,128.6,101.4z"
			/>
		<path class="st10" d="M128.6,214c-28.3,0-51.3-23-51.3-51.3c0-28.3,23-51.3,51.3-51.3c28.3,0,51.3,23,51.3,51.3
			C179.9,191,156.9,214,128.6,214z"/>
		<ellipse transform="matrix(0.99 -0.1409 0.1409 0.99 -21.6396 19.7381)" class="st1" cx="128.6" cy="162.7" rx="45.3" ry="45.3"/>
		<g>
			<defs>
				
					<ellipse id="SVGID_1_" transform="matrix(0.99 -0.1409 0.1409 0.99 -21.6396 19.7381)" cx="128.6" cy="162.7" rx="45.3" ry="45.3"/>
			</defs>
			<clipPath id="SVGID_2_">
				<use xlink:href="#SVGID_1_"  style="overflow:visible;"/>
			</clipPath>
			<circle class="st11" cx="126.9" cy="148.9" r="17.8"/>
			<path class="st11" d="M148.8,211.9H105V193c0-12.1,9.8-21.9,21.9-21.9h0c12.1,0,21.9,9.8,21.9,21.9V211.9z"/>
		</g>
	</g>
	<g>
		<path class="st12" d="M128.6,117.4c-2.7,0-5.4,0.3-8,0.7c24.2,0.9,43.6,20.8,43.6,45.3c0,22.3-16.1,40.9-37.4,44.6
			c0.6,0,1.1,0,1.7,0c25,0,45.3-20.3,45.3-45.3S153.6,117.4,128.6,117.4z"/>
	</g>
	<g class="st13">
		<path class="st1" d="M15.5,263.2L65.7,216c0.5-0.5,1.3-0.4,1.8,0.1c0.4,0.5,0.4,1.2,0,1.7L20.2,268c-1.3,1.4-3.4,1.4-4.8,0.1
			c-1.4-1.3-1.4-3.4-0.1-4.8C15.4,263.3,15.4,263.3,15.5,263.2z"/>
	</g>
</g>
<g>
	<circle class="st14" cx="138" cy="70.1" r="4.1"/>
	<path class="st14" d="M143,84.7h-10v-4.3c0-2.8,2.2-5,5-5h0c2.8,0,5,2.2,5,5V84.7z"/>
</g>
</svg>
