<?xml version="1.0" encoding="utf-8"?>
<!-- Generator: Adobe Illustrator 23.0.3, SVG Export Plug-In . SVG Version: 6.00 Build 0)  -->
<svg version="1.1" id="Layer_1" xmlns="http://www.w3.org/2000/svg" xmlns:xlink="http://www.w3.org/1999/xlink" x="0px" y="0px"
	 viewBox="0 0 1046.4 325.7" style="enable-background:new 0 0 1046.4 325.7;" xml:space="preserve">
<style type="text/css">
	.st0{fill:#585858;}
	.st1{fill:#8C181C;}
	.st2{fill:#585858;stroke:#FFFFFF;stroke-width:3;stroke-miterlimit:10;}
	.st3{fill:#FFFFFF;}
	.st4{fill:#FFFFFF;stroke:#464646;stroke-width:5;stroke-linecap:round;stroke-linejoin:round;stroke-miterlimit:10;}
	.st5{fill:none;stroke:#AFAFAF;stroke-width:5;stroke-linecap:round;stroke-linejoin:round;stroke-miterlimit:10;}
	.st6{fill:none;stroke:#FFD04F;stroke-width:5;stroke-linecap:round;stroke-linejoin:round;stroke-miterlimit:10;}
	.st7{fill:#8C181C;stroke:#585858;stroke-width:5;stroke-miterlimit:10;}
	.st8{fill:#FFD04F;}
</style>
<path class="st0" d="M377.4,220.5c0,9.7,0,19.4,0,29.1c0,6.6-7.2,13.2-13.7,12.2c-1.2-0.2-3.1-2.1-3.1-3.2c-0.2-21-0.2-42.1,0-63.1
	c0-5.1,10.3-11.1,15-9c1,0.5,1.7,2.6,1.8,4C377.5,200.5,377.4,210.5,377.4,220.5z"/>
<path class="st0" d="M434.3,228.4c0-3.1,0-6.3,0-9.4c0-10.1,0.1-20.3,0-30.4c0-2.8,0.6-4,3.8-4.1c13.3-0.4,13.3-0.5,13.3,12.8
	c0,16.8,0,33.6,0,50.4c0,8-7.6,14.5-15.4,12.7c-1.5-0.3-2.9-2-3.8-3.4c-8.1-13.1-16-26.4-24-39.6c-0.1-0.2-0.5-0.3-1.2-0.6
	c-0.1,1.6-0.3,3.1-0.3,4.5c0,11.7-0.1,23.3,0,35c0,3.3-1,4.7-4.5,4.4c-3.3-0.3-6.7-0.1-10-0.1c-2.3,0.1-3.2-1-3.2-3.3
	c0.1-20.1,0-40.3,0.1-60.4c0-1.4,1.1-3.1,2.1-4.2c2.3-2.4,4.8-4.6,7.4-6.7c3.4-2.7,7.2-2.1,9.5,1.7c8.1,13.3,16.1,26.7,24.2,40
	c0.2,0.4,0.5,0.7,0.7,1.1C433.6,228.7,434,228.6,434.3,228.4z"/>
<path class="st0" d="M479.2,230.2c0-8.6-0.1-17.3,0.1-25.9c0.1-3.7-1.3-5.3-5-5.1c-3.3,0.2-6.7,0.1-10-0.1c-1.2-0.1-3.1-0.7-3.3-1.4
	c-0.4-1.2-0.1-3.3,0.8-4.1c4.9-4.7,9.4-9.6,17.7-8.9c10.5,0.9,21.2,0.3,31.8,0.2c3.2,0,4.3,1,4.2,4.2c-0.4,11.9,1.7,10-10.1,10.1
	c-10.1,0.1-9.1-0.5-9.1,9.1c0,13.8,0,27.6,0,41.3c0,6.3-9.1,13.2-15,11.2c-1-0.3-1.9-2.5-1.9-3.8
	C479.1,248.1,479.2,239.1,479.2,230.2z"/>
<path class="st0" d="M568.3,215.8c0.6,0.9,0.7,1,0.7,1.1c1.7,11,1.4,11.4-9.7,11.4c-3.9,0-7.9,0.1-11.8,0c-3-0.1-4.3,0.8-4.4,4.1
	c-0.4,13.4-0.6,13.4,12.7,13.4c5.9,0,11.8,0,17.5,0c1.7,6-4.4,14.4-10.5,14.5c-11.2,0.3-22.4,0.1-33.6,0.1c-2.6,0-3.4-1.3-3.4-3.7
	c0-20.1,0-40.3,0.1-60.4c0-4,8.6-11.6,13-11.7c9.7-0.1,19.4,0,29.1-0.1c2.7,0,3.8,0.9,3.8,3.7c-0.1,12.5,1,10-9.5,10.2
	c-5.1,0.1-10.3,0.1-15.5,0c-2.5,0-3.4,1-3.6,3.5c-1,13.8-1,13.8,12.7,13.8C560,215.8,564.2,215.8,568.3,215.8z"/>
<path class="st0" d="M643.6,260.5c-6.3,0-11.7,0.2-17-0.2c-1.2-0.1-2.6-1.9-3.2-3.2c-3.1-6.1-5.9-12.3-8.8-18.4
	c-1.3-2.7-7.6-4.4-11.7-2.5c-1.3,0.6-2,3.6-2.1,5.5c-0.3,4.8-0.3,9.7,0,14.5c0.2,3.5-1.2,4.3-4.5,4.4c-12.9,0.1-12.9,0.2-12.9-12.8
	c0-17,0-33.9,0-50.9c0-5.3,6.3-12.5,11.6-12.4c9.4,0.1,18.7,0.4,28.1,1c8.1,0.5,13.9,4.8,15.7,12.8c2.2,9.5,2.9,19.1-1.5,28.4
	c-0.6,1.2-1.2,2.6-2.3,3.3c-4.1,2.6-3.3,5.6-1.4,9.2C637,246,640,252.9,643.6,260.5z M600.6,211.3c0,2.9-0.3,5.8,0.1,8.6
	c0.2,1.3,1.9,3.1,3.1,3.2c4.4,0.4,8.8,0.3,13.2,0.1c3.1-0.1,5.1-1.7,5.2-5.1c0.1-4.5,0.1-9.1,0-13.6c-0.1-3.3-1.8-5-5.2-4.9
	c-1.5,0-3,0-4.5,0C600.6,199.4,600.6,199.4,600.6,211.3z"/>
<path class="st0" d="M698.4,228.4c0-3.1,0-6.3,0-9.4c0-10.1,0.1-20.3,0-30.4c0-2.8,0.6-4,3.8-4.1c13.3-0.4,13.3-0.5,13.3,12.8
	c0,16.8,0,33.6,0,50.4c0,8-7.6,14.5-15.4,12.7c-1.5-0.3-2.9-2-3.8-3.4c-8.1-13.1-16-26.4-24-39.6c-0.1-0.2-0.5-0.3-1.2-0.6
	c-0.1,1.6-0.3,3.1-0.3,4.5c0,11.7-0.1,23.3,0,35c0,3.3-1,4.7-4.5,4.4c-3.3-0.3-6.7-0.1-10-0.1c-2.3,0.1-3.2-1-3.2-3.3
	c0.1-20.1,0-40.3,0.1-60.4c0-1.4,1.1-3.1,2.1-4.2c2.3-2.4,4.8-4.6,7.4-6.7c3.4-2.7,7.2-2.1,9.5,1.7c8.1,13.3,16.1,26.7,24.2,40
	c0.2,0.4,0.5,0.7,0.7,1.1C697.7,228.7,698,228.6,698.4,228.4z"/>
<path class="st0" d="M751.9,263.1c-7.3-1-14.6-2-21.9-2.9c-3.2-0.4-3.8-2.4-3.3-5.2c0.7-3.8,6.4-8,10.2-7.8
	c7.8,0.4,15.7,0.7,23.5,0.9c3,0.1,4.1-1.6,4.1-4.6c0.3-11.6,0.4-11.4-11.1-12.4c-4.9-0.4-9.9-1.4-14.7-2.7
	c-7.6-2.1-11.8-8-11.9-17.8c0-9.5-0.2-19.6,10.7-24.4c2.6-1.1,5.5-2.1,8.3-2c9.7,0.1,19.3,0.6,29,1.2c4.4,0.3,5.5,2.7,3.4,6.5
	c-2.3,4.2-7.5,6.8-12.3,6.6c-5.6-0.2-11.2-0.1-16.8-0.1c-2.5,0-3.6,1.3-3.7,4c-0.6,12-0.6,11.8,11.1,12.8c4.9,0.4,9.9,1.5,14.6,3
	c7.2,2.2,11.1,7.6,11.8,15.1c0.3,2.7,0.4,5.4,0.3,8.2c-0.5,12.7-7.1,19.7-19.9,20.8c-3.8,0.3-7.6,0-11.3,0
	C751.9,262.4,751.9,262.8,751.9,263.1z"/>
<path class="st0" d="M792,225.5c0-9.8,0-19.7,0-29.5c0-6.2,8.9-13,14.7-10.9c1,0.4,2.1,2.5,2.1,3.8c0.2,7.6,0.2,15.1,0.1,22.7
	c-0.1,3.8,1.3,5.1,5.1,4.9c5.7-0.2,11.5-0.2,17.3,0c3,0.1,4-1.1,4-4c-0.1-7.6,0.1-15.1-0.1-22.7c-0.1-3.6,0.8-5.1,4.7-5.1
	c12.6,0,12.6-0.2,12.6,12.5c0,17.3,0,34.5,0,51.8c0,6.3-9.4,13.4-15.4,11.3c-1-0.3-1.8-2.5-1.8-3.9c-0.2-7.6-0.2-15.1,0-22.7
	c0.1-3.5-1-4.9-4.7-4.8c-5.7,0.2-11.5,0.1-17.3,0c-3.1-0.1-4.3,1.3-4.3,4.4c0.1,7.4-0.1,14.8,0,22.3c0.1,3.4-0.9,4.9-4.6,5
	c-12.3,0.5-12.3,0.6-12.3-11.9C792.1,240.9,792.1,233.2,792,225.5C792.1,225.5,792.1,225.5,792,225.5z"/>
<path class="st0" d="M882.4,220.5c0,9.7,0,19.4,0,29.1c0,6.6-7.2,13.2-13.7,12.2c-1.2-0.2-3.1-2.1-3.1-3.2c-0.2-21-0.2-42.1,0-63.1
	c0-5.1,10.3-11.1,15-9c1,0.5,1.7,2.6,1.8,4C882.4,200.5,882.4,210.5,882.4,220.5z"/>
<path class="st0" d="M894.1,226.9c0-9.7-0.2-19.4,0.1-29.1c0.1-2.1,1.4-4.4,2.8-6.2c4.7-5.8,10.7-8.3,18.3-7.2
	c6.3,0.8,12.7,0.7,19,1.4c8,0.8,12.7,5.7,14.8,13.3c2.3,8.7,2,17.4-0.3,26c-2.1,7.8-8.8,13-16.9,13.3c-5.3,0.2-10.6,0.3-15.9,0.1
	c-3.9-0.2-5.1,1.5-4.9,5.1c0.2,4.4,0,8.8,0,13.2c0,2.6-0.9,3.9-3.7,3.8c-16.4-0.4-12.9,2.4-13.3-12.4
	C894,241.2,894.1,234,894.1,226.9z M911.1,212.5c0,13.9,0,13.9,14,13.5c0.5,0,0.9,0,1.4,0c3.2-0.2,5.5-1.6,5.7-5.2
	c0.2-4.5,0.6-9,0.4-13.5c-0.2-7-1.4-7.9-8.5-7.8C911.2,199.5,911.2,199.5,911.1,212.5z"/>
<path class="st0" d="M339.8,108.9c0-8.6-0.1-17.3,0.1-25.9c0.1-3.7-1.3-5.3-5-5.1c-3.3,0.2-6.7,0.1-10-0.1c-1.2-0.1-3.1-0.7-3.3-1.4
	c-0.4-1.2-0.1-3.3,0.8-4.1c4.9-4.7,9.4-9.6,17.7-8.9c10.5,0.9,21.2,0.3,31.8,0.2c3.2,0,4.3,1,4.2,4.2c-0.4,11.9,1.7,10-10.1,10.1
	c-10.1,0.1-9.1-0.5-9.1,9.1c0,13.8,0,27.6,0,41.3c0,6.3-9.1,13.2-15,11.2c-1-0.3-1.9-2.5-1.9-3.8
	C339.7,126.8,339.8,117.8,339.8,108.9z"/>
<path class="st0" d="M382.4,104.2c0-9.8,0-19.7,0-29.5c0-6.2,8.9-13,14.7-10.9c1,0.4,2.1,2.5,2.1,3.8c0.2,7.6,0.2,15.1,0.1,22.7
	c-0.1,3.8,1.3,5.1,5.1,4.9c5.7-0.2,11.5-0.2,17.3,0c3,0.1,4-1.1,4-4c-0.1-7.6,0.1-15.1-0.1-22.7c-0.1-3.6,0.8-5.1,4.7-5.1
	c12.6,0,12.6-0.2,12.6,12.5c0,17.3,0,34.5,0,51.8c0,6.3-9.4,13.4-15.4,11.3c-1-0.3-1.8-2.5-1.8-3.9c-0.2-7.6-0.2-15.1,0-22.7
	c0.1-3.5-1-4.9-4.7-4.8c-5.7,0.2-11.5,0.1-17.3,0c-3.1-0.1-4.3,1.3-4.3,4.4c0.1,7.4-0.1,14.8,0,22.3c0.1,3.4-0.9,4.9-4.6,5
	c-12.3,0.5-12.3,0.6-12.3-11.9C382.4,119.6,382.4,111.9,382.4,104.2C382.4,104.2,382.4,104.2,382.4,104.2z"/>
<path class="st0" d="M452,138.5c1.7-6.2,3.3-12.1,4.9-18.1c4.3-15.6,8.5-31.2,13-46.8c1.7-5.9,8.2-10.4,14.3-10.4
	c4.1,0,8.2,0.1,12.3,0c2.5-0.1,3.7,0.7,4.4,3.3c5,18.6,10.1,37.1,15.2,55.6c0.1,0.4,0.2,0.9,0.3,1.3c2.2,8,1.2,10.5-6,14.7
	c-3.8,2.2-6.7,1-7.9-3.2c-3.1-11.2-3.1-11.2-14.9-11.2c-3.6,0-7.3-0.3-10.9,0.2c-1.6,0.2-3.9,1.9-4.3,3.4
	c-3.8,12.3-3.7,12.4-16.6,11.7C454.7,139.1,453.6,138.8,452,138.5z M487.1,80.1c-0.6,0.1-1.2,0.1-1.9,0.2
	c-2.6,9.4-5.3,18.8-7.7,28.3c-0.2,0.7,1.7,2.7,2.8,2.8c3.9,0.3,7.9,0.1,11.8,0.2c2.7,0,3.5-1.2,2.8-3.7c-1.1-4.1-2.2-8.2-3.3-12.3
	C490.2,90.4,488.6,85.3,487.1,80.1z"/>
<path class="st0" d="M569.3,110.8c1.4-5,2.9-10,4.3-15.1c2.7-9.6,5.4-19.2,7.9-28.9c0.7-2.7,1.9-3.8,4.7-3.7
	c5.1,0.2,10.3,0.2,15.5,0c2.8-0.1,3.6,1,3.8,3.7c1.2,19.6,2.6,39.3,3.9,58.9c0.4,6.3-5.3,13-11.1,13.5c-3.8,0.3-5.5-0.9-5.7-4.9
	c-0.6-12.7-1.3-25.4-2.1-38.1c-0.1-1.6-0.7-3.2-1-4.8c-0.5,0-0.9,0-1.4,0c-1.1,4-2.3,8-3.4,12c-2.9,10.6-6,21.3-8.7,32
	c-0.7,3-2.1,3.8-5,3.9c-9.3,0.1-9.3,0.3-11.8-8.4c-3.5-12.4-6.9-24.8-10.3-37.2c-0.2-0.7-0.5-1.3-0.7-1.9c-0.4,0-0.8-0.1-1.3-0.1
	c-0.3,2-0.8,4.1-0.9,6.1c-0.8,12.5-1.6,25.1-2.3,37.6c-0.2,3-1.4,4-4.2,3.9c-3-0.1-6.1-0.1-9.1,0c-2.8,0.1-3.7-1.1-3.5-3.8
	c1.1-17.2,2.1-34.4,3.1-51.7c0.1-1.8,0.8-3.7,0.5-5.4c-1.2-6.6,2.5-10.9,7.5-13.1c4.3-1.9,9.6-1.6,14.4-1.8c0.8,0,2.2,2.2,2.6,3.6
	c3.9,13.7,7.7,27.4,11.6,41.1c0.3,0.9,0.8,1.8,1.2,2.7C568.4,110.9,568.8,110.8,569.3,110.8z"/>
<path class="st0" d="M663.3,110.8c1.4-5,2.9-10,4.3-15.1c2.7-9.6,5.4-19.2,7.9-28.9c0.7-2.7,1.9-3.8,4.7-3.7
	c5.1,0.2,10.3,0.2,15.5,0c2.8-0.1,3.6,1,3.8,3.7c1.2,19.6,2.6,39.3,3.9,58.9c0.4,6.3-5.3,13-11.1,13.5c-3.8,0.3-5.5-0.9-5.7-4.9
	c-0.6-12.7-1.3-25.4-2.1-38.1c-0.1-1.6-0.7-3.2-1-4.8c-0.5,0-0.9,0-1.4,0c-1.1,4-2.3,8-3.4,12c-2.9,10.6-6,21.3-8.7,32
	c-0.7,3-2.1,3.8-5,3.9c-9.3,0.1-9.3,0.3-11.8-8.4c-3.5-12.4-6.9-24.8-10.3-37.2c-0.2-0.7-0.5-1.3-0.7-1.9c-0.4,0-0.8-0.1-1.3-0.1
	c-0.3,2-0.8,4.1-0.9,6.1c-0.8,12.5-1.6,25.1-2.3,37.6c-0.2,3-1.4,4-4.2,3.9c-3-0.1-6.1-0.1-9.1,0c-2.8,0.1-3.7-1.1-3.5-3.8
	c1.1-17.2,2.1-34.4,3.1-51.7c0.1-1.8,0.8-3.7,0.5-5.4c-1.2-6.6,2.5-10.9,7.5-13.1c4.3-1.9,9.6-1.6,14.4-1.8c0.8,0,2.2,2.2,2.6,3.6
	c3.9,13.7,7.7,27.4,11.6,41.1c0.3,0.9,0.8,1.8,1.2,2.7C662.4,110.9,662.8,110.8,663.3,110.8z"/>
<path class="st0" d="M714.9,138.5c1.7-6.2,3.3-12.1,4.9-18.1c4.3-15.6,8.5-31.2,13-46.8c1.7-5.9,8.2-10.4,14.3-10.4
	c4.1,0,8.2,0.1,12.3,0c2.5-0.1,3.7,0.7,4.4,3.3c5,18.6,10.1,37.1,15.2,55.6c0.1,0.4,0.2,0.9,0.3,1.3c2.2,8,1.2,10.5-6,14.7
	c-3.8,2.2-6.7,1-7.9-3.2c-3.1-11.2-3.1-11.2-14.9-11.2c-3.6,0-7.3-0.3-10.9,0.2c-1.6,0.2-3.9,1.9-4.3,3.4
	c-3.8,12.3-3.7,12.4-16.6,11.7C717.6,139.1,716.6,138.8,714.9,138.5z M750,80.1c-0.6,0.1-1.2,0.1-1.9,0.2
	c-2.6,9.4-5.3,18.8-7.7,28.3c-0.2,0.7,1.7,2.7,2.8,2.8c3.9,0.3,7.9,0.1,11.8,0.2c2.7,0,3.5-1.2,2.8-3.7c-1.1-4.1-2.2-8.2-3.3-12.3
	C753.1,90.4,751.5,85.3,750,80.1z"/>
<path class="st0" d="M817.5,141.8c-7.3-1-14.6-2-21.9-2.9c-3.2-0.4-3.8-2.4-3.3-5.2c0.7-3.8,6.4-8,10.2-7.8
	c7.8,0.4,15.7,0.7,23.5,0.9c3,0.1,4.1-1.6,4.1-4.6c0.3-11.6,0.4-11.4-11.1-12.4c-4.9-0.4-9.9-1.4-14.7-2.7
	c-7.6-2.1-11.8-8-11.9-17.8c0-9.5-0.2-19.6,10.7-24.4c2.6-1.1,5.5-2.1,8.3-2c9.7,0.1,19.3,0.6,29,1.2c4.4,0.3,5.5,2.7,3.4,6.5
	c-2.3,4.2-7.5,6.8-12.3,6.6c-5.6-0.2-11.2-0.1-16.8-0.1c-2.5,0-3.6,1.3-3.7,4c-0.6,12-0.6,11.8,11.1,12.8c4.9,0.4,9.9,1.5,14.6,3
	c7.2,2.2,11.1,7.6,11.8,15.1c0.3,2.7,0.4,5.4,0.3,8.2c-0.5,12.7-7.1,19.7-19.9,20.8c-3.8,0.3-7.6,0-11.3,0
	C817.6,141.2,817.5,141.5,817.5,141.8z"/>
<path class="st0" d="M858.5,138.5c1.7-6.2,3.3-12.1,4.9-18.1c4.3-15.6,8.5-31.2,13-46.8c1.7-5.9,8.2-10.4,14.3-10.4
	c4.1,0,8.2,0.1,12.3,0c2.5-0.1,3.7,0.7,4.4,3.3c5,18.6,10.1,37.1,15.2,55.6c0.1,0.4,0.2,0.9,0.3,1.3c2.2,8,1.2,10.5-6,14.7
	c-3.8,2.2-6.7,1-7.9-3.2c-3.1-11.2-3.1-11.2-14.9-11.2c-3.6,0-7.3-0.3-10.9,0.2c-1.6,0.2-3.9,1.9-4.3,3.4
	c-3.8,12.3-3.7,12.4-16.6,11.7C861.2,139.1,860.2,138.8,858.5,138.5z M893.7,80.1c-0.6,0.1-1.2,0.1-1.9,0.2
	c-2.6,9.4-5.3,18.8-7.7,28.3c-0.2,0.7,1.7,2.7,2.8,2.8c3.9,0.3,7.9,0.1,11.8,0.2c2.7,0,3.5-1.2,2.8-3.7c-1.1-4.1-2.2-8.2-3.3-12.3
	C896.7,90.4,895.2,85.3,893.7,80.1z"/>
<path class="st0" d="M951.4,108.9c0-8.6-0.1-17.3,0.1-25.9c0.1-3.7-1.3-5.3-5-5.1c-3.3,0.2-6.7,0.1-10-0.1c-1.2-0.1-3.1-0.7-3.3-1.4
	c-0.4-1.2-0.1-3.3,0.8-4.1c4.9-4.7,9.4-9.6,17.7-8.9c10.5,0.9,21.2,0.3,31.8,0.2c3.2,0,4.3,1,4.2,4.2c-0.4,11.9,1.7,10-10.1,10.1
	c-10.1,0.1-9.1-0.5-9.1,9.1c0,13.8,0,27.6,0,41.3c0,6.3-9.1,13.2-15,11.2c-1-0.3-1.9-2.5-1.9-3.8
	C951.3,126.8,951.4,117.8,951.4,108.9z"/>
<path class="st1" d="M209,82.6c-9,2.9-17.9,5.7-27,8.7c-0.5-1.9-1-3.7-1.3-5.5c-0.1-0.3,0.3-0.8,0.6-0.9c2.5-1.4,5-2.7,7.5-4
	c0.7-0.4,1.1-0.8,0.9-1.7c-0.6-3.9-0.6-7.8,0-11.7c0.1-0.9-0.2-1.3-0.9-1.7c-2.5-1.3-5-2.6-7.5-3.9c-0.6-0.3-0.8-0.7-0.6-1.3
	c1.1-3.5,2.3-7,3.4-10.5c0.3-0.9,1-0.7,1.6-0.6c2.8,0.4,5.6,0.8,8.4,1.2c0.6,0.1,0.9,0,1.2-0.6c2-3.6,4.4-6.9,7.2-10
	c0.2-0.3,0.3-1,0.1-1.3c-1.4-2.9-2.8-5.7-4.3-8.8c1.8-1.4,3.7-2.9,5.6-4.3c1.3-0.9,2.6-1.7,3.9-2.6c0.6-0.5,1.1-0.4,1.6,0.2
	c2.1,2.1,4.2,4.1,6.3,6.1c0.4,0.4,0.8,0.5,1.3,0.2c3.7-1.8,7.5-3,11.5-3.7c0.8-0.2,1-0.6,1.1-1.3c0.5-2.9,1-5.7,1.5-8.6
	c0-0.2,0.1-0.5,0.3-0.8c4.2,0,8.3,0,12.6,0c0.6,3.4,1.1,6.5,1.7,9.7c0.1,0.4,0.5,0.9,0.9,1c4,0.8,7.9,2.1,11.7,3.8
	c0.3,0.2,1-0.1,1.4-0.4c2.2-2,4.3-4.1,6.4-6.2c0.1-0.1,0.3-0.2,0.7-0.6c3.1,2.4,6.2,4.7,9.4,7.1c0.6,0.5,0.4,0.9,0.2,1.4
	c-1.4,2.8-2.8,5.7-4.2,8.6c0.9,1,1.9,2,2.7,3.2c1.7,2.3,3.2,4.7,4.8,7c0.4,0.7,0.7,1,1.7,0.9c2.7-0.5,5.5-0.8,8.3-1.2
	c0.8-0.1,1.3,0,1.5,0.9c1.1,3.3,2.2,6.7,3.3,10c0.3,0.8,0,1.3-0.8,1.7c-2.5,1.2-4.9,2.6-7.4,3.9c-0.7,0.4-0.9,0.8-0.8,1.6
	c0.5,3.9,0.5,7.7,0,11.6c-0.1,0.8,0.1,1.2,0.9,1.6c2.5,1.3,4.9,2.6,7.4,3.9c0.7,0.4,1,0.8,0.8,1.6c-1.1,3.4-2.3,6.9-3.4,10.3
	c-0.2,0.6-0.6,0.8-1.2,0.7c-2.9-0.4-5.8-0.8-8.6-1.3c-0.7-0.1-1.1,0-1.4,0.7c-1.9,3.5-4.3,6.8-7,9.7c-0.5,0.6-0.5,0.9-0.2,1.5
	c1.3,2.6,2.6,5.2,3.9,7.8c0.3,0.5,0.3,0.9-0.2,1.3c-3.2,2.4-6.3,4.8-9.5,7.2c-2.1-2-3.9-3.7-5.7-5.5c-2-2-2-1.9-4.6-1
	c-3.2,1.1-6.4,2-9.6,2.9c-0.7,0.2-1.1,0.4-1.2,1.3c-0.5,3.1-1.1,6.2-1.7,9.6c-3.5,0-6.9,0.1-10.4,0c-2.3-0.1-2.3-0.2-2.7-2.5
	c-0.4-2.4-0.8-4.7-1.2-7.1c-0.1-0.8-0.5-1-1.2-1.2c-3.9-0.7-7.7-2-11.4-3.7c-0.6-0.3-1-0.2-1.4,0.3c-2,2-4.1,4-6.2,6
	c-0.5,0.5-0.9,0.7-1.6,0.2c-1.5-1-3.1-2-4.7-3c5.6-7.7,11.2-15.3,16.8-22.9c7.7,5.3,16,7.1,25.1,4.8c6.5-1.7,11.9-5.2,16-10.5
	c8.5-11,8.5-26.2-0.1-37c-8.6-10.8-23.2-14.2-35.8-8.6C214.8,50.8,203.9,64.2,209,82.6z"/>
<g>
	<path class="st2" d="M236.7,63.8L72,62c-6.7-0.1-12.2,5.3-12.3,12l-2.4,225.5c-0.1,6.7,5.3,12.2,12,12.3l164.8,1.7
		c6.7,0.1,12.2-5.3,12.3-12l2.4-225.5C248.8,69.4,243.4,63.9,236.7,63.8z"/>
	
		<rect id="XMLID_1_" x="56.4" y="104.3" transform="matrix(1.063208e-02 -0.9999 0.9999 1.063208e-02 -30.7248 333.3144)" class="st3" width="193.4" height="155.8"/>
	<path class="st4" d="M163.9,79c0.1-5.4-4.3-9.8-9.7-9.9c-5.4-0.1-9.8,4.3-9.9,9.7l-23.8-0.3c-2.1,0-3.8,1.7-3.8,3.7l0,3.4
		c0,3.5,2.8,6.4,6.3,6.5l62,0.7c3.5,0,6.4-2.8,6.5-6.3l0-3.4c0-2.1-1.7-3.8-3.7-3.8L163.9,79z"/>
	<line class="st5" x1="128" y1="114.5" x2="215.8" y2="115.5"/>
	<line class="st5" x1="127.8" y1="130.3" x2="201.3" y2="131"/>
	<line class="st5" x1="127.7" y1="146" x2="215.4" y2="146.9"/>
	<line class="st5" x1="127.5" y1="166" x2="180.7" y2="166.5"/>
	<line class="st5" x1="127.3" y1="181.7" x2="215" y2="182.6"/>
	<path class="st4" d="M89.1,165.6l-0.3,25.2l25.2,0.3l0.3-25.2L89.1,165.6z"/>
	<polyline class="st6" points="94.5,177.6 101.5,184.2 116,170.2 	"/>
	<path class="st4" d="M88.5,218.2l-0.3,25.2l25.2,0.3l0.3-25.2L88.5,218.2z"/>
	<polyline class="st6" points="93.9,230.3 100.9,236.8 115.4,222.9 	"/>
	<line class="st5" x1="126.9" y1="219.8" x2="204.2" y2="220.7"/>
	<line class="st5" x1="126.7" y1="235.6" x2="194.7" y2="236.3"/>
	<path class="st4" d="M89.6,112.9l-0.3,25.2l25.2,0.3l0.3-25.2L89.6,112.9z"/>
	<polyline class="st6" points="95.1,124.9 102,131.5 116.5,117.6 	"/>
</g>
<line class="st7" x1="337.9" y1="158.8" x2="987.2" y2="165.7"/>
<path class="st8" d="M39.8,287.6c-0.7-1.7-1.3-3.3-2.1-5.2c24.2-7.8,48.4-15.5,72.6-23.3c0.1,0.1,0.1,0.2,0.2,0.3
	c-2.7,3.8-5.5,7.5-8.2,11.3c-5.2,7.1-10.4,14.2-15.6,21.2c-5.7,7.8-11.5,15.7-17.2,23.5c-1.1,1.5-2.2,3.1-3.4,4.6
	c-0.2,0.3-1,0.1-1.5,0.2c0,0-0.1-0.1-0.1-0.1c-2.9-2.5-2.9-2.5-1.1-5.9c1.5-3,2.9-6.1,4.4-9.1c0.6-1.1,0.4-2-0.4-2.8
	c-4.5-4.4-8-9.6-11.1-15.1c-0.6-1-1.3-1.5-2.4-1.3c-3.4,0.4-6.8,0.8-10.2,1.2C42.4,287.2,41.2,287.4,39.8,287.6z"/>
</svg>
