<?xml version="1.0" encoding="utf-8"?>
<!-- Generator: Adobe Illustrator 23.0.3, SVG Export Plug-In . SVG Version: 6.00 Build 0)  -->
<svg version="1.1" id="Layer_1" xmlns="http://www.w3.org/2000/svg" xmlns:xlink="http://www.w3.org/1999/xlink" x="0px" y="0px"
	 viewBox="0 0 55.1 47" style="enable-background:new 0 0 55.1 47;" xml:space="preserve">
<style type="text/css">
	.st0{fill:#FFD04F;}
</style>
<path class="st0" d="M4.4,22.6c-0.5-1.1-0.9-2.2-1.4-3.5C19.5,13.8,36,8.5,52.5,3.2c0,0.1,0.1,0.1,0.1,0.2C50.7,6,48.9,8.5,47,11.1
	c-3.5,4.8-7.1,9.7-10.6,14.5c-3.9,5.3-7.8,10.7-11.7,16c-0.8,1-1.5,2.1-2.3,3.1c-0.2,0.2-0.7,0.1-1,0.1l-0.1-0.1
	c-2-1.7-2-1.7-0.8-4.1c1-2.1,2-4.1,3-6.2c0.4-0.7,0.3-1.4-0.3-1.9c-3.1-3-5.4-6.6-7.6-10.3c-0.4-0.7-0.9-1-1.6-0.9
	c-2.3,0.3-4.6,0.5-6.9,0.8C6.2,22.3,5.4,22.5,4.4,22.6z"/>
</svg>
