<?xml version="1.0" encoding="utf-8"?>
<!-- Generator: Adobe Illustrator 23.0.3, SVG Export Plug-In . SVG Version: 6.00 Build 0)  -->
<svg version="1.1" id="Layer_1" xmlns="http://www.w3.org/2000/svg" xmlns:xlink="http://www.w3.org/1999/xlink" x="0px" y="0px"
	 viewBox="0 0 294.1 290.3" style="enable-background:new 0 0 294.1 290.3;" xml:space="preserve">
<style type="text/css">
	.st0{fill:#585858;}
	.st1{fill:#FFD04F;}
</style>
<g>
	<path class="st0" d="M161.7,193.5c6.3,19.5,12.5,38.8,18.8,58.5c-4.2,1.1-8,2.1-11.8,2.9c-0.6,0.1-1.6-0.7-2-1.4
		c-2.9-5.4-5.8-10.8-8.6-16.3c-0.8-1.6-1.7-2.3-3.6-2c-8.5,1.2-16.9,1.2-25.4,0c-1.9-0.3-2.8,0.4-3.6,2c-2.8,5.5-5.7,10.9-8.5,16.4
		c-0.7,1.3-1.5,1.8-2.8,1.4c-7.6-2.5-15.1-5-22.7-7.4c-1.9-0.6-1.5-2.1-1.3-3.4c0.9-6.1,1.7-12.2,2.7-18.3c0.2-1.4-0.1-2-1.3-2.7
		c-7.9-4.3-15.1-9.6-21.7-15.7c-0.6-0.5-2.1-0.6-2.8-0.3c-6.3,2.9-12.5,6-19.1,9.3c-3.1-4-6.3-8-9.3-12c-2-2.7-3.6-5.7-5.6-8.5
		c-1-1.4-0.8-2.3,0.4-3.5c4.5-4.5,8.8-9.1,13.3-13.6c1-1,1.1-1.8,0.5-2.9c-3.8-7.9-6.5-16.3-8.1-24.9c-0.3-1.8-1.2-2.2-2.7-2.4
		c-6.2-1-12.5-2.1-18.7-3.2c-0.5-0.1-1-0.3-1.8-0.5c0-9,0-18.1,0-27.3c7.3-1.3,14.2-2.4,21.1-3.8c0.8-0.2,1.9-1.2,2.1-1.9
		c1.8-8.8,4.6-17.2,8.3-25.4c0.3-0.7-0.3-2.3-0.9-3c-4.4-4.7-8.9-9.3-13.4-13.9c-0.3-0.3-0.5-0.7-1.3-1.6
		c5.1-6.8,10.3-13.6,15.4-20.4c1-1.3,1.9-0.9,3.1-0.4c6.1,3.1,12.3,6.1,18.6,9.2c2.3-1.9,4.4-4.1,6.9-5.8c5-3.6,10.1-7,15.3-10.4
		c1.4-0.9,2.2-1.6,1.8-3.6c-1.1-6-1.8-12-2.7-18c-0.3-1.7,0.1-2.7,1.9-3.3c7.2-2.3,14.5-4.7,21.7-7.1c1.8-0.6,2.8-0.1,3.7,1.7
		c2.7,5.4,5.7,10.7,8.4,16.1c0.8,1.6,1.8,2.1,3.5,1.8c8.4-1.2,16.8-1.1,25.1,0c1.7,0.2,2.6-0.3,3.4-1.9c2.7-5.4,5.7-10.7,8.4-16.1
		c0.8-1.6,1.7-2.2,3.4-1.7c7.5,2.5,15,4.9,22.4,7.4c1.3,0.4,1.6,1.2,1.4,2.6c-1,6.2-1.8,12.5-2.8,18.8c-0.2,1.5,0,2.3,1.4,3.1
		c7.7,4.1,14.7,9.2,21,15.2c1.2,1.2,2,1,3.4,0.4c5.6-2.9,11.3-5.6,17-8.4c1.1-0.6,2-0.8,2.9,0.4c5.1,6.9,10.3,13.7,15.6,20.6
		c-4.3,4.4-8.1,8.4-12,12.4c-4.3,4.4-4.1,4.3-2.1,9.9c2.4,6.8,4.4,13.8,6.4,20.8c0.5,1.6,0.9,2.4,2.8,2.7c6.8,1,13.5,2.3,20.8,3.6
		c0,7.5,0.2,15-0.1,22.5c-0.2,5.1-0.5,5-5.5,5.8c-5.1,0.8-10.2,1.8-15.4,2.6c-1.7,0.3-2.3,1.1-2.6,2.6c-1.6,8.6-4.2,16.8-8,24.6
		c-0.6,1.3-0.4,2.1,0.6,3.1c4.4,4.4,8.7,9,13.1,13.4c1.2,1.2,1.5,2,0.5,3.5c-2.3,3.3-4.3,6.7-6.6,10.2
		c-16.7-12.2-33.1-24.2-49.7-36.4c11.5-16.6,15.3-34.7,10.3-54.4c-3.6-14.2-11.3-25.8-22.8-34.8c-23.9-18.6-56.9-18.4-80.3,0.3
		c-23.4,18.7-30.9,50.4-18.7,77.7C92.9,181.1,121.9,204.7,161.7,193.5z"/>
	<polygon class="st1" points="278.1,209.4 152.2,136.7 152.2,282.1 	"/>
</g>
</svg>
