<?xml version="1.0" encoding="utf-8"?>
<!-- Generator: Adobe Illustrator 23.0.3, SVG Export Plug-In . SVG Version: 6.00 Build 0)  -->
<svg version="1.1" id="Layer_1" xmlns="http://www.w3.org/2000/svg" xmlns:xlink="http://www.w3.org/1999/xlink" x="0px" y="0px"
	 viewBox="0 0 1046.4 275.8" style="enable-background:new 0 0 1046.4 275.8;" xml:space="preserve">
<style type="text/css">
	.st0{clip-path:url(#SVGID_2_);}
</style>
<path d="M68.1,127.6c-1.4-1.2-3.8-0.9-5.2,0.6l-12.2,15.1l-3.8-3.5c-1.4-1.4-3.8-1.4-5.2,0c-1.4,1.4-1.4,3.8,0,5.2l7,6.4
	c1.7,1.4,4.3,0.9,5.2-0.3l14.5-18.3C69.8,131.1,70.4,129.4,68.1,127.6z"/>
<g>
	<g>
		<defs>
			<rect id="SVGID_1_" x="13.3" y="13.5" width="187.4" height="252"/>
		</defs>
		<clipPath id="SVGID_2_">
			<use xlink:href="#SVGID_1_"  style="overflow:visible;"/>
		</clipPath>
		<g class="st0">
			<path d="M196.1,162.4c-2,0-3.5,1.7-3.5,3.5v92.4H20.9V20.8h119.6v48c0,2,1.4,3.8,3.5,3.8h48.1v4.6c0,2,1.7,3.5,3.5,3.5
				c1.7,0,3.5-1.7,3.5-3.5v-8.4c0-0.9-0.3-1.7-1.2-2.6l-51-51.6c-0.6-0.9-1.7-1.2-2.6-1.2H17.4c-2,0-3.5,1.7-3.5,3.5V262
				c0,2,1.7,3.5,3.5,3.5h178.7c2,0,3.5-1.7,3.5-3.5v-96.2C199.6,163.8,198.1,162.4,196.1,162.4z"/>
		</g>
	</g>
</g>
<path d="M174.1,88.5c0-2-1.7-3.5-3.5-3.5H84.3c-2,0-3.5,1.7-3.5,3.5c0,1.7,1.7,3.5,3.5,3.5h86.3C172.7,92.3,174.1,90.6,174.1,88.5z"
	/>
<path d="M84.3,103.6c-2,0-3.5,1.7-3.5,3.5c0,1.7,1.7,3.5,3.5,3.5h62c2,0,3.5-1.7,3.5-3.5c0-1.7-1.4-3.5-3.5-3.5H84.3z"/>
<path d="M68.1,79.8c-1.4-1.2-3.8-0.9-5.2,0.6L50.7,95.5L46.9,92c-1.4-1.4-3.8-1.4-5.2,0c-1.4,1.4-1.4,3.8,0,5.2l7,6.4
	c1.7,1.4,4.3,0.9,5.2-0.3l14.5-18.2C69.8,83.3,70.1,81.6,68.1,79.8z"/>
<path d="M68.1,173.7c-1.4-1.2-3.8-0.9-5.2,0.6l-12.2,15.1l-3.8-3.5c-1.4-1.4-3.8-1.4-5.2,0c-1.4,1.4-1.4,3.8,0,5.2l7,6.4
	c1.7,1.4,4.3,0.9,5.2-0.3L68.4,179C69.8,177.5,70.1,175.4,68.1,173.7z"/>
<path d="M262.7,79.3l-10.4-8.1l6.9-9c1.4-1.7,2.9-4.6-0.3-7.2l-15.1-11.9c-2.3-2-6.1-2-8.1,0.6l-7,9c-0.6-0.3-1.4-0.6-2-0.3
	c-0.9,0-1.7,0.6-2.3,1.4l-12.2,15.6c-0.9,1.4-0.9,3.2,0,4.3l-45.8,58.2H84.1c-2,0-3.5,1.7-3.5,3.5c0,1.7,1.7,3.5,3.5,3.5h76.5
	l-8.7,11.3H84.1c-2,0-3.5,1.7-3.5,3.5c0,1.7,1.7,3.5,3.5,3.5h62.3l-16.3,21.7H84.3c-2,0-3.5,1.7-3.5,3.5s1.7,3.5,3.5,3.5h40
	l-7.2,9.3c0,0-0.3,0.9-0.6,2H84.3c-2,0-3.5,1.7-3.5,3.5c0,1.7,1.7,3.5,3.5,3.5h29.8c-2.9,9.3-6.7,22.3-6.7,22.3
	c-0.6,1.4,0,3.2,1.2,4.1c1.2,0.9,2.9,0.9,4.1,0.3c0,0,27.5-16.5,28.1-17.1l94.7-121.9c0.6,0.3,1.2,0.6,2,0.6c1.2,0,2.3-0.6,2.9-1.4
	l9.8-12.7l5.2,4.1L225.9,121c-1.2,1.7-0.9,3.8,0.6,5.2c1.4,1.4,3.8,0.9,5.2-0.6l31.9-40.8C264.8,82.7,264.2,80.4,262.7,79.3z
	 M117,220l5.2-17.4c2,1.2,3.8,2.3,5.5,3.5c1.7,1.4,3.5,2.9,4.9,4.3L117,220z M237,84.2l-17.1-13.3l7.2-9.3l17.1,13.3L237,84.2z"/>
<g>
	<g transform="translate(521.42986, 309.858842)">
		<g>
			<path d="M-210.5-266.7c-0.1,3-0.2,6.1-0.3,9.3c-0.1,3.2-0.1,6.5-0.1,9.8c0,8.9,0.1,17.3,0.4,25.1c0.2,7.8,0.4,16.1,0.5,25
				c-0.8,1.3-2.3,2.4-4.4,3.2c-2.1,0.9-4.3,1.3-6.4,1.3c-1.5,0-2.9-0.3-4.1-0.9c-1.2-0.6-2.1-1.5-2.5-2.8c-0.3-0.8-0.5-1.8-0.5-2.8
				s0.1-2.1,0.3-3.2c0.2-1.1,0.3-2.3,0.3-3.6c-0.1-4.8-0.2-9.8-0.2-15c0-5.3,0-10.5-0.1-15.8c-0.1-5.2-0.1-10.3-0.3-15.2
				c-0.1-4.9-0.3-9.4-0.5-13.5c-0.6-0.1-1.2-0.2-1.8-0.2s-1.1,0-1.7,0c-1.3,0-2.6,0-4,0.1s-2.8,0.1-4.2,0.1s-2.8-0.1-4.4-0.2
				c-1.5-0.1-2.9-0.4-4.1-0.8c-1.2-0.4-2.2-1-3-1.8c-0.8-0.8-1.1-1.8-1.1-3c0-2.2,0.7-3.9,2.2-5.2c1.5-1.3,3.4-2.2,5.8-2.7
				c2.4-0.5,5-0.8,8-1c3-0.1,5.9-0.2,9-0.2c5.2,0,10.5,0.2,15.8,0.6s10.2,0.6,14.6,0.6h6.6c2.3,0,4.3,0.3,6.1,1s2.7,2.4,2.8,5v1.2
				c0,2.7-1.2,4.4-3.5,5.3s-5.1,1.3-8.4,1.3c-3,0-6.1-0.2-9.1-0.6C-205.9-266.3-208.4-266.6-210.5-266.7z"/>
		</g>
	</g>
</g>
<g>
	<g transform="translate(579.752897, 309.858842)">
		<g>
			<path d="M-168.6-232.4c-3.1-0.8-6.4-1.2-9.9-1.2c-5.1,0-10,0.6-14.7,1.9s-9.1,2.4-13.3,3.3c-0.1,0.6-0.2,1.2-0.2,1.8s0,1.3,0,1.8
				c0,3.3,0.2,6.5,0.7,9.7s0.7,6.3,0.7,9.3c0,2.2-0.3,4.3-0.8,6.4c-0.5,2-1.4,3.9-2.7,5.5c-0.9,0.2-2.1,0.5-3.4,0.9
				c-1.3,0.3-2.7,0.5-4.1,0.5c-2.2,0-3.8-0.5-4.9-1.6c-0.8-0.7-1.3-1.7-1.6-3c-0.2-1.3-0.4-2.7-0.4-4.4c0-1.7,0.1-3.6,0.3-5.6
				s0.3-4,0.3-5.8v-1.4c-0.2-4.1-0.3-8.3-0.3-12.8s-0.1-9-0.3-13.6c-0.2-4.6-0.5-9.1-0.9-13.6s-1-8.7-1.8-12.8
				c-0.2-1.3-0.6-2.5-1.2-3.7c-0.6-1.2-0.9-2.4-0.9-3.4c0.3-2,1.5-3.6,3.6-4.8c2-1.2,4.2-1.8,6.5-1.8c1.4,0,2.8,0.3,4.4,0.9
				c1.3,0.6,2.3,1.6,3.1,3c0.8,1.4,1.4,3.1,1.8,5c0.4,2,0.7,4.2,0.9,6.6s0.3,4.9,0.3,7.3c0,1,0,1.8,0,2.3s0,0.9-0.1,1.3
				c-0.1,0.4-0.1,0.8-0.1,1.3s0,1.1,0,1.9c0,1.8,0.1,3.4,0.2,4.9c0.1,1.5,0.3,2.7,0.5,3.6c5.9-0.8,11.6-1.8,17-2.9
				c5.4-1.1,11.3-1.7,17.8-1.7c0.7,0,1.4,0,2,0.1c0.6,0.1,1.3,0.1,2,0.1c0-1.9,0-3.7,0.1-5.5s0.1-3.6,0.1-5.5c0-1.2,0-2.1,0-2.9
				c0-0.8-0.1-1.4-0.2-2c-0.1-0.6-0.2-1.3-0.4-2c-0.1-0.8-0.3-1.8-0.5-3c-0.1-0.9-0.3-1.9-0.5-2.8s-0.3-1.9-0.3-2.8
				c0-0.9,0.1-1.5,0.3-1.9c0.6-1.3,1.9-2.3,4-3.1c2.1-0.8,4.3-1.2,6.5-1.2c2.1,0,3.7,0.4,4.9,1.2c1.4,1.2,2.3,3.4,2.6,6.8
				c0.3,3.4,0.5,7.1,0.5,11.1c0,3.6-0.2,7.5-0.5,11.7c-0.3,4.2-0.5,8.5-0.5,12.9v1.9c0.1,3.1,0.4,6,0.8,8.5c0.4,2.6,0.7,5,1,7.3
				c0.7,5.7,1.2,11.4,1.6,17c0,2.4-1.2,4.4-3.6,5.8c-2.4,1.4-4.8,2.2-7.2,2.2c-0.9,0-1.8-0.1-2.5-0.3c-0.8-0.2-1.4-0.6-2-1.1
				c-0.8-0.6-1.4-1.6-1.6-3.2c-0.3-1.6-0.5-3.3-0.6-5.1c-0.1-1.9-0.2-3.8-0.2-5.7s-0.1-3.5-0.2-4.8c-0.2-3.7-0.6-7-1-9.8
				C-168.1-226.1-168.4-229.2-168.6-232.4z"/>
		</g>
	</g>
</g>
<g>
	<g transform="translate(652.167398, 309.858842)">
		<g>
			<path d="M-150.6-195.2c-1.6-5.9-3-11.6-4.2-17.1s-2.7-11.1-4.7-16.8c-1.4,0.6-3,1-4.7,1.1c-1.7,0.2-3.6,0.3-5.6,0.3
				c-1.7,0-3.5,0-5.3-0.1c-1.8-0.1-3.6-0.1-5.3-0.1h-1.4c-2.3,4.9-4.3,10.1-5.9,15.7c-1.6,5.6-3.3,11.1-4.9,16.7
				c-0.5,0.9-1.6,1.7-3.4,2.3c-1.8,0.6-3.7,0.9-5.6,0.9c-2,0-3.7-0.4-5.2-1.1c-1.5-0.8-2.3-2.1-2.3-3.9c0-1.6,0.3-3.4,0.9-5.4
				c0.6-2,1.3-3.9,2.1-5.9s1.7-3.9,2.6-5.9c0.9-2,1.7-3.8,2.3-5.4l1.9-4.9c1.5-3.9,3-7.6,4.6-11c1.6-3.4,3.1-6.8,4.7-10.2
				c1.6-3.4,3.1-6.8,4.7-10.3c1.6-3.5,3.2-7.3,5-11.3c0.8-2,1.6-4,2.3-6.2c0.8-2.2,1.5-3.6,2.2-4.4c0.8-0.9,1.8-1.6,3-1.9
				c1.2-0.3,2.5-0.5,3.9-0.5c2.6,0,5,0.5,7.5,1.4c2,3,3.4,6.1,4.2,9.2c0.8,3.1,1.9,6.5,3.1,10.1c1.2,3.4,2.4,6.7,3.9,10.1
				c1.5,3.4,2.7,6.8,3.6,10.4c0.9,3.6,1.8,7,2.7,10.1c0.9,3.1,1.8,6.2,2.7,9.1c0.9,3,1.9,5.9,2.9,9c1,3,2.1,6.1,3.4,9.4
				c0.1,0.3,0.2,0.7,0.3,1c0.1,0.3,0.1,0.8,0.1,1.4c0,1.3-0.2,2.4-0.7,3.5c-1.2,0.9-2.6,1.7-4.2,2.3c-1.6,0.6-3.2,0.9-4.9,0.9
				C-146.6-192.9-148.7-193.7-150.6-195.2z M-168.7-259.7c-1.4,3-2.7,5.9-4,8.8c-1.3,2.8-2.4,6-3.3,9.3c2,0.2,3.9,0.4,5.7,0.5
				c1.9,0.1,3.7,0.2,5.4,0.2h1.8c-0.7-3.4-1.5-6.6-2.4-9.6C-166.5-253.7-167.5-256.7-168.7-259.7z"/>
		</g>
	</g>
</g>
<g>
	<g transform="translate(713.230437, 309.858842)">
		<g>
			<path d="M-109.3-193.8c-4.2-10.4-7.7-20.7-10.5-30.8s-6.1-20.5-9.8-31.2c-1.5,1.5-2.7,3.3-3.7,5.5c-0.9,2.1-1.8,4.2-2.8,6.2
				c-0.9,2-1.9,3.7-3,5c-1.1,1.4-2.5,2.1-4.3,2.1c-1.6,0-3.1-0.4-4.5-1.1c-1.4-0.8-2.7-1.7-3.9-2.9c-1.2-1.2-2.4-2.4-3.5-3.8
				s-2.1-2.7-3-4l-1.7-2.3c-0.3,2.4-0.8,5.2-1.4,8.2s-1.2,6.1-1.9,9.3c-0.7,3.2-1.4,6.4-2.2,9.6c-0.8,3.2-1.5,6.1-2.2,8.6
				c-0.6,2.2-1.1,4.5-1.7,7c-0.5,2.5-1.2,4.8-2.1,7c-0.9,2.1-2,4-3.3,5.6c-1.3,1.6-3.1,2.5-5.3,2.9c-0.2,0-0.5,0-0.7,0.1
				c-0.2,0.1-0.5,0.1-0.7,0.1c-1.6,0-3-0.4-4.1-1.1c-1.1-0.8-2.1-1.7-3-2.9l0.7-2.8c2-7.8,4-16.5,6.2-26.2s3.9-19.3,5.1-28.8
				l0.4-2.3c0.3-2.9,0.8-5.8,1.3-8.6c0.5-2.8,1.3-5.3,2.2-7.5s2.2-3.9,3.9-5.2c1.7-1.3,3.9-2,6.5-2c0.5,0,0.9,0,1.5,0
				c0.5,0,1.1,0.1,1.6,0.2c1.5,1,2.8,2.4,4,4s2.3,3.3,3.3,5c1,1.7,2.1,3.5,3,5.3c1,1.8,2.1,3.4,3.2,4.8c1.3-1.9,2.6-3.9,3.9-6.2
				c1.3-2.3,2.8-4.4,4.3-6.4c1.6-2,3.4-3.7,5.4-5s4.4-2,7.2-2c1.8,0,3.3,0.2,4.3,0.7s1.7,1.1,2.3,2c0.5,0.9,0.9,2,1.2,3.2
				c0.3,1.3,0.6,2.7,1,4.3c0.6,2.4,1.4,5.2,2.6,8.2s2.3,6.1,3.5,9.4c1.4,4.1,2.8,8.2,4.1,12.5c1.3,4.3,2.7,8.6,4,12.9
				s2.7,8.4,4.1,12.4s2.8,7.7,4.4,11c0.3,0.9,0.5,1.7,0.5,2.4c0,1.3-0.4,2.4-1.1,3.5c-0.8,1-1.7,1.9-3,2.6c-1.2,0.7-2.6,1.2-4,1.6
				c-1.4,0.4-2.9,0.6-4.3,0.6C-106.8-192.9-108.2-193.2-109.3-193.8z"/>
		</g>
	</g>
</g>
<g>
	<g transform="translate(790.211622, 309.858842)">
		<g>
			<path d="M-83.7-193.8c-4.2-10.4-7.7-20.7-10.5-30.8s-6.1-20.5-9.8-31.2c-1.5,1.5-2.7,3.3-3.7,5.5c-0.9,2.1-1.8,4.2-2.8,6.2
				c-0.9,2-1.9,3.7-3,5c-1.1,1.4-2.5,2.1-4.3,2.1c-1.6,0-3.1-0.4-4.5-1.1c-1.4-0.8-2.7-1.7-3.9-2.9c-1.2-1.2-2.4-2.4-3.5-3.8
				s-2.1-2.7-3-4l-1.7-2.3c-0.3,2.4-0.8,5.2-1.4,8.2s-1.2,6.1-1.9,9.3c-0.7,3.2-1.4,6.4-2.2,9.6c-0.8,3.2-1.5,6.1-2.2,8.6
				c-0.6,2.2-1.1,4.5-1.7,7c-0.5,2.5-1.2,4.8-2.1,7c-0.9,2.1-2,4-3.3,5.6c-1.3,1.6-3.1,2.5-5.3,2.9c-0.2,0-0.5,0-0.7,0.1
				c-0.2,0.1-0.5,0.1-0.7,0.1c-1.6,0-3-0.4-4.1-1.1c-1.1-0.8-2.1-1.7-3-2.9l0.7-2.8c2-7.8,4-16.5,6.2-26.2s3.9-19.3,5.1-28.8
				l0.4-2.3c0.3-2.9,0.8-5.8,1.3-8.6c0.5-2.8,1.3-5.3,2.2-7.5c0.9-2.2,2.2-3.9,3.9-5.2c1.7-1.3,3.9-2,6.5-2c0.5,0,0.9,0,1.5,0
				c0.5,0,1.1,0.1,1.6,0.2c1.5,1,2.8,2.4,4,4s2.3,3.3,3.3,5c1,1.7,2.1,3.5,3,5.3c1,1.8,2.1,3.4,3.2,4.8c1.3-1.9,2.6-3.9,3.9-6.2
				c1.3-2.3,2.8-4.4,4.3-6.4c1.6-2,3.4-3.7,5.4-5s4.4-2,7.2-2c1.8,0,3.3,0.2,4.3,0.7s1.7,1.1,2.3,2c0.5,0.9,0.9,2,1.2,3.2
				c0.3,1.3,0.6,2.7,1,4.3c0.6,2.4,1.4,5.2,2.6,8.2s2.3,6.1,3.5,9.4c1.4,4.1,2.8,8.2,4.1,12.5c1.3,4.3,2.7,8.6,4,12.9
				s2.7,8.4,4.1,12.4s2.8,7.7,4.4,11c0.3,0.9,0.5,1.7,0.5,2.4c0,1.3-0.4,2.4-1.1,3.5c-0.8,1-1.7,1.9-3,2.6c-1.2,0.7-2.6,1.2-4,1.6
				c-1.4,0.4-2.9,0.6-4.3,0.6C-81.2-192.9-82.5-193.2-83.7-193.8z"/>
		</g>
	</g>
</g>
<g>
	<g transform="translate(867.192797, 309.858842)">
		<g>
			<path d="M-78.9-195.2c-1.6-5.9-3-11.6-4.2-17.1s-2.7-11.1-4.7-16.8c-1.4,0.6-3,1-4.7,1.1c-1.7,0.2-3.6,0.3-5.6,0.3
				c-1.7,0-3.5,0-5.3-0.1c-1.8-0.1-3.6-0.1-5.3-0.1h-1.4c-2.3,4.9-4.3,10.1-5.9,15.7c-1.6,5.6-3.3,11.1-4.9,16.7
				c-0.5,0.9-1.6,1.7-3.4,2.3s-3.7,0.9-5.6,0.9c-2,0-3.7-0.4-5.2-1.1c-1.5-0.8-2.3-2.1-2.3-3.9c0-1.6,0.3-3.4,0.9-5.4
				s1.3-3.9,2.1-5.9c0.8-2,1.7-3.9,2.6-5.9s1.7-3.8,2.3-5.4l1.9-4.9c1.5-3.9,3-7.6,4.6-11c1.6-3.4,3.1-6.8,4.7-10.2
				c1.6-3.4,3.1-6.8,4.7-10.3s3.2-7.3,5-11.3c0.8-2,1.6-4,2.3-6.2c0.8-2.2,1.5-3.6,2.2-4.4c0.8-0.9,1.8-1.6,3-1.9
				c1.2-0.3,2.5-0.5,3.9-0.5c2.6,0,5,0.5,7.5,1.4c2,3,3.4,6.1,4.2,9.2c0.8,3.1,1.9,6.5,3.1,10.1c1.2,3.4,2.4,6.7,3.9,10.1
				c1.5,3.4,2.7,6.8,3.6,10.4c0.9,3.6,1.8,7,2.7,10.1c0.9,3.1,1.8,6.2,2.7,9.1c0.9,3,1.9,5.9,2.9,9c1,3,2.1,6.1,3.4,9.4
				c0.1,0.3,0.2,0.7,0.3,1c0.1,0.3,0.1,0.8,0.1,1.4c0,1.3-0.2,2.4-0.7,3.5c-1.2,0.9-2.6,1.7-4.2,2.3c-1.6,0.6-3.2,0.9-4.9,0.9
				C-75-192.9-77-193.7-78.9-195.2z M-97-259.7c-1.4,3-2.7,5.9-4,8.8c-1.3,2.8-2.4,6-3.3,9.3c2,0.2,3.9,0.4,5.7,0.5
				c1.9,0.1,3.7,0.2,5.4,0.2h1.8c-0.7-3.4-1.5-6.6-2.4-9.6C-94.8-253.7-95.8-256.7-97-259.7z"/>
		</g>
	</g>
</g>
<g>
	<g transform="translate(928.255858, 309.858842)">
		<g>
			<path d="M-70.5-212.2c0-4.2-1-7.4-3.1-9.8c-2-2.3-4.6-4.2-7.6-5.7c-3.1-1.5-6.4-2.8-9.9-3.9c-3.5-1.1-6.8-2.5-9.9-4.3
				s-5.6-4-7.6-6.9c-2-2.8-3-6.8-3-11.8v-1.9c0.1-1.9,0.5-3.8,1.2-5.8s1.6-4,2.7-5.9c1.1-1.9,2.4-3.6,3.8-5.1s2.8-2.7,4.4-3.5
				c0.8-0.5,2.2-0.9,4.1-1.4s4.1-0.9,6.4-1.2c2.4-0.3,4.8-0.6,7.4-0.9c2.6-0.2,4.9-0.4,7-0.4c4.1,0,7.7,0.5,11,1.6
				c3.3,1,5.1,2.8,5.3,5.4v1.2c0,2.4-0.8,4.1-2.4,4.9c-1.6,0.8-3.7,1.2-6.1,1.2c-1.3,0-2.8-0.1-4.4-0.2c-1.7-0.1-3.4-0.3-5.1-0.4
				c-1.7-0.2-3.4-0.3-5-0.4s-3-0.2-4-0.2c-1.5,0-2.5,0.1-3.1,0.4c-1.9,0.6-3.3,2-4.4,4.3c-1,2.3-1.6,4.7-1.6,7.4c0,3,1,5.4,3,7.2
				s4.4,3.4,7.3,4.8c2.9,1.4,6.1,2.8,9.6,4.2c3.5,1.4,6.7,3.3,9.6,5.6c2.9,2.3,5.3,5.3,7.3,9s3,8.4,3,14.4c0,2-0.2,3.8-0.7,5.5
				s-1.3,3.2-2.4,4.6c-1.1,1.3-2.7,2.4-4.9,3.4c-2.2,1-4.6,1.8-7.2,2.4c-2.6,0.6-5.3,1-8.1,1.3c-2.8,0.3-5.3,0.4-7.7,0.4
				c-0.7,0-2.6-0.3-5.8-0.8c-3.1-0.5-6.4-1.2-9.9-2.1c-3.5-0.9-6.6-1.9-9.4-3.1s-4.2-2.6-4.2-4.1c0-1.9,0.3-3.3,1-4.3
				s1.6-1.7,2.7-2.2s2.3-0.8,3.6-0.9c1.3-0.1,2.6-0.2,3.9-0.2h0.7c0.7,0,1.7,0.2,3.1,0.7s3,1,4.9,1.6c1.9,0.6,3.9,1.1,6,1.6
				s4.3,0.7,6.5,0.7c0.5,0,1.4-0.1,2.7-0.4c1.3-0.2,2.7-0.6,4.1-1.1s2.6-1.2,3.7-2C-71.1-210.3-70.5-211.2-70.5-212.2z"/>
		</g>
	</g>
</g>
<g>
	<g transform="translate(982.403621, 309.858842)">
		<g>
			<path d="M-40.5-195.2c-1.6-5.9-3-11.6-4.2-17.1s-2.7-11.1-4.7-16.8c-1.4,0.6-3,1-4.7,1.1c-1.7,0.2-3.6,0.3-5.6,0.3
				c-1.7,0-3.5,0-5.3-0.1c-1.8-0.1-3.6-0.1-5.3-0.1h-1.4c-2.3,4.9-4.3,10.1-5.9,15.7c-1.6,5.6-3.3,11.1-4.9,16.7
				c-0.5,0.9-1.6,1.7-3.4,2.3s-3.7,0.9-5.6,0.9c-2,0-3.7-0.4-5.2-1.1c-1.5-0.8-2.3-2.1-2.3-3.9c0-1.6,0.3-3.4,0.9-5.4
				s1.3-3.9,2.1-5.9c0.8-2,1.7-3.9,2.6-5.9s1.7-3.8,2.3-5.4l1.9-4.9c1.5-3.9,3-7.6,4.6-11c1.6-3.4,3.1-6.8,4.7-10.2
				c1.6-3.4,3.1-6.8,4.7-10.3s3.2-7.3,5-11.3c0.8-2,1.6-4,2.3-6.2c0.8-2.2,1.5-3.6,2.2-4.4c0.8-0.9,1.8-1.6,3-1.9
				c1.2-0.3,2.5-0.5,3.9-0.5c2.6,0,5,0.5,7.5,1.4c2,3,3.4,6.1,4.2,9.2c0.8,3.1,1.9,6.5,3.1,10.1c1.2,3.4,2.4,6.7,3.9,10.1
				c1.5,3.4,2.7,6.8,3.6,10.4c0.9,3.6,1.8,7,2.7,10.1c0.9,3.1,1.8,6.2,2.7,9.1c0.9,3,1.9,5.9,2.9,9c1,3,2.1,6.1,3.4,9.4
				c0.1,0.3,0.2,0.7,0.3,1c0.1,0.3,0.1,0.8,0.1,1.4c0,1.3-0.2,2.4-0.7,3.5c-1.2,0.9-2.6,1.7-4.2,2.3c-1.6,0.6-3.2,0.9-4.9,0.9
				C-36.5-192.9-38.6-193.7-40.5-195.2z M-58.6-259.7c-1.4,3-2.7,5.9-4,8.8c-1.3,2.8-2.4,6-3.3,9.3c2,0.2,3.9,0.4,5.7,0.5
				c1.9,0.1,3.7,0.2,5.4,0.2h1.8c-0.7-3.4-1.5-6.6-2.4-9.6C-56.4-253.7-57.4-256.7-58.6-259.7z"/>
		</g>
	</g>
</g>
<g>
	<g transform="translate(1043.466636, 309.858842)">
		<g>
			<path d="M-36.5-266.7c-0.1,3-0.2,6.1-0.3,9.3c-0.1,3.2-0.1,6.5-0.1,9.8c0,8.9,0.1,17.3,0.4,25.1c0.2,7.8,0.4,16.1,0.5,25
				c-0.8,1.3-2.3,2.4-4.4,3.2c-2.1,0.9-4.3,1.3-6.4,1.3c-1.5,0-2.9-0.3-4.1-0.9c-1.2-0.6-2.1-1.5-2.5-2.8c-0.3-0.8-0.5-1.8-0.5-2.8
				s0.1-2.1,0.3-3.2c0.2-1.1,0.3-2.3,0.3-3.6c-0.1-4.8-0.2-9.8-0.2-15c0-5.3,0-10.5-0.1-15.8c-0.1-5.2-0.1-10.3-0.3-15.2
				c-0.1-4.9-0.3-9.4-0.5-13.5c-0.6-0.1-1.2-0.2-1.8-0.2c-0.6,0-1.1,0-1.7,0c-1.3,0-2.6,0-4,0.1s-2.8,0.1-4.2,0.1
				c-1.4,0-2.8-0.1-4.4-0.2c-1.5-0.1-2.9-0.4-4.1-0.8c-1.2-0.4-2.2-1-3-1.8c-0.8-0.8-1.1-1.8-1.1-3c0-2.2,0.7-3.9,2.2-5.2
				c1.5-1.3,3.4-2.2,5.8-2.7s5-0.8,8-1c3-0.1,5.9-0.2,9-0.2c5.2,0,10.5,0.2,15.8,0.6s10.2,0.6,14.6,0.6h6.6c2.3,0,4.3,0.3,6.1,1
				c1.8,0.7,2.7,2.4,2.8,5v1.2c0,2.7-1.2,4.4-3.5,5.3s-5.1,1.3-8.4,1.3c-3,0-6.1-0.2-9.1-0.6C-31.8-266.3-34.4-266.6-36.5-266.7z"/>
		</g>
	</g>
</g>
<g>
	<g transform="translate(536.043141, 409.608837)">
		<g>
			<path d="M-223.2-164c-0.9,1.4-2.4,2.6-4.3,3.5c-1.9,0.9-3.9,1.4-5.8,1.4c-1.3,0-2.5-0.2-3.6-0.5s-2.1-1-3-1.9
				c-0.5-1.5-0.7-3.4-0.7-5.7s0.1-4.7,0.4-7.2c0.3-2.5,0.4-5.1,0.4-7.8c-0.1-9.7-0.6-19.8-1.3-30.3c-0.8-10.4-1.2-20.6-1.5-30.5
				c0.9-1.3,2.4-2.3,4.6-3.2c2.2-0.9,4.3-1.3,6.4-1.3c2.9,0,5,0.9,6.3,2.6c0.5,0.6,0.8,1.3,0.9,2.2c0.1,0.9,0.2,1.8,0.2,2.9
				c0,1.6-0.1,3.3-0.3,5.1c-0.2,1.7-0.3,3.5-0.3,5.2v2.3c0,8.6,0.3,17.1,0.9,25.6c0.6,8.5,0.9,17.2,0.9,26.3c0,2,0,3.9,0,5.7
				C-223-167.9-223.1-166-223.2-164z"/>
		</g>
	</g>
</g>
<g>
	<g transform="translate(563.704173, 409.608837)">
		<g>
			<path d="M-213.3-222.1c0,3-0.1,6.3-0.4,9.9c-0.2,3.6-0.3,7.3-0.3,11v2.3c0,3.5,0.4,6.9,1.2,10.2c0.8,3.3,1.3,6.3,1.6,9
				c0,1.2,0,2.4,0.1,3.6s0.1,2.5,0.1,3.7c0,1.6-0.1,3.1-0.2,4.4c-0.1,1.3-0.3,2.5-0.7,3.4c-0.6,1.4-1.9,2.6-3.8,3.6
				c-2,1-4.1,1.5-6.3,1.5c-1.7,0-3.3-0.4-4.8-1.1c-1.4-0.8-2.5-2-3-3.8c0-2.2,0-4.1,0-5.8c0-1.7,0-3.3-0.1-4.7s-0.2-2.9-0.4-4.4
				s-0.4-3.3-0.6-5.2c-0.2-2-0.4-4.1-0.5-6.4s-0.2-4.6-0.2-7c0-4.2,0.1-8.4,0.3-12.7s0.3-8.3,0.3-12c0-3.8-0.2-7.1-0.5-9.9
				c-0.2-1.3-0.6-2.4-1-3.4c-0.5-1-0.7-2-0.7-3c0-0.7,0.3-1.6,0.9-2.8c0.5-0.7,1.3-1.4,2.5-2c1.2-0.6,2.6-1.2,4.3-1.6
				c1.6-0.5,3.3-0.9,5.1-1.1c1.8-0.3,3.6-0.4,5.3-0.4c1.6,0,3.1,0.1,4.5,0.4c1.4,0.3,2.5,0.7,3.3,1.3c1.4,1,2.8,2.6,4.1,4.6
				s2.7,4,4.1,6c1.9,2.6,3.7,5.3,5.5,8.3s3.6,5.9,5.4,8.9c1.8,3,3.6,5.9,5.4,8.7c1.8,2.8,3.6,5.4,5.3,7.7c0.1-0.6,0.2-1.2,0.2-1.9
				s0-1.5,0-2.4c0-2-0.1-4.1-0.3-6.4s-0.3-4.7-0.5-7c-0.2-2.4-0.4-4.7-0.6-6.9c-0.2-2.2-0.3-4.2-0.3-5.9c0-0.9,0-1.9-0.1-3.1
				s-0.1-2.3-0.1-3.5c0-0.8,0-1.5,0-2.2c0-0.6,0.1-1.3,0.4-1.8c0.6-1.6,1.6-2.8,3-3.6c1.5-0.8,3.1-1.2,5-1.2c2,0,3.9,0.5,5.6,1.4
				c1.8,0.9,3.1,2.3,3.8,4.2c-0.3,2.8-0.5,5.8-0.5,9.1c0,5.3,0.2,11,0.7,17s0.7,11.5,0.7,16.6c0,3.4,0,6.4,0.1,9.1s0.2,5.2,0.3,7.5
				c0.2,2.3,0.4,4.6,0.8,6.9c0.3,2.3,0.9,4.6,1.6,7c0,0.2,0,0.4,0.1,0.4c0.1,0.1,0.1,0.2,0.1,0.4c0,0.6-0.1,1.2-0.2,1.8
				s-0.2,1.4-0.3,2.4c-1.5,1.2-3.1,2.1-4.9,2.9c-1.7,0.8-3.5,1.1-5.4,1.1c-1.6,0-3-0.3-4.2-0.9c-2.2-1-4-2.8-5.4-5.3s-2.7-5-4-7.6
				c-4.5-8.9-9.5-17.8-15-26.7c-5.4-8.9-10.8-16.7-16.2-23.6v1H-213.3z"/>
		</g>
	</g>
</g>
<g>
	<g transform="translate(633.378673, 409.608837)">
		<g>
			<path d="M-173.2-233.4c-0.1,3-0.2,6.1-0.3,9.3c-0.1,3.2-0.1,6.5-0.1,9.8c0,8.9,0.1,17.3,0.4,25.1c0.2,7.8,0.4,16.1,0.5,25
				c-0.8,1.3-2.3,2.4-4.4,3.2c-2.1,0.9-4.3,1.3-6.4,1.3c-1.5,0-2.9-0.3-4.1-0.9c-1.2-0.6-2.1-1.5-2.5-2.8c-0.3-0.8-0.5-1.8-0.5-2.8
				s0.1-2.1,0.3-3.2c0.2-1.1,0.3-2.3,0.3-3.6c-0.1-4.8-0.2-9.8-0.2-15c0-5.3,0-10.5-0.1-15.8c-0.1-5.2-0.1-10.3-0.3-15.2
				c-0.1-4.9-0.3-9.4-0.5-13.5c-0.6-0.1-1.2-0.2-1.8-0.2s-1.1,0-1.7,0c-1.3,0-2.6,0-4,0.1c-1.4,0.1-2.8,0.1-4.2,0.1
				s-2.8-0.1-4.4-0.2c-1.5-0.1-2.9-0.4-4.1-0.8c-1.2-0.4-2.2-1-3-1.8s-1.1-1.8-1.1-3c0-2.2,0.7-3.9,2.2-5.2c1.5-1.3,3.4-2.2,5.8-2.7
				c2.4-0.5,5-0.8,8-1c3-0.1,5.9-0.2,9-0.2c5.2,0,10.5,0.2,15.8,0.6c5.3,0.4,10.2,0.6,14.6,0.6h6.6c2.3,0,4.3,0.3,6.1,1
				c1.8,0.7,2.7,2.4,2.8,5v1.2c0,2.7-1.2,4.4-3.5,5.3c-2.3,0.9-5.1,1.3-8.4,1.3c-3,0-6.1-0.2-9.1-0.6
				C-168.5-233-171.1-233.3-173.2-233.4z"/>
		</g>
	</g>
</g>
<g>
	<g transform="translate(691.701709, 409.608837)">
		<g>
			<path d="M-172.7-233.4c-0.3,3.9-0.5,7.4-0.4,10.4s-0.1,6.5-0.6,10.7c2.1,0.3,4.2,0.5,6.3,0.5c2.1,0,4.2-0.1,6.3-0.3
				c2.1-0.2,4.2-0.3,6.4-0.3c3.5,0,6.8,0.4,9.9,1.2c0.9,1.9,1.4,3.6,1.4,5.2c0,2.3-1.1,4-3.2,5.1c-2.1,1.1-4.8,1.8-7.8,2.2
				c-3.1,0.3-6.3,0.5-9.8,0.4c-3.5-0.1-6.5,0-9,0.1c0,4.1,0.1,8.2,0.2,12.4s0.3,8.2,0.5,12c1.5,0.3,3,0.6,4.4,0.7
				c1.5,0.1,2.9,0.2,4.3,0.2c3.6,0,7.1-0.2,10.6-0.7s7.3-0.7,11.3-0.7c0.9,0,1.8,0,2.6,0c0.8,0,1.7,0.1,2.6,0.2
				c1.3,0.8,2.2,1.7,2.7,2.8c0.5,1,0.8,2.1,0.8,3.1c0,2.1-0.9,4-2.7,5.8c-1.8,1.8-4.1,2.8-6.9,3h-0.7c-0.9,0-1.9-0.1-3-0.3
				c-1-0.2-2.1-0.3-3.1-0.3h-27.7c-1.2,0.2-2.1,0.3-3,0.3c-2.2,0-4.3-0.5-6.4-1.6c-2-1-3-2.9-3-5.7c-0.1-7.3-0.2-13.4-0.3-18.3
				c-0.1-4.9-0.1-8.9-0.2-12.2c-0.1-3.3-0.1-5.9-0.2-8c-0.1-2.1-0.1-4.1-0.1-5.9c0-2.3,0.1-4.9,0.2-7.7c0.1-2.8,0.2-5.8,0.2-8.8
				c0-1.9-0.1-3.7-0.3-5.6c-0.2-1.9-0.3-3.7-0.3-5.3c0-2.1,0.2-3.7,0.7-4.7c0.3-0.8,1-1.4,2-1.9s2.1-0.8,3.5-1
				c1.3-0.2,2.8-0.3,4.3-0.4c1.5-0.1,3-0.1,4.4-0.1h1.2c2.7,0,5,0.1,7.1,0.2s4.1,0.2,6.1,0.2s3.9-0.1,5.9-0.3c2-0.2,3.8-0.3,5.4-0.4
				h1.2c0.8,0,1.6,0,2.5-0.1c0.9-0.1,1.8-0.1,2.7-0.1c3,0,5.7,0.4,8,1.1c2.3,0.8,3.5,2.5,3.5,5.1v1.2c-0.2,1.5-0.9,2.7-2,3.6
				s-2.5,1.5-4.1,2s-3.5,0.8-5.6,1s-4.2,0.3-6.3,0.3c-2.2,0-4.3,0-6.4-0.1c-2.1-0.1-3.9-0.1-5.6-0.1c-1.4,0-2.8-0.1-4.1-0.3
				c-1.3-0.2-2.7-0.3-4.1-0.3C-171.3-233.6-172.1-233.5-172.7-233.4z"/>
		</g>
	</g>
</g>
<g>
	<g transform="translate(748.589486, 409.608837)">
		<g>
			<path d="M-152.5-189.2c-0.6,1.5-0.9,3.3-0.9,5.4c0,1.6,0.1,3.3,0.4,5.1c0.2,1.7,0.4,3.4,0.4,4.9c0,2.2-0.1,4.4-0.3,6.5
				c-0.2,2.1-0.7,3.7-1.5,4.9c-0.7,0.9-1.7,1.7-3,2.2s-2.8,0.8-4.4,0.8s-3.2-0.3-4.8-1c-1.6-0.6-2.8-1.6-3.7-2.9
				c-0.1-9-0.2-16.6-0.3-22.8c-0.1-6.2-0.1-11.3-0.2-15.4c-0.1-4.1-0.1-7.4-0.3-9.8c-0.1-2.4-0.2-4.3-0.3-5.8
				c-0.1-1.5-0.1-2.7-0.2-3.6c-0.1-0.9-0.1-2-0.1-3.3c0-1.9,0.1-3.7,0.2-5.5s0.3-3.5,0.7-5.1c0.5-2.3,1.9-4,4.4-5.1
				c2.5-1.1,5.3-2.1,8.3-3l1.4-0.4c3.1-0.9,6.9-1.9,11.2-2.8c4.4-0.9,8.7-1.4,13-1.4c2.3,0,4.5,0.2,6.5,0.5c2,0.3,4,1,5.8,1.9
				c1.2,0.6,2.4,1.4,3.8,2.5c1.3,1.1,2.7,2.3,4,3.6c1.3,1.3,2.5,2.6,3.6,4.1c1.1,1.4,2.1,2.7,2.9,3.9c0.9,1.3,1.5,2.7,1.6,4.3
				c0.2,1.6,0.3,3.1,0.3,4.8v4c-0.2,4.4-1,8-2.2,10.8s-2.8,5.1-4.7,6.9c-1.9,1.8-4.2,3.2-6.9,4.4c-2.7,1.1-5.6,2.2-8.9,3.4
				c2.6,2.9,4.8,5.2,6.8,7c2,1.7,3.9,3.4,5.6,5c1.8,1.6,3.6,3.3,5.4,5.1c1.8,1.9,3.8,4.4,6,7.5c-0.4,1.2-0.8,2.2-1.2,3.1
				c-0.5,0.9-0.9,1.8-1.4,2.8c-1.3,0.7-2.6,1.3-4,1.8s-2.9,0.7-4.5,0.7c-1.5,0-3.3-0.3-5.4-0.9c-5-5.3-9.1-9.7-12.3-13.1
				c-3.2-3.4-5.8-6.1-7.8-8.1s-3.6-3.4-4.7-4.3c-1.1-0.9-2.1-1.5-2.9-1.8s-1.6-0.5-2.4-0.6C-150.2-188.7-151.3-188.9-152.5-189.2z
				 M-129.2-204.2c2.7-0.7,5.2-2,7.5-3.9c2.3-1.9,3.5-4.5,3.5-7.7c0-0.2,0-0.5-0.1-0.8s-0.1-0.6-0.1-0.8c-0.2-0.9-0.8-2.2-1.8-3.9
				c-0.9-1.7-2-3.4-3.2-5.1s-2.5-3.2-3.9-4.6c-1.4-1.4-2.6-2.3-3.6-2.6c-2-0.8-4-1.2-6.1-1.2c-3.1,0-6.1,0.6-9,1.8
				c-2.8,1.2-5.4,2.3-7.7,3.2c-0.2,2.1-0.4,4.1-0.4,6.1s0,3.9,0,5.9c0,2.7,0,5.3,0.1,7.8s0.1,5.1,0.3,7.6c1.4-0.5,2.9-0.7,4.5-0.9
				c1.6-0.1,3.3-0.2,4.9-0.2h5.7c1.6,0,3.2-0.1,4.8-0.2C-132.3-203.6-130.7-203.9-129.2-204.2z"/>
		</g>
	</g>
</g>
<g>
	<g transform="translate(809.391576, 409.608837)">
		<g>
			<path d="M-131.4-222.1c0,3-0.1,6.3-0.4,9.9c-0.2,3.6-0.3,7.3-0.3,11v2.3c0,3.5,0.4,6.9,1.2,10.2c0.8,3.3,1.3,6.3,1.6,9
				c0,1.2,0,2.4,0.1,3.6s0.1,2.5,0.1,3.7c0,1.6-0.1,3.1-0.2,4.4s-0.3,2.5-0.7,3.4c-0.6,1.4-1.9,2.6-3.8,3.6c-2,1-4.1,1.5-6.3,1.5
				c-1.7,0-3.3-0.4-4.8-1.1c-1.4-0.8-2.5-2-3-3.8c0-2.2,0-4.1,0-5.8c0-1.7,0-3.3-0.1-4.7s-0.2-2.9-0.4-4.4c-0.2-1.5-0.4-3.3-0.6-5.2
				c-0.2-2-0.4-4.1-0.5-6.4s-0.2-4.6-0.2-7c0-4.2,0.1-8.4,0.3-12.7c0.2-4.3,0.3-8.3,0.3-12c0-3.8-0.2-7.1-0.5-9.9
				c-0.2-1.3-0.6-2.4-1-3.4c-0.5-1-0.7-2-0.7-3c0-0.7,0.3-1.6,0.9-2.8c0.5-0.7,1.3-1.4,2.5-2c1.2-0.6,2.6-1.2,4.3-1.6
				c1.6-0.5,3.3-0.9,5.1-1.1c1.8-0.3,3.6-0.4,5.3-0.4c1.6,0,3.1,0.1,4.5,0.4c1.4,0.3,2.5,0.7,3.3,1.3c1.4,1,2.8,2.6,4.1,4.6
				c1.3,2,2.7,4,4.1,6c1.9,2.6,3.7,5.3,5.5,8.3s3.6,5.9,5.4,8.9s3.6,5.9,5.4,8.7c1.8,2.8,3.6,5.4,5.3,7.7c0.1-0.6,0.2-1.2,0.2-1.9
				s0-1.5,0-2.4c0-2-0.1-4.1-0.3-6.4c-0.2-2.3-0.3-4.7-0.5-7c-0.2-2.4-0.4-4.7-0.6-6.9c-0.2-2.2-0.3-4.2-0.3-5.9
				c0-0.9,0-1.9-0.1-3.1s-0.1-2.3-0.1-3.5c0-0.8,0-1.5,0-2.2c0-0.6,0.1-1.3,0.4-1.8c0.6-1.6,1.6-2.8,3-3.6c1.5-0.8,3.1-1.2,5-1.2
				c2,0,3.9,0.5,5.6,1.4c1.8,0.9,3.1,2.3,3.8,4.2c-0.3,2.8-0.5,5.8-0.5,9.1c0,5.3,0.2,11,0.7,17s0.7,11.5,0.7,16.6
				c0,3.4,0,6.4,0.1,9.1s0.2,5.2,0.3,7.5c0.2,2.3,0.4,4.6,0.8,6.9c0.3,2.3,0.9,4.6,1.6,7c0,0.2,0,0.4,0.1,0.4
				c0.1,0.1,0.1,0.2,0.1,0.4c0,0.6-0.1,1.2-0.2,1.8s-0.2,1.4-0.3,2.4c-1.5,1.2-3.1,2.1-4.9,2.9c-1.7,0.8-3.5,1.1-5.4,1.1
				c-1.6,0-3-0.3-4.2-0.9c-2.2-1-4-2.8-5.4-5.3s-2.7-5-4-7.6c-4.5-8.9-9.5-17.8-15-26.7c-5.4-8.9-10.8-16.7-16.2-23.6v1H-131.4z"/>
		</g>
	</g>
</g>
<g>
	<g transform="translate(879.066087, 409.608837)">
		<g>
			<path d="M-86.9-179c0-4.2-1-7.4-3.1-9.8c-2-2.3-4.6-4.2-7.6-5.7c-3.1-1.5-6.4-2.8-9.9-3.9c-3.5-1.1-6.8-2.5-9.9-4.3
				s-5.6-4-7.6-6.9c-2-2.8-3-6.8-3-11.8v-1.8c0.1-1.9,0.5-3.8,1.2-5.8s1.6-4,2.7-5.9c1.1-1.9,2.4-3.6,3.8-5.1s2.8-2.7,4.4-3.5
				c0.8-0.5,2.2-0.9,4.1-1.4s4.1-0.9,6.4-1.2c2.4-0.3,4.8-0.6,7.4-0.9c2.6-0.2,4.9-0.4,7-0.4c4.1,0,7.7,0.5,11,1.6
				c3.3,1,5.1,2.8,5.3,5.4v1.2c0,2.4-0.8,4.1-2.4,4.9s-3.7,1.2-6.1,1.2c-1.3,0-2.8-0.1-4.4-0.2c-1.7-0.1-3.4-0.3-5.1-0.4
				c-1.7-0.2-3.4-0.3-5-0.4s-3-0.2-4-0.2c-1.5,0-2.5,0.1-3.1,0.4c-1.9,0.6-3.3,2-4.4,4.3c-1,2.3-1.6,4.7-1.6,7.4c0,3,1,5.4,3,7.2
				c2,1.8,4.4,3.4,7.3,4.8c2.9,1.4,6.1,2.8,9.6,4.2c3.5,1.4,6.7,3.3,9.6,5.6s5.3,5.3,7.3,9s3,8.4,3,14.4c0,2-0.2,3.8-0.7,5.5
				s-1.3,3.2-2.4,4.6c-1.1,1.3-2.7,2.4-4.9,3.4c-2.2,1-4.6,1.8-7.2,2.4c-2.6,0.6-5.3,1-8.1,1.3c-2.8,0.3-5.3,0.4-7.7,0.4
				c-0.7,0-2.6-0.3-5.8-0.8c-3.1-0.5-6.4-1.2-9.9-2.1c-3.5-0.9-6.6-1.9-9.4-3.1c-2.8-1.2-4.2-2.6-4.2-4.1c0-1.9,0.3-3.3,1-4.3
				s1.6-1.7,2.7-2.2s2.3-0.8,3.6-0.9c1.3-0.1,2.6-0.2,3.9-0.2h0.7c0.7,0,1.7,0.2,3.1,0.7s3,1,4.9,1.6c1.9,0.6,3.9,1.1,6,1.6
				s4.3,0.7,6.5,0.7c0.5,0,1.4-0.1,2.7-0.4c1.3-0.2,2.7-0.6,4.1-1.1s2.6-1.2,3.7-2C-87.5-177-86.9-177.9-86.9-179z"/>
		</g>
	</g>
</g>
<g>
	<g transform="translate(933.213897, 409.608837)">
		<g>
			<path d="M-50.8-199.2c-3.1-0.8-6.4-1.2-9.9-1.2c-5.1,0-10,0.6-14.7,1.9s-9.1,2.4-13.3,3.3c-0.1,0.6-0.2,1.2-0.2,1.8
				c0,0.6,0,1.3,0,1.8c0,3.3,0.2,6.5,0.7,9.7s0.7,6.3,0.7,9.3c0,2.2-0.3,4.3-0.8,6.4c-0.5,2-1.4,3.9-2.7,5.5
				c-0.9,0.2-2.1,0.5-3.4,0.9c-1.3,0.3-2.7,0.5-4.1,0.5c-2.2,0-3.8-0.5-4.9-1.6c-0.8-0.7-1.3-1.7-1.6-3c-0.2-1.3-0.4-2.7-0.4-4.4
				s0.1-3.6,0.3-5.6c0.2-2,0.3-4,0.3-5.8v-1.4c-0.2-4.1-0.3-8.3-0.3-12.8s-0.1-9-0.3-13.6c-0.2-4.6-0.5-9.1-0.9-13.6
				s-1-8.7-1.8-12.8c-0.2-1.3-0.6-2.5-1.2-3.7s-0.9-2.4-0.9-3.4c0.3-2,1.5-3.6,3.6-4.8c2-1.2,4.2-1.8,6.5-1.8c1.4,0,2.8,0.3,4.4,0.9
				c1.3,0.6,2.3,1.6,3.1,3c0.8,1.4,1.4,3.1,1.8,5c0.4,2,0.7,4.2,0.9,6.6c0.2,2.4,0.3,4.9,0.3,7.3c0,1,0,1.8,0,2.3s0,0.9-0.1,1.3
				c-0.1,0.4-0.1,0.8-0.1,1.3s0,1.1,0,1.9c0,1.8,0.1,3.4,0.2,4.9s0.3,2.7,0.5,3.6c5.9-0.8,11.6-1.8,17-2.9
				c5.4-1.1,11.3-1.7,17.8-1.7c0.7,0,1.4,0,2,0.1c0.6,0.1,1.3,0.1,2,0.1c0-1.9,0-3.7,0.1-5.5s0.1-3.6,0.1-5.5c0-1.2,0-2.1,0-2.9
				s-0.1-1.4-0.2-2c-0.1-0.6-0.2-1.3-0.4-2c-0.1-0.7-0.3-1.8-0.5-3c-0.1-0.9-0.3-1.9-0.5-2.8c-0.2-0.9-0.3-1.9-0.3-2.8
				c0-0.9,0.1-1.5,0.3-1.9c0.6-1.3,1.9-2.3,4-3.1s4.3-1.2,6.5-1.2c2.1,0,3.7,0.4,4.9,1.2c1.4,1.2,2.3,3.4,2.6,6.8
				c0.3,3.4,0.5,7.1,0.5,11.1c0,3.6-0.2,7.5-0.5,11.7s-0.5,8.5-0.5,12.9v1.9c0.1,3.1,0.4,6,0.8,8.5c0.4,2.6,0.7,5,1,7.3
				c0.7,5.7,1.2,11.4,1.6,17c0,2.4-1.2,4.4-3.6,5.8c-2.4,1.4-4.8,2.2-7.2,2.2c-0.9,0-1.8-0.1-2.5-0.3c-0.8-0.2-1.4-0.6-2-1.1
				c-0.8-0.6-1.4-1.6-1.6-3.2c-0.3-1.6-0.5-3.3-0.6-5.1c-0.1-1.9-0.2-3.8-0.2-5.7c0-1.9-0.1-3.5-0.2-4.8c-0.2-3.7-0.6-7-1-9.8
				C-50.3-192.9-50.6-195.9-50.8-199.2z"/>
		</g>
	</g>
</g>
<g>
	<g transform="translate(1005.628398, 409.608837)">
		<g>
			<path d="M-66.7-164c-0.9,1.4-2.4,2.6-4.3,3.5s-3.9,1.4-5.8,1.4c-1.3,0-2.5-0.2-3.6-0.5s-2.1-1-3-1.9c-0.5-1.5-0.7-3.4-0.7-5.7
				s0.1-4.7,0.4-7.2s0.4-5.1,0.4-7.8c-0.1-9.7-0.6-19.8-1.3-30.3c-0.8-10.4-1.2-20.6-1.5-30.5c0.9-1.3,2.4-2.3,4.6-3.2
				c2.2-0.9,4.3-1.3,6.4-1.3c2.9,0,5,0.9,6.3,2.6c0.5,0.6,0.8,1.3,0.9,2.2c0.1,0.9,0.2,1.8,0.2,2.9c0,1.6-0.1,3.3-0.3,5.1
				c-0.2,1.7-0.3,3.5-0.3,5.2v2.3c0,8.6,0.3,17.1,0.9,25.6s0.9,17.2,0.9,26.3c0,2,0,3.9,0,5.7C-66.5-167.9-66.6-166-66.7-164z"/>
		</g>
	</g>
</g>
<g>
	<g transform="translate(1033.289453, 409.608837)">
		<g>
			<path d="M-58.2-192c-0.1,0.7-0.2,1.4-0.2,2.1s0,1.4,0,2.3c0,1.3,0,2.3,0.1,3s0.1,1.4,0.1,2c0,0.6,0,1.3,0.1,2s0.1,1.7,0.1,3.1
				c0,0.8,0,1.6,0,2.4s-0.1,1.5-0.2,2.2c-0.1,1.5-0.2,3.1-0.2,4.6c0,1.6-0.2,2.8-0.7,3.7c-1.7,3.4-4.9,5-9.6,5c-1.6,0-3.3-0.3-5-0.9
				c-0.8-1.2-1.4-2.3-1.7-3.6c-0.3-1.2-0.4-2.5-0.4-3.9c0-1.3,0.1-2.6,0.3-4c0.2-1.4,0.3-2.7,0.4-4c0.3-3.1,0.5-5.7,0.5-7.6
				c0-1.8-0.1-3.5-0.2-5.3s-0.2-4.1-0.2-6.9c0-6.5-0.1-12.9-0.4-19.1c-0.3-6.3-0.7-12.1-1.3-17.4c-0.1-0.3-0.2-0.9-0.2-1.7
				c0-0.9,0.1-1.8,0.2-2.5c0.1-0.8,0.2-1.6,0.2-2.5c0-0.6,0.1-1,0.2-1.2c1.3-4.6,4.3-7,9-7h3.6c3.7,0,7.7-0.1,11.8-0.3
				c4.2-0.2,8.1-0.3,11.8-0.3c0.8,0,1.6,0,2.3,0c0.7,0,1.4,0.1,2.1,0.4c6.3,1.4,10.9,4.3,13.8,8.6c3,4.3,4.5,9.5,4.6,15.4v0.9
				c0,5.9-1.3,10.7-3.9,14.4c-2.6,3.7-5.9,6.7-9.9,8.9s-8.4,3.8-13.2,4.8C-49-193.5-53.6-192.7-58.2-192z M-33.8-218.6
				c0.2-1.2,0.4-2,0.4-2.6c0-1.6-0.2-3.3-0.7-4.9c-0.5-1.6-1-2.9-1.6-3.8c-1-1.6-2.4-2.8-4.1-3.4c-1.7-0.6-3.6-1-5.6-1
				c-2.2,0-4.5,0.3-6.8,0.9c-2.3,0.6-4.5,1.2-6.4,1.8c-0.3,5.2-0.5,10.4-0.5,15.5c0,2,0,3.9,0.1,5.8c0.1,1.9,0.1,3.7,0.1,5.5
				c2.8-0.2,5.5-0.6,8.3-1c2.7-0.5,5.2-1.2,7.6-2.3c2.3-1,4.3-2.4,5.9-4C-35.5-213.7-34.5-216-33.8-218.6z"/>
		</g>
	</g>
</g>
</svg>
