<?xml version="1.0" encoding="utf-8"?>
<!-- Generator: Adobe Illustrator 23.0.3, SVG Export Plug-In . SVG Version: 6.00 Build 0)  -->
<svg version="1.1" id="Layer_1" xmlns="http://www.w3.org/2000/svg" xmlns:xlink="http://www.w3.org/1999/xlink" x="0px" y="0px"
	 viewBox="0 0 1920 854.2" style="enable-background:new 0 0 1920 854.2;" xml:space="preserve">
<style type="text/css">
	.st0{clip-path:url(#SVGID_2_);}
</style>
<path d="M498,423.8c-1.4-1.2-3.8-0.9-5.2,0.6l-12.2,15.1l-3.8-3.5c-1.4-1.4-3.8-1.4-5.2,0c-1.4,1.4-1.4,3.8,0,5.2l7,6.4
	c1.7,1.4,4.3,0.9,5.2-0.3l14.5-18.3C499.7,427.3,500.3,425.6,498,423.8z"/>
<g>
	<defs>
		<rect id="SVGID_1_" x="443.2" y="309.7" width="187.4" height="252"/>
	</defs>
	<clipPath id="SVGID_2_">
		<use xlink:href="#SVGID_1_"  style="overflow:visible;"/>
	</clipPath>
	<g class="st0">
		<path d="M626,458.6c-2,0-3.5,1.7-3.5,3.5v92.4H450.8V317h119.6V365c0,2,1.4,3.8,3.5,3.8H622v4.6c0,2,1.7,3.5,3.5,3.5
			c1.7,0,3.5-1.7,3.5-3.5V365c0-0.9-0.3-1.7-1.2-2.6l-51-51.6c-0.6-0.9-1.7-1.2-2.6-1.2H447.3c-2,0-3.5,1.7-3.5,3.5v245.1
			c0,2,1.7,3.5,3.5,3.5H626c2,0,3.5-1.7,3.5-3.5v-96.2C629.5,460,628,458.6,626,458.6z"/>
	</g>
</g>
<path d="M604,384.7c0-2-1.7-3.5-3.5-3.5h-86.3c-2,0-3.5,1.7-3.5,3.5c0,1.7,1.7,3.5,3.5,3.5h86.3C602.6,388.5,604,386.8,604,384.7z"
	/>
<path d="M514.2,399.8c-2,0-3.5,1.7-3.5,3.5c0,1.7,1.7,3.5,3.5,3.5h62c2,0,3.5-1.7,3.5-3.5c0-1.7-1.4-3.5-3.5-3.5H514.2z"/>
<path d="M498,376c-1.4-1.2-3.8-0.9-5.2,0.6l-12.2,15.1l-3.8-3.5c-1.4-1.4-3.8-1.4-5.2,0c-1.4,1.4-1.4,3.8,0,5.2l7,6.4
	c1.7,1.4,4.3,0.9,5.2-0.3l14.5-18.2C499.7,379.5,500,377.8,498,376z"/>
<path d="M498,469.9c-1.4-1.2-3.8-0.9-5.2,0.6l-12.2,15.1l-3.8-3.5c-1.4-1.4-3.8-1.4-5.2,0c-1.4,1.4-1.4,3.8,0,5.2l7,6.4
	c1.7,1.4,4.3,0.9,5.2-0.3l14.5-18.2C499.7,473.7,500,471.6,498,469.9z"/>
<path d="M692.6,375.5l-10.4-8.1l6.9-9c1.4-1.7,2.9-4.6-0.3-7.2l-15.1-11.9c-2.3-2-6.1-2-8.1,0.6l-7,9c-0.6-0.3-1.4-0.6-2-0.3
	c-0.9,0-1.7,0.6-2.3,1.4l-12.2,15.6c-0.9,1.4-0.9,3.2,0,4.3l-45.8,58.2h-82.3c-2,0-3.5,1.7-3.5,3.5c0,1.7,1.7,3.5,3.5,3.5h76.5
	l-8.7,11.3h-67.8c-2,0-3.5,1.7-3.5,3.5c0,1.7,1.7,3.5,3.5,3.5h62.3L560,475.1h-45.8c-2,0-3.5,1.7-3.5,3.5s1.7,3.5,3.5,3.5h40
	l-7.2,9.3c0,0-0.3,0.9-0.6,2h-32.2c-2,0-3.5,1.7-3.5,3.5c0,1.7,1.7,3.5,3.5,3.5H544c-2.9,9.3-6.7,22.3-6.7,22.3
	c-0.6,1.4,0,3.2,1.2,4.1c1.2,0.9,2.9,0.9,4.1,0.3c0,0,27.5-16.5,28.1-17.1l94.7-121.9c0.6,0.3,1.2,0.6,2,0.6c1.2,0,2.3-0.6,2.9-1.4
	l9.8-12.7l5.2,4.1l-29.5,38.5c-1.2,1.7-0.9,3.8,0.6,5.2c1.4,1.4,3.8,0.9,5.2-0.6l31.9-40.8C694.7,378.9,694.1,376.6,692.6,375.5z
	 M546.9,516.2l5.2-17.4c2,1.2,3.8,2.3,5.5,3.5c1.7,1.4,3.5,2.9,4.9,4.3L546.9,516.2z M666.9,380.4l-17.1-13.3l7.2-9.3l17.1,13.3
	L666.9,380.4z"/>
<g>
	<g transform="translate(521.42986, 309.858842)">
		<g>
			<path d="M219.4,29.5c-0.1,3-0.2,6.1-0.3,9.3c-0.1,3.2-0.1,6.5-0.1,9.8c0,8.9,0.1,17.3,0.4,25.1c0.2,7.8,0.4,16.1,0.5,25
				c-0.8,1.3-2.3,2.4-4.4,3.2c-2.1,0.9-4.3,1.3-6.4,1.3c-1.5,0-2.9-0.3-4.1-0.9c-1.2-0.6-2.1-1.5-2.5-2.8c-0.3-0.8-0.5-1.8-0.5-2.8
				c0-1,0.1-2.1,0.3-3.2c0.2-1.1,0.3-2.3,0.3-3.6c-0.1-4.8-0.2-9.8-0.2-15c0-5.3,0-10.5-0.1-15.8c-0.1-5.2-0.1-10.3-0.3-15.2
				c-0.1-4.9-0.3-9.4-0.5-13.5c-0.6-0.1-1.2-0.2-1.8-0.2c-0.6,0-1.1,0-1.7,0c-1.3,0-2.6,0-4,0.1c-1.4,0.1-2.8,0.1-4.2,0.1
				c-1.4,0-2.8-0.1-4.4-0.2c-1.5-0.1-2.9-0.4-4.1-0.8c-1.2-0.4-2.2-1-3-1.8c-0.8-0.8-1.1-1.8-1.1-3c0-2.2,0.7-3.9,2.2-5.2
				c1.5-1.3,3.4-2.2,5.8-2.7c2.4-0.5,5-0.8,8-1c3-0.1,5.9-0.2,9-0.2c5.2,0,10.5,0.2,15.8,0.6c5.3,0.4,10.2,0.6,14.6,0.6h6.6
				c2.3,0,4.3,0.3,6.1,1c1.8,0.7,2.7,2.4,2.8,5v1.2c0,2.7-1.2,4.4-3.5,5.3c-2.3,0.9-5.1,1.3-8.4,1.3c-3,0-6.1-0.2-9.1-0.6
				C224,29.9,221.5,29.6,219.4,29.5z"/>
		</g>
	</g>
</g>
<g>
	<g transform="translate(579.752897, 309.858842)">
		<g>
			<path d="M261.3,63.8c-3.1-0.8-6.4-1.2-9.9-1.2c-5.1,0-10,0.6-14.7,1.9c-4.7,1.3-9.1,2.4-13.3,3.3c-0.1,0.6-0.2,1.2-0.2,1.8
				c0,0.6,0,1.3,0,1.8c0,3.3,0.2,6.5,0.7,9.7c0.5,3.2,0.7,6.3,0.7,9.3c0,2.2-0.3,4.3-0.8,6.4c-0.5,2-1.4,3.9-2.7,5.5
				c-0.9,0.2-2.1,0.5-3.4,0.9c-1.3,0.3-2.7,0.5-4.1,0.5c-2.2,0-3.8-0.5-4.9-1.6c-0.8-0.7-1.3-1.7-1.6-3c-0.2-1.3-0.4-2.7-0.4-4.4
				c0-1.7,0.1-3.6,0.3-5.6c0.2-2,0.3-4,0.3-5.8v-1.4c-0.2-4.1-0.3-8.3-0.3-12.8c0-4.5-0.1-9-0.3-13.6c-0.2-4.6-0.5-9.1-0.9-13.6
				c-0.4-4.5-1-8.7-1.8-12.8c-0.2-1.3-0.6-2.5-1.2-3.7c-0.6-1.2-0.9-2.4-0.9-3.4c0.3-2,1.5-3.6,3.6-4.8c2-1.2,4.2-1.8,6.5-1.8
				c1.4,0,2.8,0.3,4.4,0.9c1.3,0.6,2.3,1.6,3.1,3c0.8,1.4,1.4,3.1,1.8,5c0.4,2,0.7,4.2,0.9,6.6c0.2,2.4,0.3,4.9,0.3,7.3
				c0,1,0,1.8,0,2.3c0,0.5,0,0.9-0.1,1.3c-0.1,0.4-0.1,0.8-0.1,1.3c0,0.5,0,1.1,0,1.9c0,1.8,0.1,3.4,0.2,4.9
				c0.1,1.5,0.3,2.7,0.5,3.6c5.9-0.8,11.6-1.8,17-2.9c5.4-1.1,11.3-1.7,17.8-1.7c0.7,0,1.4,0,2,0.1c0.6,0.1,1.3,0.1,2,0.1
				c0-1.9,0-3.7,0.1-5.5c0.1-1.8,0.1-3.6,0.1-5.5c0-1.2,0-2.1,0-2.9s-0.1-1.4-0.2-2c-0.1-0.6-0.2-1.3-0.4-2c-0.1-0.8-0.3-1.8-0.5-3
				c-0.1-0.9-0.3-1.9-0.5-2.8c-0.2-0.9-0.3-1.9-0.3-2.8c0-0.9,0.1-1.5,0.3-1.9c0.6-1.3,1.9-2.3,4-3.1c2.1-0.8,4.3-1.2,6.5-1.2
				c2.1,0,3.7,0.4,4.9,1.2c1.4,1.2,2.3,3.4,2.6,6.8c0.3,3.4,0.5,7.1,0.5,11.1c0,3.6-0.2,7.5-0.5,11.7c-0.3,4.2-0.5,8.5-0.5,12.9v1.9
				c0.1,3.1,0.4,6,0.8,8.5c0.4,2.6,0.7,5,1,7.3c0.7,5.7,1.2,11.4,1.6,17c0,2.4-1.2,4.4-3.6,5.8c-2.4,1.4-4.8,2.2-7.2,2.2
				c-0.9,0-1.8-0.1-2.5-0.3c-0.8-0.2-1.4-0.6-2-1.1c-0.8-0.6-1.4-1.6-1.6-3.2c-0.3-1.6-0.5-3.3-0.6-5.1c-0.1-1.9-0.2-3.8-0.2-5.7
				c0-1.9-0.1-3.5-0.2-4.8c-0.2-3.7-0.6-7-1-9.8C261.8,70.1,261.5,67,261.3,63.8z"/>
		</g>
	</g>
</g>
<g>
	<g transform="translate(652.167398, 309.858842)">
		<g>
			<path d="M279.3,101c-1.6-5.9-3-11.6-4.2-17.1c-1.2-5.5-2.7-11.1-4.7-16.8c-1.4,0.6-3,1-4.7,1.1c-1.7,0.2-3.6,0.3-5.6,0.3
				c-1.7,0-3.5,0-5.3-0.1c-1.8-0.1-3.6-0.1-5.3-0.1h-1.4c-2.3,4.9-4.3,10.1-5.9,15.7c-1.6,5.6-3.3,11.1-4.9,16.7
				c-0.5,0.9-1.6,1.7-3.4,2.3c-1.8,0.6-3.7,0.9-5.6,0.9c-2,0-3.7-0.4-5.2-1.1c-1.5-0.8-2.3-2.1-2.3-3.9c0-1.6,0.3-3.4,0.9-5.4
				c0.6-2,1.3-3.9,2.1-5.9c0.8-2,1.7-3.9,2.6-5.9c0.9-2,1.7-3.8,2.3-5.4l1.9-4.9c1.5-3.9,3-7.6,4.6-11c1.6-3.4,3.1-6.8,4.7-10.2
				c1.6-3.4,3.1-6.8,4.7-10.3c1.6-3.5,3.2-7.3,5-11.3c0.8-2,1.6-4,2.3-6.2c0.8-2.2,1.5-3.6,2.2-4.4c0.8-0.9,1.8-1.6,3-1.9
				c1.2-0.3,2.5-0.5,3.9-0.5c2.6,0,5,0.5,7.5,1.4c2,3,3.4,6.1,4.2,9.2c0.8,3.1,1.9,6.5,3.1,10.1c1.2,3.4,2.4,6.7,3.9,10.1
				c1.5,3.4,2.7,6.8,3.6,10.4c0.9,3.6,1.8,7,2.7,10.1c0.9,3.1,1.8,6.2,2.7,9.1c0.9,3,1.9,5.9,2.9,9c1,3,2.1,6.1,3.4,9.4
				c0.1,0.3,0.2,0.7,0.3,1c0.1,0.3,0.1,0.8,0.1,1.4c0,1.3-0.2,2.4-0.7,3.5c-1.2,0.9-2.6,1.7-4.2,2.3c-1.6,0.6-3.2,0.9-4.9,0.9
				C283.3,103.3,281.2,102.5,279.3,101z M261.2,36.5c-1.4,3-2.7,5.9-4,8.8c-1.3,2.8-2.4,6-3.3,9.3c2,0.2,3.9,0.4,5.7,0.5
				c1.9,0.1,3.7,0.2,5.4,0.2h1.8c-0.7-3.4-1.5-6.6-2.4-9.6C263.4,42.5,262.4,39.5,261.2,36.5z"/>
		</g>
	</g>
</g>
<g>
	<g transform="translate(713.230437, 309.858842)">
		<g>
			<path d="M320.6,102.4c-4.2-10.4-7.7-20.7-10.5-30.8c-2.8-10.1-6.1-20.5-9.8-31.2c-1.5,1.5-2.7,3.3-3.7,5.5
				c-0.9,2.1-1.8,4.2-2.8,6.2c-0.9,2-1.9,3.7-3,5c-1.1,1.4-2.5,2.1-4.3,2.1c-1.6,0-3.1-0.4-4.5-1.1c-1.4-0.8-2.7-1.7-3.9-2.9
				c-1.2-1.2-2.4-2.4-3.5-3.8c-1.1-1.4-2.1-2.7-3-4l-1.7-2.3c-0.3,2.4-0.8,5.2-1.4,8.2c-0.6,3-1.2,6.1-1.9,9.3
				c-0.7,3.2-1.4,6.4-2.2,9.6c-0.8,3.2-1.5,6.1-2.2,8.6c-0.6,2.2-1.1,4.5-1.7,7c-0.5,2.5-1.2,4.8-2.1,7c-0.9,2.1-2,4-3.3,5.6
				c-1.3,1.6-3.1,2.5-5.3,2.9c-0.2,0-0.5,0-0.7,0.1c-0.2,0.1-0.5,0.1-0.7,0.1c-1.6,0-3-0.4-4.1-1.1c-1.1-0.8-2.1-1.7-3-2.9l0.7-2.8
				c2-7.8,4-16.5,6.2-26.2c2.2-9.7,3.9-19.3,5.1-28.8l0.4-2.3c0.3-2.9,0.8-5.8,1.3-8.6c0.5-2.8,1.3-5.3,2.2-7.5
				c0.9-2.2,2.2-3.9,3.9-5.2c1.7-1.3,3.9-2,6.5-2c0.5,0,0.9,0,1.5,0c0.5,0,1.1,0.1,1.6,0.2c1.5,1,2.8,2.4,4,4c1.2,1.6,2.3,3.3,3.3,5
				c1,1.7,2.1,3.5,3,5.3c1,1.8,2.1,3.4,3.2,4.8c1.3-1.9,2.6-3.9,3.9-6.2c1.3-2.3,2.8-4.4,4.3-6.4c1.6-2,3.4-3.7,5.4-5
				c2-1.3,4.4-2,7.2-2c1.8,0,3.3,0.2,4.3,0.7c1,0.5,1.7,1.1,2.3,2c0.5,0.9,0.9,2,1.2,3.2c0.3,1.3,0.6,2.7,1,4.3
				c0.6,2.4,1.4,5.2,2.6,8.2c1.2,3,2.3,6.1,3.5,9.4c1.4,4.1,2.8,8.2,4.1,12.5c1.3,4.3,2.7,8.6,4,12.9c1.3,4.3,2.7,8.4,4.1,12.4
				c1.4,4,2.8,7.7,4.4,11c0.3,0.9,0.5,1.7,0.5,2.4c0,1.3-0.4,2.4-1.1,3.5c-0.8,1-1.7,1.9-3,2.6c-1.2,0.7-2.6,1.2-4,1.6
				c-1.4,0.4-2.9,0.6-4.3,0.6C323.1,103.3,321.7,103,320.6,102.4z"/>
		</g>
	</g>
</g>
<g>
	<g transform="translate(790.211622, 309.858842)">
		<g>
			<path d="M346.2,102.4c-4.2-10.4-7.7-20.7-10.5-30.8c-2.8-10.1-6.1-20.5-9.8-31.2c-1.5,1.5-2.7,3.3-3.7,5.5
				c-0.9,2.1-1.8,4.2-2.8,6.2c-0.9,2-1.9,3.7-3,5c-1.1,1.4-2.5,2.1-4.3,2.1c-1.6,0-3.1-0.4-4.5-1.1c-1.4-0.8-2.7-1.7-3.9-2.9
				c-1.2-1.2-2.4-2.4-3.5-3.8c-1.1-1.4-2.1-2.7-3-4l-1.7-2.3c-0.3,2.4-0.8,5.2-1.4,8.2c-0.6,3-1.2,6.1-1.9,9.3
				c-0.7,3.2-1.4,6.4-2.2,9.6c-0.8,3.2-1.5,6.1-2.2,8.6c-0.6,2.2-1.1,4.5-1.7,7c-0.5,2.5-1.2,4.8-2.1,7c-0.9,2.1-2,4-3.3,5.6
				c-1.3,1.6-3.1,2.5-5.3,2.9c-0.2,0-0.5,0-0.7,0.1c-0.2,0.1-0.5,0.1-0.7,0.1c-1.6,0-3-0.4-4.1-1.1c-1.1-0.8-2.1-1.7-3-2.9l0.7-2.8
				c2-7.8,4-16.5,6.2-26.2c2.2-9.7,3.9-19.3,5.1-28.8l0.4-2.3c0.3-2.9,0.8-5.8,1.3-8.6c0.5-2.8,1.3-5.3,2.2-7.5
				c0.9-2.2,2.2-3.9,3.9-5.2c1.7-1.3,3.9-2,6.5-2c0.5,0,0.9,0,1.5,0c0.5,0,1.1,0.1,1.6,0.2c1.5,1,2.8,2.4,4,4c1.2,1.6,2.3,3.3,3.3,5
				c1,1.7,2.1,3.5,3,5.3c1,1.8,2.1,3.4,3.2,4.8c1.3-1.9,2.6-3.9,3.9-6.2c1.3-2.3,2.8-4.4,4.3-6.4c1.6-2,3.4-3.7,5.4-5
				c2-1.3,4.4-2,7.2-2c1.8,0,3.3,0.2,4.3,0.7c1,0.5,1.7,1.1,2.3,2c0.5,0.9,0.9,2,1.2,3.2c0.3,1.3,0.6,2.7,1,4.3
				c0.6,2.4,1.4,5.2,2.6,8.2c1.2,3,2.3,6.1,3.5,9.4c1.4,4.1,2.8,8.2,4.1,12.5c1.3,4.3,2.7,8.6,4,12.9c1.3,4.3,2.7,8.4,4.1,12.4
				c1.4,4,2.8,7.7,4.4,11c0.3,0.9,0.5,1.7,0.5,2.4c0,1.3-0.4,2.4-1.1,3.5c-0.8,1-1.7,1.9-3,2.6c-1.2,0.7-2.6,1.2-4,1.6
				c-1.4,0.4-2.9,0.6-4.3,0.6C348.7,103.3,347.4,103,346.2,102.4z"/>
		</g>
	</g>
</g>
<g>
	<g transform="translate(867.192797, 309.858842)">
		<g>
			<path d="M351,101c-1.6-5.9-3-11.6-4.2-17.1c-1.2-5.5-2.7-11.1-4.7-16.8c-1.4,0.6-3,1-4.7,1.1c-1.7,0.2-3.6,0.3-5.6,0.3
				c-1.7,0-3.5,0-5.3-0.1c-1.8-0.1-3.6-0.1-5.3-0.1h-1.4c-2.3,4.9-4.3,10.1-5.9,15.7c-1.6,5.6-3.3,11.1-4.9,16.7
				c-0.5,0.9-1.6,1.7-3.4,2.3c-1.8,0.6-3.7,0.9-5.6,0.9c-2,0-3.7-0.4-5.2-1.1c-1.5-0.8-2.3-2.1-2.3-3.9c0-1.6,0.3-3.4,0.9-5.4
				c0.6-2,1.3-3.9,2.1-5.9c0.8-2,1.7-3.9,2.6-5.9c0.9-2,1.7-3.8,2.3-5.4l1.9-4.9c1.5-3.9,3-7.6,4.6-11c1.6-3.4,3.1-6.8,4.7-10.2
				c1.6-3.4,3.1-6.8,4.7-10.3c1.6-3.5,3.2-7.3,5-11.3c0.8-2,1.6-4,2.3-6.2c0.8-2.2,1.5-3.6,2.2-4.4c0.8-0.9,1.8-1.6,3-1.9
				c1.2-0.3,2.5-0.5,3.9-0.5c2.6,0,5,0.5,7.5,1.4c2,3,3.4,6.1,4.2,9.2c0.8,3.1,1.9,6.5,3.1,10.1c1.2,3.4,2.4,6.7,3.9,10.1
				c1.5,3.4,2.7,6.8,3.6,10.4c0.9,3.6,1.8,7,2.7,10.1c0.9,3.1,1.8,6.2,2.7,9.1c0.9,3,1.9,5.9,2.9,9c1,3,2.1,6.1,3.4,9.4
				c0.1,0.3,0.2,0.7,0.3,1c0.1,0.3,0.1,0.8,0.1,1.4c0,1.3-0.2,2.4-0.7,3.5c-1.2,0.9-2.6,1.7-4.2,2.3c-1.6,0.6-3.2,0.9-4.9,0.9
				C354.9,103.3,352.9,102.5,351,101z M332.9,36.5c-1.4,3-2.7,5.9-4,8.8c-1.3,2.8-2.4,6-3.3,9.3c2,0.2,3.9,0.4,5.7,0.5
				c1.9,0.1,3.7,0.2,5.4,0.2h1.8c-0.7-3.4-1.5-6.6-2.4-9.6C335.1,42.5,334.1,39.5,332.9,36.5z"/>
		</g>
	</g>
</g>
<g>
	<g transform="translate(928.255858, 309.858842)">
		<g>
			<path d="M359.4,84c0-4.2-1-7.4-3.1-9.8c-2-2.3-4.6-4.2-7.6-5.7c-3.1-1.5-6.4-2.8-9.9-3.9c-3.5-1.1-6.8-2.5-9.9-4.3
				c-3.1-1.8-5.6-4-7.6-6.9c-2-2.8-3-6.8-3-11.8v-1.9c0.1-1.9,0.5-3.8,1.2-5.8c0.7-2,1.6-4,2.7-5.9c1.1-1.9,2.4-3.6,3.8-5.1
				c1.4-1.5,2.8-2.7,4.4-3.5c0.8-0.5,2.2-0.9,4.1-1.4c1.9-0.5,4.1-0.9,6.4-1.2c2.4-0.3,4.8-0.6,7.4-0.9c2.6-0.2,4.9-0.4,7-0.4
				c4.1,0,7.7,0.5,11,1.6c3.3,1,5.1,2.8,5.3,5.4v1.2c0,2.4-0.8,4.1-2.4,4.9c-1.6,0.8-3.7,1.2-6.1,1.2c-1.3,0-2.8-0.1-4.4-0.2
				c-1.7-0.1-3.4-0.3-5.1-0.4c-1.7-0.2-3.4-0.3-5-0.4c-1.6-0.1-3-0.2-4-0.2c-1.5,0-2.5,0.1-3.1,0.4c-1.9,0.6-3.3,2-4.4,4.3
				c-1,2.3-1.6,4.7-1.6,7.4c0,3,1,5.4,3,7.2c2,1.8,4.4,3.4,7.3,4.8c2.9,1.4,6.1,2.8,9.6,4.2c3.5,1.4,6.7,3.3,9.6,5.6
				c2.9,2.3,5.3,5.3,7.3,9c2,3.7,3,8.4,3,14.4c0,2-0.2,3.8-0.7,5.5c-0.5,1.7-1.3,3.2-2.4,4.6c-1.1,1.3-2.7,2.4-4.9,3.4
				c-2.2,1-4.6,1.8-7.2,2.4c-2.6,0.6-5.3,1-8.1,1.3c-2.8,0.3-5.3,0.4-7.7,0.4c-0.7,0-2.6-0.3-5.8-0.8c-3.1-0.5-6.4-1.2-9.9-2.1
				c-3.5-0.9-6.6-1.9-9.4-3.1c-2.8-1.2-4.2-2.6-4.2-4.1c0-1.9,0.3-3.3,1-4.3c0.7-1,1.6-1.7,2.7-2.2c1.1-0.5,2.3-0.8,3.6-0.9
				c1.3-0.1,2.6-0.2,3.9-0.2h0.7c0.7,0,1.7,0.2,3.1,0.7c1.4,0.5,3,1,4.9,1.6c1.9,0.6,3.9,1.1,6,1.6c2.1,0.5,4.3,0.7,6.5,0.7
				c0.5,0,1.4-0.1,2.7-0.4c1.3-0.2,2.7-0.6,4.1-1.1c1.4-0.5,2.6-1.2,3.7-2C358.8,85.9,359.4,85,359.4,84z"/>
		</g>
	</g>
</g>
<g>
	<g transform="translate(982.403621, 309.858842)">
		<g>
			<path d="M389.4,101c-1.6-5.9-3-11.6-4.2-17.1c-1.2-5.5-2.7-11.1-4.7-16.8c-1.4,0.6-3,1-4.7,1.1c-1.7,0.2-3.6,0.3-5.6,0.3
				c-1.7,0-3.5,0-5.3-0.1c-1.8-0.1-3.6-0.1-5.3-0.1h-1.4c-2.3,4.9-4.3,10.1-5.9,15.7c-1.6,5.6-3.3,11.1-4.9,16.7
				c-0.5,0.9-1.6,1.7-3.4,2.3c-1.8,0.6-3.7,0.9-5.6,0.9c-2,0-3.7-0.4-5.2-1.1c-1.5-0.8-2.3-2.1-2.3-3.9c0-1.6,0.3-3.4,0.9-5.4
				c0.6-2,1.3-3.9,2.1-5.9c0.8-2,1.7-3.9,2.6-5.9c0.9-2,1.7-3.8,2.3-5.4l1.9-4.9c1.5-3.9,3-7.6,4.6-11c1.6-3.4,3.1-6.8,4.7-10.2
				c1.6-3.4,3.1-6.8,4.7-10.3c1.6-3.5,3.2-7.3,5-11.3c0.8-2,1.6-4,2.3-6.2c0.8-2.2,1.5-3.6,2.2-4.4c0.8-0.9,1.8-1.6,3-1.9
				c1.2-0.3,2.5-0.5,3.9-0.5c2.6,0,5,0.5,7.5,1.4c2,3,3.4,6.1,4.2,9.2c0.8,3.1,1.9,6.5,3.1,10.1c1.2,3.4,2.4,6.7,3.9,10.1
				c1.5,3.4,2.7,6.8,3.6,10.4c0.9,3.6,1.8,7,2.7,10.1c0.9,3.1,1.8,6.2,2.7,9.1c0.9,3,1.9,5.9,2.9,9c1,3,2.1,6.1,3.4,9.4
				c0.1,0.3,0.2,0.7,0.3,1c0.1,0.3,0.1,0.8,0.1,1.4c0,1.3-0.2,2.4-0.7,3.5c-1.2,0.9-2.6,1.7-4.2,2.3c-1.6,0.6-3.2,0.9-4.9,0.9
				C393.4,103.3,391.3,102.5,389.4,101z M371.3,36.5c-1.4,3-2.7,5.9-4,8.8c-1.3,2.8-2.4,6-3.3,9.3c2,0.2,3.9,0.4,5.7,0.5
				c1.9,0.1,3.7,0.2,5.4,0.2h1.8c-0.7-3.4-1.5-6.6-2.4-9.6C373.5,42.5,372.5,39.5,371.3,36.5z"/>
		</g>
	</g>
</g>
<g>
	<g transform="translate(1043.466636, 309.858842)">
		<g>
			<path d="M393.4,29.5c-0.1,3-0.2,6.1-0.3,9.3c-0.1,3.2-0.1,6.5-0.1,9.8c0,8.9,0.1,17.3,0.4,25.1c0.2,7.8,0.4,16.1,0.5,25
				c-0.8,1.3-2.3,2.4-4.4,3.2c-2.1,0.9-4.3,1.3-6.4,1.3c-1.5,0-2.9-0.3-4.1-0.9c-1.2-0.6-2.1-1.5-2.5-2.8c-0.3-0.8-0.5-1.8-0.5-2.8
				c0-1,0.1-2.1,0.3-3.2c0.2-1.1,0.3-2.3,0.3-3.6c-0.1-4.8-0.2-9.8-0.2-15c0-5.3,0-10.5-0.1-15.8c-0.1-5.2-0.1-10.3-0.3-15.2
				c-0.1-4.9-0.3-9.4-0.5-13.5c-0.6-0.1-1.2-0.2-1.8-0.2c-0.6,0-1.1,0-1.7,0c-1.3,0-2.6,0-4,0.1c-1.4,0.1-2.8,0.1-4.2,0.1
				c-1.4,0-2.8-0.1-4.4-0.2c-1.5-0.1-2.9-0.4-4.1-0.8c-1.2-0.4-2.2-1-3-1.8c-0.8-0.8-1.1-1.8-1.1-3c0-2.2,0.7-3.9,2.2-5.2
				c1.5-1.3,3.4-2.2,5.8-2.7c2.4-0.5,5-0.8,8-1c3-0.1,5.9-0.2,9-0.2c5.2,0,10.5,0.2,15.8,0.6c5.3,0.4,10.2,0.6,14.6,0.6h6.6
				c2.3,0,4.3,0.3,6.1,1c1.8,0.7,2.7,2.4,2.8,5v1.2c0,2.7-1.2,4.4-3.5,5.3c-2.3,0.9-5.1,1.3-8.4,1.3c-3,0-6.1-0.2-9.1-0.6
				C398.1,29.9,395.5,29.6,393.4,29.5z"/>
		</g>
	</g>
</g>
<g>
	<g transform="translate(536.043141, 409.608837)">
		<g>
			<path d="M206.7,132.2c-0.9,1.4-2.4,2.6-4.3,3.5c-1.9,0.9-3.9,1.4-5.8,1.4c-1.3,0-2.5-0.2-3.6-0.5c-1.1-0.3-2.1-1-3-1.9
				c-0.5-1.5-0.7-3.4-0.7-5.7c0-2.3,0.1-4.7,0.4-7.2c0.3-2.5,0.4-5.1,0.4-7.8c-0.1-9.7-0.6-19.8-1.3-30.3
				c-0.8-10.4-1.2-20.6-1.5-30.5c0.9-1.3,2.4-2.3,4.6-3.2c2.2-0.9,4.3-1.3,6.4-1.3c2.9,0,5,0.9,6.3,2.6c0.5,0.6,0.8,1.3,0.9,2.2
				c0.1,0.9,0.2,1.8,0.2,2.9c0,1.6-0.1,3.3-0.3,5.1c-0.2,1.7-0.3,3.5-0.3,5.2V69c0,8.6,0.3,17.1,0.9,25.6c0.6,8.5,0.9,17.2,0.9,26.3
				c0,2,0,3.9,0,5.7C206.9,128.3,206.8,130.2,206.7,132.2z"/>
		</g>
	</g>
</g>
<g>
	<g transform="translate(563.704173, 409.608837)">
		<g>
			<path d="M216.6,74.1c0,3-0.1,6.3-0.4,9.9c-0.2,3.6-0.3,7.3-0.3,11v2.3c0,3.5,0.4,6.9,1.2,10.2c0.8,3.3,1.3,6.3,1.6,9
				c0,1.2,0,2.4,0.1,3.6c0.1,1.2,0.1,2.5,0.1,3.7c0,1.6-0.1,3.1-0.2,4.4c-0.1,1.3-0.3,2.5-0.7,3.4c-0.6,1.4-1.9,2.6-3.8,3.6
				c-2,1-4.1,1.5-6.3,1.5c-1.7,0-3.3-0.4-4.8-1.1c-1.4-0.8-2.5-2-3-3.8c0-2.2,0-4.1,0-5.8c0-1.7,0-3.3-0.1-4.7
				c-0.1-1.4-0.2-2.9-0.4-4.4c-0.2-1.5-0.4-3.3-0.6-5.2c-0.2-2-0.4-4.1-0.5-6.4c-0.1-2.3-0.2-4.6-0.2-7c0-4.2,0.1-8.4,0.3-12.7
				c0.2-4.3,0.3-8.3,0.3-12c0-3.8-0.2-7.1-0.5-9.9c-0.2-1.3-0.6-2.4-1-3.4c-0.5-1-0.7-2-0.7-3c0-0.7,0.3-1.6,0.9-2.8
				c0.5-0.7,1.3-1.4,2.5-2c1.2-0.6,2.6-1.2,4.3-1.6c1.6-0.5,3.3-0.9,5.1-1.1c1.8-0.3,3.6-0.4,5.3-0.4c1.6,0,3.1,0.1,4.5,0.4
				c1.4,0.3,2.5,0.7,3.3,1.3c1.4,1,2.8,2.6,4.1,4.6c1.3,2,2.7,4,4.1,6c1.9,2.6,3.7,5.3,5.5,8.3c1.8,3,3.6,5.9,5.4,8.9
				c1.8,3,3.6,5.9,5.4,8.7c1.8,2.8,3.6,5.4,5.3,7.7c0.1-0.6,0.2-1.2,0.2-1.9c0-0.7,0-1.5,0-2.4c0-2-0.1-4.1-0.3-6.4
				c-0.2-2.3-0.3-4.7-0.5-7c-0.2-2.4-0.4-4.7-0.6-6.9c-0.2-2.2-0.3-4.2-0.3-5.9c0-0.9,0-1.9-0.1-3.1c-0.1-1.2-0.1-2.3-0.1-3.5
				c0-0.8,0-1.5,0-2.2c0-0.6,0.1-1.3,0.4-1.8c0.6-1.6,1.6-2.8,3-3.6c1.5-0.8,3.1-1.2,5-1.2c2,0,3.9,0.5,5.6,1.4
				c1.8,0.9,3.1,2.3,3.8,4.2c-0.3,2.8-0.5,5.8-0.5,9.1c0,5.3,0.2,11,0.7,17c0.5,6,0.7,11.5,0.7,16.6c0,3.4,0,6.4,0.1,9.1
				c0.1,2.7,0.2,5.2,0.3,7.5c0.2,2.3,0.4,4.6,0.8,6.9c0.3,2.3,0.9,4.6,1.6,7c0,0.2,0,0.4,0.1,0.4c0.1,0.1,0.1,0.2,0.1,0.4
				c0,0.6-0.1,1.2-0.2,1.8c-0.1,0.6-0.2,1.4-0.3,2.4c-1.5,1.2-3.1,2.1-4.9,2.9c-1.7,0.8-3.5,1.1-5.4,1.1c-1.6,0-3-0.3-4.2-0.9
				c-2.2-1-4-2.8-5.4-5.3c-1.4-2.5-2.7-5-4-7.6c-4.5-8.9-9.5-17.8-15-26.7c-5.4-8.9-10.8-16.7-16.2-23.6V74.1z"/>
		</g>
	</g>
</g>
<g>
	<g transform="translate(633.378673, 409.608837)">
		<g>
			<path d="M256.7,62.8c-0.1,3-0.2,6.1-0.3,9.3c-0.1,3.2-0.1,6.5-0.1,9.8c0,8.9,0.1,17.3,0.4,25.1c0.2,7.8,0.4,16.1,0.5,25
				c-0.8,1.3-2.3,2.4-4.4,3.2c-2.1,0.9-4.3,1.3-6.4,1.3c-1.5,0-2.9-0.3-4.1-0.9c-1.2-0.6-2.1-1.5-2.5-2.8c-0.3-0.8-0.5-1.8-0.5-2.8
				c0-1,0.1-2.1,0.3-3.2c0.2-1.1,0.3-2.3,0.3-3.6c-0.1-4.8-0.2-9.8-0.2-15c0-5.3,0-10.5-0.1-15.8c-0.1-5.2-0.1-10.3-0.3-15.2
				c-0.1-4.9-0.3-9.4-0.5-13.5c-0.6-0.1-1.2-0.2-1.8-0.2c-0.6,0-1.1,0-1.7,0c-1.3,0-2.6,0-4,0.1c-1.4,0.1-2.8,0.1-4.2,0.1
				c-1.4,0-2.8-0.1-4.4-0.2c-1.5-0.1-2.9-0.4-4.1-0.8c-1.2-0.4-2.2-1-3-1.8c-0.8-0.8-1.1-1.8-1.1-3c0-2.2,0.7-3.9,2.2-5.2
				c1.5-1.3,3.4-2.2,5.8-2.7c2.4-0.5,5-0.8,8-1c3-0.1,5.9-0.2,9-0.2c5.2,0,10.5,0.2,15.8,0.6c5.3,0.4,10.2,0.6,14.6,0.6h6.6
				c2.3,0,4.3,0.3,6.1,1c1.8,0.7,2.7,2.4,2.8,5v1.2c0,2.7-1.2,4.4-3.5,5.3c-2.3,0.9-5.1,1.3-8.4,1.3c-3,0-6.1-0.2-9.1-0.6
				C261.4,63.2,258.8,62.9,256.7,62.8z"/>
		</g>
	</g>
</g>
<g>
	<g transform="translate(691.701709, 409.608837)">
		<g>
			<path d="M257.2,62.8c-0.3,3.9-0.5,7.4-0.4,10.4c0.1,3-0.1,6.5-0.6,10.7c2.1,0.3,4.2,0.5,6.3,0.5c2.1,0,4.2-0.1,6.3-0.3
				c2.1-0.2,4.2-0.3,6.4-0.3c3.5,0,6.8,0.4,9.9,1.2c0.9,1.9,1.4,3.6,1.4,5.2c0,2.3-1.1,4-3.2,5.1c-2.1,1.1-4.8,1.8-7.8,2.2
				c-3.1,0.3-6.3,0.5-9.8,0.4c-3.5-0.1-6.5,0-9,0.1c0,4.1,0.1,8.2,0.2,12.4c0.1,4.2,0.3,8.2,0.5,12c1.5,0.3,3,0.6,4.4,0.7
				c1.5,0.1,2.9,0.2,4.3,0.2c3.6,0,7.1-0.2,10.6-0.7c3.5-0.5,7.3-0.7,11.3-0.7c0.9,0,1.8,0,2.6,0c0.8,0,1.7,0.1,2.6,0.2
				c1.3,0.8,2.2,1.7,2.7,2.8c0.5,1,0.8,2.1,0.8,3.1c0,2.1-0.9,4-2.7,5.8c-1.8,1.8-4.1,2.8-6.9,3h-0.7c-0.9,0-1.9-0.1-3-0.3
				c-1-0.2-2.1-0.3-3.1-0.3h-27.7c-1.2,0.2-2.1,0.3-3,0.3c-2.2,0-4.3-0.5-6.4-1.6c-2-1-3-2.9-3-5.7c-0.1-7.3-0.2-13.4-0.3-18.3
				c-0.1-4.9-0.1-8.9-0.2-12.2c-0.1-3.3-0.1-5.9-0.2-8c-0.1-2.1-0.1-4.1-0.1-5.9c0-2.3,0.1-4.9,0.2-7.7c0.1-2.8,0.2-5.8,0.2-8.8
				c0-1.9-0.1-3.7-0.3-5.6c-0.2-1.9-0.3-3.7-0.3-5.3c0-2.1,0.2-3.7,0.7-4.7c0.3-0.8,1-1.4,2-1.9c1-0.5,2.1-0.8,3.5-1
				c1.3-0.2,2.8-0.3,4.3-0.4c1.5-0.1,3-0.1,4.4-0.1h1.2c2.7,0,5,0.1,7.1,0.2c2.1,0.1,4.1,0.2,6.1,0.2c2,0,3.9-0.1,5.9-0.3
				c2-0.2,3.8-0.3,5.4-0.4h1.2c0.8,0,1.6,0,2.5-0.1c0.9-0.1,1.8-0.1,2.7-0.1c3,0,5.7,0.4,8,1.1c2.3,0.8,3.5,2.5,3.5,5.1v1.2
				c-0.2,1.5-0.9,2.7-2,3.6c-1.1,0.9-2.5,1.5-4.1,2c-1.6,0.5-3.5,0.8-5.6,1c-2.1,0.2-4.2,0.3-6.3,0.3c-2.2,0-4.3,0-6.4-0.1
				c-2.1-0.1-3.9-0.1-5.6-0.1c-1.4,0-2.8-0.1-4.1-0.3c-1.3-0.2-2.7-0.3-4.1-0.3C258.6,62.6,257.8,62.7,257.2,62.8z"/>
		</g>
	</g>
</g>
<g>
	<g transform="translate(748.589486, 409.608837)">
		<g>
			<path d="M277.4,107c-0.6,1.5-0.9,3.3-0.9,5.4c0,1.6,0.1,3.3,0.4,5.1c0.2,1.7,0.4,3.4,0.4,4.9c0,2.2-0.1,4.4-0.3,6.5
				c-0.2,2.1-0.7,3.7-1.5,4.9c-0.7,0.9-1.7,1.7-3,2.2c-1.3,0.5-2.8,0.8-4.4,0.8s-3.2-0.3-4.8-1c-1.6-0.6-2.8-1.6-3.7-2.9
				c-0.1-9-0.2-16.6-0.3-22.8c-0.1-6.2-0.1-11.3-0.2-15.4c-0.1-4.1-0.1-7.4-0.3-9.8c-0.1-2.4-0.2-4.3-0.3-5.8
				c-0.1-1.5-0.1-2.7-0.2-3.6c-0.1-0.9-0.1-2-0.1-3.3c0-1.9,0.1-3.7,0.2-5.5c0.1-1.8,0.3-3.5,0.7-5.1c0.5-2.3,1.9-4,4.4-5.1
				c2.5-1.1,5.3-2.1,8.3-3l1.4-0.4c3.1-0.9,6.9-1.9,11.2-2.8c4.4-0.9,8.7-1.4,13-1.4c2.3,0,4.5,0.2,6.5,0.5c2,0.3,4,1,5.8,1.9
				c1.2,0.6,2.4,1.4,3.8,2.5c1.3,1.1,2.7,2.3,4,3.6c1.3,1.3,2.5,2.6,3.6,4.1c1.1,1.4,2.1,2.7,2.9,3.9c0.9,1.3,1.5,2.7,1.6,4.3
				c0.2,1.6,0.3,3.1,0.3,4.8v4c-0.2,4.4-1,8-2.2,10.8c-1.2,2.8-2.8,5.1-4.7,6.9c-1.9,1.8-4.2,3.2-6.9,4.4c-2.7,1.1-5.6,2.2-8.9,3.4
				c2.6,2.9,4.8,5.2,6.8,7c2,1.7,3.9,3.4,5.6,5c1.8,1.6,3.6,3.3,5.4,5.1c1.8,1.9,3.8,4.4,6,7.5c-0.4,1.2-0.8,2.2-1.2,3.1
				c-0.5,0.9-0.9,1.8-1.4,2.8c-1.3,0.7-2.6,1.3-4,1.8c-1.4,0.5-2.9,0.7-4.5,0.7c-1.5,0-3.3-0.3-5.4-0.9c-5-5.3-9.1-9.7-12.3-13.1
				c-3.2-3.4-5.8-6.1-7.8-8.1c-2-2-3.6-3.4-4.7-4.3c-1.1-0.9-2.1-1.5-2.9-1.8c-0.8-0.3-1.6-0.5-2.4-0.6
				C279.7,107.5,278.6,107.3,277.4,107z M300.7,92c2.7-0.7,5.2-2,7.5-3.9c2.3-1.9,3.5-4.5,3.5-7.7c0-0.2,0-0.5-0.1-0.8
				c-0.1-0.3-0.1-0.6-0.1-0.8c-0.2-0.9-0.8-2.2-1.8-3.9c-0.9-1.7-2-3.4-3.2-5.1c-1.2-1.7-2.5-3.2-3.9-4.6c-1.4-1.4-2.6-2.3-3.6-2.6
				c-2-0.8-4-1.2-6.1-1.2c-3.1,0-6.1,0.6-9,1.8c-2.8,1.2-5.4,2.3-7.7,3.2c-0.2,2.1-0.4,4.1-0.4,6.1c0,2,0,3.9,0,5.9
				c0,2.7,0,5.3,0.1,7.8c0.1,2.5,0.1,5.1,0.3,7.6c1.4-0.5,2.9-0.7,4.5-0.9c1.6-0.1,3.3-0.2,4.9-0.2h5.7c1.6,0,3.2-0.1,4.8-0.2
				C297.6,92.6,299.2,92.3,300.7,92z"/>
		</g>
	</g>
</g>
<g>
	<g transform="translate(809.391576, 409.608837)">
		<g>
			<path d="M298.5,74.1c0,3-0.1,6.3-0.4,9.9c-0.2,3.6-0.3,7.3-0.3,11v2.3c0,3.5,0.4,6.9,1.2,10.2c0.8,3.3,1.3,6.3,1.6,9
				c0,1.2,0,2.4,0.1,3.6c0.1,1.2,0.1,2.5,0.1,3.7c0,1.6-0.1,3.1-0.2,4.4c-0.1,1.3-0.3,2.5-0.7,3.4c-0.6,1.4-1.9,2.6-3.8,3.6
				c-2,1-4.1,1.5-6.3,1.5c-1.7,0-3.3-0.4-4.8-1.1c-1.4-0.8-2.5-2-3-3.8c0-2.2,0-4.1,0-5.8c0-1.7,0-3.3-0.1-4.7
				c-0.1-1.4-0.2-2.9-0.4-4.4c-0.2-1.5-0.4-3.3-0.6-5.2c-0.2-2-0.4-4.1-0.5-6.4c-0.1-2.3-0.2-4.6-0.2-7c0-4.2,0.1-8.4,0.3-12.7
				c0.2-4.3,0.3-8.3,0.3-12c0-3.8-0.2-7.1-0.5-9.9c-0.2-1.3-0.6-2.4-1-3.4c-0.5-1-0.7-2-0.7-3c0-0.7,0.3-1.6,0.9-2.8
				c0.5-0.7,1.3-1.4,2.5-2c1.2-0.6,2.6-1.2,4.3-1.6c1.6-0.5,3.3-0.9,5.1-1.1c1.8-0.3,3.6-0.4,5.3-0.4c1.6,0,3.1,0.1,4.5,0.4
				c1.4,0.3,2.5,0.7,3.3,1.3c1.4,1,2.8,2.6,4.1,4.6c1.3,2,2.7,4,4.1,6c1.9,2.6,3.7,5.3,5.5,8.3c1.8,3,3.6,5.9,5.4,8.9
				c1.8,3,3.6,5.9,5.4,8.7c1.8,2.8,3.6,5.4,5.3,7.7c0.1-0.6,0.2-1.2,0.2-1.9c0-0.7,0-1.5,0-2.4c0-2-0.1-4.1-0.3-6.4
				c-0.2-2.3-0.3-4.7-0.5-7c-0.2-2.4-0.4-4.7-0.6-6.9c-0.2-2.2-0.3-4.2-0.3-5.9c0-0.9,0-1.9-0.1-3.1c-0.1-1.2-0.1-2.3-0.1-3.5
				c0-0.8,0-1.5,0-2.2c0-0.6,0.1-1.3,0.4-1.8c0.6-1.6,1.6-2.8,3-3.6c1.5-0.8,3.1-1.2,5-1.2c2,0,3.9,0.5,5.6,1.4
				c1.8,0.9,3.1,2.3,3.8,4.2c-0.3,2.8-0.5,5.8-0.5,9.1c0,5.3,0.2,11,0.7,17c0.5,6,0.7,11.5,0.7,16.6c0,3.4,0,6.4,0.1,9.1
				c0.1,2.7,0.2,5.2,0.3,7.5c0.2,2.3,0.4,4.6,0.8,6.9c0.3,2.3,0.9,4.6,1.6,7c0,0.2,0,0.4,0.1,0.4c0.1,0.1,0.1,0.2,0.1,0.4
				c0,0.6-0.1,1.2-0.2,1.8c-0.1,0.6-0.2,1.4-0.3,2.4c-1.5,1.2-3.1,2.1-4.9,2.9c-1.7,0.8-3.5,1.1-5.4,1.1c-1.6,0-3-0.3-4.2-0.9
				c-2.2-1-4-2.8-5.4-5.3c-1.4-2.5-2.7-5-4-7.6c-4.5-8.9-9.5-17.8-15-26.7c-5.4-8.9-10.8-16.7-16.2-23.6V74.1z"/>
		</g>
	</g>
</g>
<g>
	<g transform="translate(879.066087, 409.608837)">
		<g>
			<path d="M343,117.2c0-4.2-1-7.4-3.1-9.8c-2-2.3-4.6-4.2-7.6-5.7c-3.1-1.5-6.4-2.8-9.9-3.9c-3.5-1.1-6.8-2.5-9.9-4.3
				c-3.1-1.8-5.6-4-7.6-6.9c-2-2.8-3-6.8-3-11.8V73c0.1-1.9,0.5-3.8,1.2-5.8c0.7-2,1.6-4,2.7-5.9c1.1-1.9,2.4-3.6,3.8-5.1
				c1.4-1.5,2.8-2.7,4.4-3.5c0.8-0.5,2.2-0.9,4.1-1.4c1.9-0.5,4.1-0.9,6.4-1.2c2.4-0.3,4.8-0.6,7.4-0.9c2.6-0.2,4.9-0.4,7-0.4
				c4.1,0,7.7,0.5,11,1.6c3.3,1,5.1,2.8,5.3,5.4V57c0,2.4-0.8,4.1-2.4,4.9c-1.6,0.8-3.7,1.2-6.1,1.2c-1.3,0-2.8-0.1-4.4-0.2
				c-1.7-0.1-3.4-0.3-5.1-0.4c-1.7-0.2-3.4-0.3-5-0.4c-1.6-0.1-3-0.2-4-0.2c-1.5,0-2.5,0.1-3.1,0.4c-1.9,0.6-3.3,2-4.4,4.3
				c-1,2.3-1.6,4.7-1.6,7.4c0,3,1,5.4,3,7.2c2,1.8,4.4,3.4,7.3,4.8c2.9,1.4,6.1,2.8,9.6,4.2c3.5,1.4,6.7,3.3,9.6,5.6
				c2.9,2.3,5.3,5.3,7.3,9c2,3.7,3,8.4,3,14.4c0,2-0.2,3.8-0.7,5.5c-0.5,1.7-1.3,3.2-2.4,4.6c-1.1,1.3-2.7,2.4-4.9,3.4
				c-2.2,1-4.6,1.8-7.2,2.4c-2.6,0.6-5.3,1-8.1,1.3c-2.8,0.3-5.3,0.4-7.7,0.4c-0.7,0-2.6-0.3-5.8-0.8c-3.1-0.5-6.4-1.2-9.9-2.1
				c-3.5-0.9-6.6-1.9-9.4-3.1c-2.8-1.2-4.2-2.6-4.2-4.1c0-1.9,0.3-3.3,1-4.3c0.7-1,1.6-1.7,2.7-2.2c1.1-0.5,2.3-0.8,3.6-0.9
				c1.3-0.1,2.6-0.2,3.9-0.2h0.7c0.7,0,1.7,0.2,3.1,0.7c1.4,0.5,3,1,4.9,1.6c1.9,0.6,3.9,1.1,6,1.6c2.1,0.5,4.3,0.7,6.5,0.7
				c0.5,0,1.4-0.1,2.7-0.4c1.3-0.2,2.7-0.6,4.1-1.1c1.4-0.5,2.6-1.2,3.7-2C342.4,119.2,343,118.3,343,117.2z"/>
		</g>
	</g>
</g>
<g>
	<g transform="translate(933.213897, 409.608837)">
		<g>
			<path d="M379.1,97c-3.1-0.8-6.4-1.2-9.9-1.2c-5.1,0-10,0.6-14.7,1.9c-4.7,1.3-9.1,2.4-13.3,3.3c-0.1,0.6-0.2,1.2-0.2,1.8
				c0,0.6,0,1.3,0,1.8c0,3.3,0.2,6.5,0.7,9.7c0.5,3.2,0.7,6.3,0.7,9.3c0,2.2-0.3,4.3-0.8,6.4c-0.5,2-1.4,3.9-2.7,5.5
				c-0.9,0.2-2.1,0.5-3.4,0.9c-1.3,0.3-2.7,0.5-4.1,0.5c-2.2,0-3.8-0.5-4.9-1.6c-0.8-0.7-1.3-1.7-1.6-3c-0.2-1.3-0.4-2.7-0.4-4.4
				c0-1.7,0.1-3.6,0.3-5.6c0.2-2,0.3-4,0.3-5.8v-1.4c-0.2-4.1-0.3-8.3-0.3-12.8c0-4.5-0.1-9-0.3-13.6c-0.2-4.6-0.5-9.1-0.9-13.6
				c-0.4-4.5-1-8.7-1.8-12.8c-0.2-1.3-0.6-2.5-1.2-3.7c-0.6-1.2-0.9-2.4-0.9-3.4c0.3-2,1.5-3.6,3.6-4.8c2-1.2,4.2-1.8,6.5-1.8
				c1.4,0,2.8,0.3,4.4,0.9c1.3,0.6,2.3,1.6,3.1,3c0.8,1.4,1.4,3.1,1.8,5c0.4,2,0.7,4.2,0.9,6.6c0.2,2.4,0.3,4.9,0.3,7.3
				c0,1,0,1.8,0,2.3c0,0.5,0,0.9-0.1,1.3c-0.1,0.4-0.1,0.8-0.1,1.3c0,0.5,0,1.1,0,1.9c0,1.8,0.1,3.4,0.2,4.9
				c0.1,1.5,0.3,2.7,0.5,3.6c5.9-0.8,11.6-1.8,17-2.9c5.4-1.1,11.3-1.7,17.8-1.7c0.7,0,1.4,0,2,0.1c0.6,0.1,1.3,0.1,2,0.1
				c0-1.9,0-3.7,0.1-5.5c0.1-1.8,0.1-3.6,0.1-5.5c0-1.2,0-2.1,0-2.9s-0.1-1.4-0.2-2c-0.1-0.6-0.2-1.3-0.4-2c-0.1-0.7-0.3-1.8-0.5-3
				c-0.1-0.9-0.3-1.9-0.5-2.8c-0.2-0.9-0.3-1.9-0.3-2.8c0-0.9,0.1-1.5,0.3-1.9c0.6-1.3,1.9-2.3,4-3.1c2.1-0.8,4.3-1.2,6.5-1.2
				c2.1,0,3.7,0.4,4.9,1.2c1.4,1.2,2.3,3.4,2.6,6.8c0.3,3.4,0.5,7.1,0.5,11.1c0,3.6-0.2,7.5-0.5,11.7c-0.3,4.2-0.5,8.5-0.5,12.9v1.9
				c0.1,3.1,0.4,6,0.8,8.5c0.4,2.6,0.7,5,1,7.3c0.7,5.7,1.2,11.4,1.6,17c0,2.4-1.2,4.4-3.6,5.8c-2.4,1.4-4.8,2.2-7.2,2.2
				c-0.9,0-1.8-0.1-2.5-0.3c-0.8-0.2-1.4-0.6-2-1.1c-0.8-0.6-1.4-1.6-1.6-3.2c-0.3-1.6-0.5-3.3-0.6-5.1c-0.1-1.9-0.2-3.8-0.2-5.7
				c0-1.9-0.1-3.5-0.2-4.8c-0.2-3.7-0.6-7-1-9.8C379.6,103.3,379.3,100.3,379.1,97z"/>
		</g>
	</g>
</g>
<g>
	<g transform="translate(1005.628398, 409.608837)">
		<g>
			<path d="M363.2,132.2c-0.9,1.4-2.4,2.6-4.3,3.5c-1.9,0.9-3.9,1.4-5.8,1.4c-1.3,0-2.5-0.2-3.6-0.5c-1.1-0.3-2.1-1-3-1.9
				c-0.5-1.5-0.7-3.4-0.7-5.7c0-2.3,0.1-4.7,0.4-7.2c0.3-2.5,0.4-5.1,0.4-7.8c-0.1-9.7-0.6-19.8-1.3-30.3
				c-0.8-10.4-1.2-20.6-1.5-30.5c0.9-1.3,2.4-2.3,4.6-3.2c2.2-0.9,4.3-1.3,6.4-1.3c2.9,0,5,0.9,6.3,2.6c0.5,0.6,0.8,1.3,0.9,2.2
				c0.1,0.9,0.2,1.8,0.2,2.9c0,1.6-0.1,3.3-0.3,5.1c-0.2,1.7-0.3,3.5-0.3,5.2V69c0,8.6,0.3,17.1,0.9,25.6c0.6,8.5,0.9,17.2,0.9,26.3
				c0,2,0,3.9,0,5.7C363.4,128.3,363.3,130.2,363.2,132.2z"/>
		</g>
	</g>
</g>
<g>
	<g transform="translate(1033.289453, 409.608837)">
		<g>
			<path d="M371.7,104.2c-0.1,0.7-0.2,1.4-0.2,2.1c0,0.7,0,1.4,0,2.3c0,1.3,0,2.3,0.1,3c0.1,0.7,0.1,1.4,0.1,2c0,0.6,0,1.3,0.1,2
				c0.1,0.7,0.1,1.7,0.1,3.1c0,0.8,0,1.6,0,2.4c0,0.8-0.1,1.5-0.2,2.2c-0.1,1.5-0.2,3.1-0.2,4.6c0,1.6-0.2,2.8-0.7,3.7
				c-1.7,3.4-4.9,5-9.6,5c-1.6,0-3.3-0.3-5-0.9c-0.8-1.2-1.4-2.3-1.7-3.6c-0.3-1.2-0.4-2.5-0.4-3.9c0-1.3,0.1-2.6,0.3-4
				c0.2-1.4,0.3-2.7,0.4-4c0.3-3.1,0.5-5.7,0.5-7.6c0-1.8-0.1-3.5-0.2-5.3c-0.1-1.8-0.2-4.1-0.2-6.9c0-6.5-0.1-12.9-0.4-19.1
				c-0.3-6.3-0.7-12.1-1.3-17.4c-0.1-0.3-0.2-0.9-0.2-1.7c0-0.9,0.1-1.8,0.2-2.5c0.1-0.8,0.2-1.6,0.2-2.5c0-0.6,0.1-1,0.2-1.2
				c1.3-4.6,4.3-7,9-7h3.6c3.7,0,7.7-0.1,11.8-0.3c4.2-0.2,8.1-0.3,11.8-0.3c0.8,0,1.6,0,2.3,0c0.7,0,1.4,0.1,2.1,0.4
				c6.3,1.4,10.9,4.3,13.8,8.6c3,4.3,4.5,9.5,4.6,15.4v0.9c0,5.9-1.3,10.7-3.9,14.4c-2.6,3.7-5.9,6.7-9.9,8.9
				c-4,2.2-8.4,3.8-13.2,4.8C380.9,102.7,376.3,103.5,371.7,104.2z M396.1,77.6c0.2-1.2,0.4-2,0.4-2.6c0-1.6-0.2-3.3-0.7-4.9
				c-0.5-1.6-1-2.9-1.6-3.8c-1-1.6-2.4-2.8-4.1-3.4c-1.7-0.6-3.6-1-5.6-1c-2.2,0-4.5,0.3-6.8,0.9c-2.3,0.6-4.5,1.2-6.4,1.8
				c-0.3,5.2-0.5,10.4-0.5,15.5c0,2,0,3.9,0.1,5.8c0.1,1.9,0.1,3.7,0.1,5.5c2.8-0.2,5.5-0.6,8.3-1c2.7-0.5,5.2-1.2,7.6-2.3
				c2.3-1,4.3-2.4,5.9-4S395.4,80.2,396.1,77.6z"/>
		</g>
	</g>
</g>
</svg>
