<svg xmlns="http://www.w3.org/2000/svg" xmlns:xlink="http://www.w3.org/1999/xlink" width="1920" zoomAndPan="magnify" viewBox="0 0 1440 809.999993" height="1080" preserveAspectRatio="xMidYMid meet" version="1.0"><defs><g><g id="id1"/></g><clipPath id="id2"><path d="M 332.429688 232.285156 L 473 232.285156 L 473 421.285156 L 332.429688 421.285156 Z M 332.429688 232.285156 " clip-rule="nonzero"/></clipPath></defs><path fill="rgb(0%, 0%, 0%)" d="M 373.488281 317.878906 C 372.402344 317.007812 370.664062 317.226562 369.578125 318.3125 L 360.453125 329.609375 L 357.628906 327.003906 C 356.542969 325.917969 354.804688 325.917969 353.71875 327.003906 C 352.632812 328.089844 352.632812 329.828125 353.71875 330.914062 C 353.71875 330.914062 358.933594 335.691406 358.933594 335.691406 C 360.238281 336.777344 362.191406 336.34375 362.84375 335.476562 L 373.707031 321.789062 C 374.792969 320.484375 375.226562 319.183594 373.488281 317.878906 Z M 373.488281 317.878906 " fill-opacity="1" fill-rule="nonzero"/><g clip-path="url(#id2)"><path fill="rgb(0%, 0%, 0%)" d="M 469.507812 343.949219 C 467.988281 343.949219 466.902344 345.25 466.902344 346.554688 L 466.902344 415.855469 L 338.078125 415.855469 L 338.078125 237.714844 L 427.800781 237.714844 L 427.800781 273.777344 C 427.800781 275.300781 428.886719 276.601562 430.40625 276.601562 L 466.46875 276.601562 L 466.46875 280.078125 C 466.46875 281.597656 467.773438 282.683594 469.074219 282.683594 C 470.378906 282.683594 471.683594 281.382812 471.683594 280.078125 L 471.683594 273.777344 C 471.683594 273.125 471.464844 272.476562 470.8125 271.824219 L 432.578125 233.15625 C 432.144531 232.503906 431.273438 232.285156 430.625 232.285156 L 335.472656 232.285156 C 333.949219 232.285156 332.863281 233.589844 332.863281 234.890625 L 332.863281 418.679688 C 332.863281 420.199219 334.167969 421.285156 335.472656 421.285156 L 469.507812 421.285156 C 471.03125 421.285156 472.117188 419.980469 472.117188 418.679688 L 472.117188 346.554688 C 472.117188 345.035156 471.03125 343.949219 469.507812 343.949219 Z M 469.507812 343.949219 " fill-opacity="1" fill-rule="nonzero"/></g><path fill="rgb(0%, 0%, 0%)" d="M 453 288.550781 C 453 287.03125 451.695312 285.945312 450.390625 285.945312 L 385.65625 285.945312 C 384.132812 285.945312 383.046875 287.246094 383.046875 288.550781 C 383.046875 289.855469 384.351562 291.15625 385.65625 291.15625 L 450.390625 291.15625 C 451.914062 291.375 453 290.070312 453 288.550781 Z M 453 288.550781 " fill-opacity="1" fill-rule="nonzero"/><path fill="rgb(0%, 0%, 0%)" d="M 385.65625 299.847656 C 384.132812 299.847656 383.046875 301.152344 383.046875 302.453125 C 383.046875 303.757812 384.351562 305.0625 385.65625 305.0625 L 432.144531 305.0625 C 433.664062 305.0625 434.75 303.757812 434.75 302.453125 C 434.75 301.152344 433.664062 299.847656 432.144531 299.847656 Z M 385.65625 299.847656 " fill-opacity="1" fill-rule="nonzero"/><path fill="rgb(0%, 0%, 0%)" d="M 373.488281 282.035156 C 372.402344 281.164062 370.664062 281.382812 369.578125 282.46875 L 360.453125 293.765625 L 357.628906 291.15625 C 356.542969 290.070312 354.804688 290.070312 353.71875 291.15625 C 352.632812 292.242188 352.632812 293.980469 353.71875 295.066406 C 353.71875 295.066406 358.933594 299.847656 358.933594 299.847656 C 360.238281 300.933594 362.191406 300.5 362.84375 299.628906 L 373.707031 285.945312 C 374.792969 284.640625 375.007812 283.335938 373.488281 282.035156 Z M 373.488281 282.035156 " fill-opacity="1" fill-rule="nonzero"/><path fill="rgb(0%, 0%, 0%)" d="M 373.488281 352.417969 C 372.402344 351.550781 370.664062 351.769531 369.578125 352.855469 L 360.453125 364.152344 L 357.628906 361.542969 C 356.542969 360.457031 354.804688 360.457031 353.71875 361.542969 C 352.632812 362.628906 352.632812 364.367188 353.71875 365.453125 C 353.71875 365.453125 358.933594 370.234375 358.933594 370.234375 C 360.238281 371.320312 362.191406 370.886719 362.84375 370.015625 L 373.707031 356.332031 C 374.792969 355.242188 375.007812 353.722656 373.488281 352.417969 Z M 373.488281 352.417969 " fill-opacity="1" fill-rule="nonzero"/><path fill="rgb(0%, 0%, 0%)" d="M 519.476562 281.597656 L 511.65625 275.515625 L 516.867188 268.78125 C 517.953125 267.480469 519.039062 265.304688 516.652344 263.351562 L 505.355469 254.445312 C 503.617188 252.921875 500.792969 252.921875 499.273438 254.878906 L 494.058594 261.613281 C 493.625 261.394531 492.972656 261.179688 492.539062 261.394531 C 491.886719 261.394531 491.234375 261.832031 490.800781 262.480469 L 481.675781 274.214844 C 481.023438 275.300781 481.023438 276.601562 481.675781 277.472656 L 447.351562 321.136719 L 385.65625 321.136719 C 384.132812 321.136719 383.046875 322.441406 383.046875 323.742188 C 383.046875 325.046875 384.351562 326.351562 385.65625 326.351562 L 443.007812 326.351562 L 436.488281 334.824219 L 385.65625 334.824219 C 384.132812 334.824219 383.046875 336.125 383.046875 337.429688 C 383.046875 338.734375 384.351562 340.039062 385.65625 340.039062 L 432.359375 340.039062 L 419.976562 356.332031 L 385.65625 356.332031 C 384.132812 356.332031 383.046875 357.632812 383.046875 358.9375 C 383.046875 360.242188 384.351562 361.542969 385.65625 361.542969 L 415.632812 361.542969 L 410.203125 368.496094 C 410.203125 368.496094 409.984375 369.148438 409.769531 370.015625 L 385.65625 370.015625 C 384.132812 370.015625 383.046875 371.320312 383.046875 372.625 C 383.046875 373.925781 384.351562 375.230469 385.65625 375.230469 L 408.03125 375.230469 C 405.859375 382.183594 403.035156 391.957031 403.035156 391.957031 C 402.597656 393.042969 403.035156 394.347656 403.902344 395 C 404.773438 395.652344 406.074219 395.652344 406.945312 395.214844 C 406.945312 395.214844 427.582031 382.832031 428.015625 382.398438 L 499.054688 290.941406 C 499.488281 291.15625 499.921875 291.375 500.574219 291.375 C 501.445312 291.375 502.3125 290.941406 502.746094 290.289062 L 510.132812 280.730469 L 514.042969 283.773438 L 491.886719 312.664062 C 491.015625 313.96875 491.234375 315.488281 492.320312 316.574219 C 493.40625 317.660156 495.144531 317.226562 496.230469 316.140625 L 520.125 285.507812 C 520.996094 284.207031 520.5625 282.46875 519.476562 281.597656 Z M 410.203125 387.179688 L 414.113281 374.144531 C 415.632812 375.011719 416.9375 375.882812 418.242188 376.75 C 419.542969 377.835938 420.847656 378.921875 421.933594 380.007812 Z M 500.140625 285.292969 L 487.324219 275.300781 L 492.753906 268.347656 L 505.570312 278.339844 Z M 500.140625 285.292969 " fill-opacity="1" fill-rule="nonzero"/><g fill="rgb(0%, 0%, 0%)" fill-opacity="1"><g transform="translate(521.42986, 309.858842)"><g><path d="M 34.1875 -55.328125 C 34.101562 -53.066406 34.035156 -50.738281 33.984375 -48.34375 C 33.941406 -45.945312 33.921875 -43.488281 33.921875 -40.96875 C 33.921875 -34.269531 34.007812 -27.984375 34.1875 -22.109375 C 34.363281 -16.242188 34.492188 -10.003906 34.578125 -3.390625 C 33.972656 -2.429688 32.863281 -1.625 31.25 -0.96875 C 29.644531 -0.320312 28.054688 0 26.484375 0 C 25.359375 0 24.335938 -0.21875 23.421875 -0.65625 C 22.503906 -1.09375 21.875 -1.785156 21.53125 -2.734375 C 21.269531 -3.347656 21.140625 -4.046875 21.140625 -4.828125 C 21.140625 -5.609375 21.203125 -6.410156 21.328125 -7.234375 C 21.460938 -8.066406 21.53125 -8.960938 21.53125 -9.921875 C 21.445312 -13.484375 21.40625 -17.242188 21.40625 -21.203125 C 21.40625 -25.160156 21.378906 -29.097656 21.328125 -33.015625 C 21.285156 -36.929688 21.222656 -40.734375 21.140625 -44.421875 C 21.054688 -48.117188 20.925781 -51.492188 20.75 -54.546875 C 20.3125 -54.628906 19.875 -54.671875 19.4375 -54.671875 C 19.007812 -54.671875 18.578125 -54.671875 18.140625 -54.671875 C 17.179688 -54.671875 16.179688 -54.648438 15.140625 -54.609375 C 14.097656 -54.566406 13.050781 -54.546875 12 -54.546875 C 10.957031 -54.546875 9.867188 -54.585938 8.734375 -54.671875 C 7.609375 -54.753906 6.585938 -54.945312 5.671875 -55.25 C 4.765625 -55.5625 4.023438 -56 3.453125 -56.5625 C 2.890625 -57.125 2.609375 -57.882812 2.609375 -58.84375 C 2.609375 -60.5 3.148438 -61.804688 4.234375 -62.765625 C 5.328125 -63.722656 6.765625 -64.394531 8.546875 -64.78125 C 10.328125 -65.175781 12.328125 -65.414062 14.546875 -65.5 C 16.765625 -65.59375 19.003906 -65.640625 21.265625 -65.640625 C 25.179688 -65.640625 29.140625 -65.484375 33.140625 -65.171875 C 37.140625 -64.867188 40.796875 -64.71875 44.109375 -64.71875 L 49.0625 -64.71875 C 50.800781 -64.71875 52.320312 -64.457031 53.625 -63.9375 C 54.9375 -63.414062 55.632812 -62.15625 55.71875 -60.15625 L 55.71875 -59.234375 C 55.71875 -57.234375 54.847656 -55.90625 53.109375 -55.25 C 51.367188 -54.601562 49.28125 -54.28125 46.84375 -54.28125 C 44.582031 -54.28125 42.296875 -54.429688 39.984375 -54.734375 C 37.679688 -55.035156 35.75 -55.234375 34.1875 -55.328125 Z M 34.1875 -55.328125 "/></g></g></g><g fill="rgb(0%, 0%, 0%)" fill-opacity="1"><g transform="translate(579.752897, 309.858842)"><g><path d="M 51.015625 -29.625 C 48.671875 -30.226562 46.191406 -30.53125 43.578125 -30.53125 C 39.753906 -30.53125 36.078125 -30.050781 32.546875 -29.09375 C 29.023438 -28.132812 25.703125 -27.3125 22.578125 -26.625 C 22.484375 -26.1875 22.4375 -25.726562 22.4375 -25.25 C 22.4375 -24.769531 22.4375 -24.3125 22.4375 -23.875 C 22.4375 -21.4375 22.609375 -19.019531 22.953125 -16.625 C 23.304688 -14.238281 23.484375 -11.914062 23.484375 -9.65625 C 23.484375 -8 23.285156 -6.410156 22.890625 -4.890625 C 22.503906 -3.367188 21.832031 -2 20.875 -0.78125 C 20.175781 -0.601562 19.328125 -0.382812 18.328125 -0.125 C 17.328125 0.132812 16.304688 0.265625 15.265625 0.265625 C 13.609375 0.265625 12.390625 -0.125 11.609375 -0.90625 C 11.003906 -1.4375 10.613281 -2.175781 10.4375 -3.125 C 10.257812 -4.082031 10.171875 -5.171875 10.171875 -6.390625 C 10.171875 -7.691406 10.234375 -9.101562 10.359375 -10.625 C 10.492188 -12.15625 10.5625 -13.613281 10.5625 -15 L 10.5625 -16.046875 C 10.394531 -19.085938 10.3125 -22.28125 10.3125 -25.625 C 10.3125 -28.976562 10.242188 -32.375 10.109375 -35.8125 C 9.984375 -39.25 9.765625 -42.640625 9.453125 -45.984375 C 9.148438 -49.335938 8.695312 -52.539062 8.09375 -55.59375 C 7.914062 -56.539062 7.609375 -57.472656 7.171875 -58.390625 C 6.742188 -59.304688 6.53125 -60.15625 6.53125 -60.9375 C 6.789062 -62.414062 7.679688 -63.609375 9.203125 -64.515625 C 10.722656 -65.429688 12.351562 -65.890625 14.09375 -65.890625 C 15.132812 -65.890625 16.222656 -65.671875 17.359375 -65.234375 C 18.316406 -64.804688 19.097656 -64.066406 19.703125 -63.015625 C 20.304688 -61.972656 20.757812 -60.710938 21.0625 -59.234375 C 21.375 -57.753906 21.59375 -56.101562 21.71875 -54.28125 C 21.851562 -52.457031 21.921875 -50.628906 21.921875 -48.796875 C 21.921875 -48.015625 21.921875 -47.445312 21.921875 -47.09375 C 21.921875 -46.75 21.898438 -46.425781 21.859375 -46.125 C 21.816406 -45.820312 21.796875 -45.492188 21.796875 -45.140625 C 21.796875 -44.796875 21.796875 -44.320312 21.796875 -43.71875 C 21.796875 -42.40625 21.835938 -41.179688 21.921875 -40.046875 C 22.003906 -38.921875 22.132812 -38.007812 22.3125 -37.3125 C 26.75 -37.925781 30.988281 -38.644531 35.03125 -39.46875 C 39.082031 -40.300781 43.539062 -40.71875 48.40625 -40.71875 C 48.925781 -40.71875 49.425781 -40.691406 49.90625 -40.640625 C 50.382812 -40.597656 50.882812 -40.578125 51.40625 -40.578125 C 51.40625 -41.972656 51.425781 -43.34375 51.46875 -44.6875 C 51.519531 -46.039062 51.546875 -47.410156 51.546875 -48.796875 C 51.546875 -49.671875 51.546875 -50.390625 51.546875 -50.953125 C 51.546875 -51.515625 51.5 -52.015625 51.40625 -52.453125 C 51.320312 -52.890625 51.234375 -53.390625 51.140625 -53.953125 C 51.054688 -54.515625 50.929688 -55.273438 50.765625 -56.234375 C 50.671875 -56.929688 50.535156 -57.628906 50.359375 -58.328125 C 50.191406 -59.023438 50.109375 -59.722656 50.109375 -60.421875 C 50.109375 -61.109375 50.191406 -61.582031 50.359375 -61.84375 C 50.796875 -62.800781 51.796875 -63.582031 53.359375 -64.1875 C 54.929688 -64.800781 56.546875 -65.109375 58.203125 -65.109375 C 59.765625 -65.109375 60.976562 -64.804688 61.84375 -64.203125 C 62.894531 -63.328125 63.550781 -61.628906 63.8125 -59.109375 C 64.070312 -56.585938 64.203125 -53.804688 64.203125 -50.765625 C 64.203125 -48.066406 64.070312 -45.148438 63.8125 -42.015625 C 63.550781 -38.878906 63.421875 -35.660156 63.421875 -32.359375 L 63.421875 -30.921875 C 63.503906 -28.578125 63.695312 -26.445312 64 -24.53125 C 64.300781 -22.613281 64.539062 -20.785156 64.71875 -19.046875 C 65.238281 -14.785156 65.628906 -10.523438 65.890625 -6.265625 C 65.890625 -4.429688 65 -2.972656 63.21875 -1.890625 C 61.4375 -0.804688 59.628906 -0.265625 57.796875 -0.265625 C 57.109375 -0.265625 56.476562 -0.328125 55.90625 -0.453125 C 55.34375 -0.585938 54.84375 -0.875 54.40625 -1.3125 C 53.800781 -1.738281 53.390625 -2.539062 53.171875 -3.71875 C 52.953125 -4.894531 52.796875 -6.175781 52.703125 -7.5625 C 52.617188 -8.957031 52.578125 -10.375 52.578125 -11.8125 C 52.578125 -13.25 52.535156 -14.441406 52.453125 -15.390625 C 52.273438 -18.179688 52.035156 -20.640625 51.734375 -22.765625 C 51.429688 -24.898438 51.191406 -27.1875 51.015625 -29.625 Z M 51.015625 -29.625 "/></g></g></g><g fill="rgb(0%, 0%, 0%)" fill-opacity="1"><g transform="translate(652.167398, 309.858842)"><g><path d="M 46.453125 -1.703125 C 45.234375 -6.128906 44.1875 -10.410156 43.3125 -14.546875 C 42.445312 -18.679688 41.273438 -22.878906 39.796875 -27.140625 C 38.753906 -26.703125 37.578125 -26.414062 36.265625 -26.28125 C 34.960938 -26.15625 33.570312 -26.09375 32.09375 -26.09375 C 30.789062 -26.09375 29.460938 -26.113281 28.109375 -26.15625 C 26.765625 -26.207031 25.441406 -26.234375 24.140625 -26.234375 L 23.09375 -26.234375 C 21.351562 -22.578125 19.875 -18.660156 18.65625 -14.484375 C 17.4375 -10.304688 16.21875 -6.128906 15 -1.953125 C 14.65625 -1.253906 13.804688 -0.6875 12.453125 -0.25 C 11.109375 0.175781 9.695312 0.390625 8.21875 0.390625 C 6.738281 0.390625 5.429688 0.109375 4.296875 -0.453125 C 3.171875 -1.023438 2.609375 -2.003906 2.609375 -3.390625 C 2.609375 -4.609375 2.828125 -5.957031 3.265625 -7.4375 C 3.703125 -8.914062 4.222656 -10.394531 4.828125 -11.875 C 5.429688 -13.351562 6.082031 -14.832031 6.78125 -16.3125 C 7.476562 -17.789062 8.046875 -19.140625 8.484375 -20.359375 L 9.921875 -24.015625 C 11.046875 -26.972656 12.195312 -29.734375 13.375 -32.296875 C 14.550781 -34.859375 15.722656 -37.398438 16.890625 -39.921875 C 18.066406 -42.453125 19.242188 -45.019531 20.421875 -47.625 C 21.597656 -50.238281 22.835938 -53.066406 24.140625 -56.109375 C 24.742188 -57.585938 25.328125 -59.128906 25.890625 -60.734375 C 26.460938 -62.347656 27.007812 -63.457031 27.53125 -64.0625 C 28.144531 -64.757812 28.90625 -65.238281 29.8125 -65.5 C 30.726562 -65.757812 31.707031 -65.890625 32.75 -65.890625 C 34.664062 -65.890625 36.535156 -65.539062 38.359375 -64.84375 C 39.835938 -62.582031 40.878906 -60.273438 41.484375 -57.921875 C 42.097656 -55.578125 42.882812 -53.054688 43.84375 -50.359375 C 44.707031 -47.835938 45.679688 -45.316406 46.765625 -42.796875 C 47.859375 -40.273438 48.753906 -37.664062 49.453125 -34.96875 C 50.148438 -32.269531 50.820312 -29.742188 51.46875 -27.390625 C 52.125 -25.046875 52.800781 -22.765625 53.5 -20.546875 C 54.195312 -18.328125 54.914062 -16.085938 55.65625 -13.828125 C 56.394531 -11.566406 57.242188 -9.21875 58.203125 -6.78125 C 58.285156 -6.519531 58.347656 -6.257812 58.390625 -6 C 58.429688 -5.738281 58.453125 -5.390625 58.453125 -4.953125 C 58.453125 -3.992188 58.28125 -3.125 57.9375 -2.34375 C 57.0625 -1.65625 56.015625 -1.09375 54.796875 -0.65625 C 53.585938 -0.21875 52.375 0 51.15625 0 C 49.414062 0 47.847656 -0.566406 46.453125 -1.703125 Z M 32.875 -50.109375 C 31.832031 -47.847656 30.832031 -45.648438 29.875 -43.515625 C 28.925781 -41.378906 28.101562 -39.050781 27.40625 -36.53125 C 28.882812 -36.363281 30.316406 -36.234375 31.703125 -36.140625 C 33.097656 -36.054688 34.445312 -36.015625 35.75 -36.015625 L 37.0625 -36.015625 C 36.539062 -38.535156 35.929688 -40.945312 35.234375 -43.25 C 34.535156 -45.5625 33.75 -47.847656 32.875 -50.109375 Z M 32.875 -50.109375 "/></g></g></g><g fill="rgb(0%, 0%, 0%)" fill-opacity="1"><g transform="translate(713.230437, 309.858842)"><g><path d="M 62.109375 -0.65625 C 58.972656 -8.476562 56.335938 -16.171875 54.203125 -23.734375 C 52.078125 -31.304688 49.625 -39.097656 46.84375 -47.109375 C 45.707031 -45.972656 44.789062 -44.597656 44.09375 -42.984375 C 43.40625 -41.378906 42.710938 -39.835938 42.015625 -38.359375 C 41.316406 -36.878906 40.554688 -35.617188 39.734375 -34.578125 C 38.910156 -33.535156 37.84375 -33.015625 36.53125 -33.015625 C 35.3125 -33.015625 34.179688 -33.296875 33.140625 -33.859375 C 32.097656 -34.421875 31.117188 -35.132812 30.203125 -36 C 29.296875 -36.875 28.425781 -37.832031 27.59375 -38.875 C 26.769531 -39.925781 26.007812 -40.929688 25.3125 -41.890625 L 24.015625 -43.578125 C 23.753906 -41.753906 23.40625 -39.710938 22.96875 -37.453125 C 22.53125 -35.191406 22.050781 -32.863281 21.53125 -30.46875 C 21.007812 -28.070312 20.460938 -25.675781 19.890625 -23.28125 C 19.328125 -20.894531 18.785156 -18.742188 18.265625 -16.828125 C 17.828125 -15.179688 17.410156 -13.421875 17.015625 -11.546875 C 16.628906 -9.679688 16.109375 -7.941406 15.453125 -6.328125 C 14.804688 -4.722656 13.984375 -3.332031 12.984375 -2.15625 C 11.984375 -0.976562 10.65625 -0.257812 9 0 C 8.832031 0 8.660156 0.0195312 8.484375 0.0625 C 8.304688 0.101562 8.128906 0.125 7.953125 0.125 C 6.734375 0.125 5.710938 -0.15625 4.890625 -0.71875 C 4.066406 -1.28125 3.304688 -2 2.609375 -2.875 L 3.125 -4.953125 C 4.601562 -10.785156 6.144531 -17.332031 7.75 -24.59375 C 9.363281 -31.851562 10.648438 -39.050781 11.609375 -46.1875 L 11.875 -47.890625 C 12.132812 -50.066406 12.457031 -52.21875 12.84375 -54.34375 C 13.238281 -56.476562 13.785156 -58.347656 14.484375 -59.953125 C 15.179688 -61.566406 16.160156 -62.875 17.421875 -63.875 C 18.679688 -64.875 20.3125 -65.375 22.3125 -65.375 C 22.65625 -65.375 23.023438 -65.375 23.421875 -65.375 C 23.816406 -65.375 24.226562 -65.328125 24.65625 -65.234375 C 25.789062 -64.453125 26.789062 -63.453125 27.65625 -62.234375 C 28.53125 -61.023438 29.359375 -59.765625 30.140625 -58.453125 C 30.921875 -57.148438 31.679688 -55.820312 32.421875 -54.46875 C 33.160156 -53.125 33.96875 -51.929688 34.84375 -50.890625 C 35.800781 -52.285156 36.78125 -53.828125 37.78125 -55.515625 C 38.78125 -57.210938 39.863281 -58.820312 41.03125 -60.34375 C 42.207031 -61.863281 43.554688 -63.125 45.078125 -64.125 C 46.597656 -65.132812 48.40625 -65.640625 50.5 -65.640625 C 51.882812 -65.640625 52.945312 -65.460938 53.6875 -65.109375 C 54.425781 -64.765625 54.992188 -64.265625 55.390625 -63.609375 C 55.785156 -62.953125 56.085938 -62.144531 56.296875 -61.1875 C 56.515625 -60.238281 56.753906 -59.15625 57.015625 -57.9375 C 57.453125 -56.101562 58.101562 -54.054688 58.96875 -51.796875 C 59.84375 -49.535156 60.71875 -47.1875 61.59375 -44.75 C 62.632812 -41.707031 63.65625 -38.578125 64.65625 -35.359375 C 65.65625 -32.140625 66.65625 -28.921875 67.65625 -25.703125 C 68.65625 -22.484375 69.675781 -19.375 70.71875 -16.375 C 71.757812 -13.375 72.847656 -10.613281 73.984375 -8.09375 C 74.242188 -7.394531 74.375 -6.785156 74.375 -6.265625 C 74.375 -5.304688 74.09375 -4.4375 73.53125 -3.65625 C 72.96875 -2.875 72.226562 -2.21875 71.3125 -1.6875 C 70.394531 -1.164062 69.390625 -0.753906 68.296875 -0.453125 C 67.210938 -0.148438 66.148438 0 65.109375 0 C 63.984375 0 62.984375 -0.21875 62.109375 -0.65625 Z M 62.109375 -0.65625 "/></g></g></g><g fill="rgb(0%, 0%, 0%)" fill-opacity="1"><g transform="translate(790.211622, 309.858842)"><g><path d="M 62.109375 -0.65625 C 58.972656 -8.476562 56.335938 -16.171875 54.203125 -23.734375 C 52.078125 -31.304688 49.625 -39.097656 46.84375 -47.109375 C 45.707031 -45.972656 44.789062 -44.597656 44.09375 -42.984375 C 43.40625 -41.378906 42.710938 -39.835938 42.015625 -38.359375 C 41.316406 -36.878906 40.554688 -35.617188 39.734375 -34.578125 C 38.910156 -33.535156 37.84375 -33.015625 36.53125 -33.015625 C 35.3125 -33.015625 34.179688 -33.296875 33.140625 -33.859375 C 32.097656 -34.421875 31.117188 -35.132812 30.203125 -36 C 29.296875 -36.875 28.425781 -37.832031 27.59375 -38.875 C 26.769531 -39.925781 26.007812 -40.929688 25.3125 -41.890625 L 24.015625 -43.578125 C 23.753906 -41.753906 23.40625 -39.710938 22.96875 -37.453125 C 22.53125 -35.191406 22.050781 -32.863281 21.53125 -30.46875 C 21.007812 -28.070312 20.460938 -25.675781 19.890625 -23.28125 C 19.328125 -20.894531 18.785156 -18.742188 18.265625 -16.828125 C 17.828125 -15.179688 17.410156 -13.421875 17.015625 -11.546875 C 16.628906 -9.679688 16.109375 -7.941406 15.453125 -6.328125 C 14.804688 -4.722656 13.984375 -3.332031 12.984375 -2.15625 C 11.984375 -0.976562 10.65625 -0.257812 9 0 C 8.832031 0 8.660156 0.0195312 8.484375 0.0625 C 8.304688 0.101562 8.128906 0.125 7.953125 0.125 C 6.734375 0.125 5.710938 -0.15625 4.890625 -0.71875 C 4.066406 -1.28125 3.304688 -2 2.609375 -2.875 L 3.125 -4.953125 C 4.601562 -10.785156 6.144531 -17.332031 7.75 -24.59375 C 9.363281 -31.851562 10.648438 -39.050781 11.609375 -46.1875 L 11.875 -47.890625 C 12.132812 -50.066406 12.457031 -52.21875 12.84375 -54.34375 C 13.238281 -56.476562 13.785156 -58.347656 14.484375 -59.953125 C 15.179688 -61.566406 16.160156 -62.875 17.421875 -63.875 C 18.679688 -64.875 20.3125 -65.375 22.3125 -65.375 C 22.65625 -65.375 23.023438 -65.375 23.421875 -65.375 C 23.816406 -65.375 24.226562 -65.328125 24.65625 -65.234375 C 25.789062 -64.453125 26.789062 -63.453125 27.65625 -62.234375 C 28.53125 -61.023438 29.359375 -59.765625 30.140625 -58.453125 C 30.921875 -57.148438 31.679688 -55.820312 32.421875 -54.46875 C 33.160156 -53.125 33.96875 -51.929688 34.84375 -50.890625 C 35.800781 -52.285156 36.78125 -53.828125 37.78125 -55.515625 C 38.78125 -57.210938 39.863281 -58.820312 41.03125 -60.34375 C 42.207031 -61.863281 43.554688 -63.125 45.078125 -64.125 C 46.597656 -65.132812 48.40625 -65.640625 50.5 -65.640625 C 51.882812 -65.640625 52.945312 -65.460938 53.6875 -65.109375 C 54.425781 -64.765625 54.992188 -64.265625 55.390625 -63.609375 C 55.785156 -62.953125 56.085938 -62.144531 56.296875 -61.1875 C 56.515625 -60.238281 56.753906 -59.15625 57.015625 -57.9375 C 57.453125 -56.101562 58.101562 -54.054688 58.96875 -51.796875 C 59.84375 -49.535156 60.71875 -47.1875 61.59375 -44.75 C 62.632812 -41.707031 63.65625 -38.578125 64.65625 -35.359375 C 65.65625 -32.140625 66.65625 -28.921875 67.65625 -25.703125 C 68.65625 -22.484375 69.675781 -19.375 70.71875 -16.375 C 71.757812 -13.375 72.847656 -10.613281 73.984375 -8.09375 C 74.242188 -7.394531 74.375 -6.785156 74.375 -6.265625 C 74.375 -5.304688 74.09375 -4.4375 73.53125 -3.65625 C 72.96875 -2.875 72.226562 -2.21875 71.3125 -1.6875 C 70.394531 -1.164062 69.390625 -0.753906 68.296875 -0.453125 C 67.210938 -0.148438 66.148438 0 65.109375 0 C 63.984375 0 62.984375 -0.21875 62.109375 -0.65625 Z M 62.109375 -0.65625 "/></g></g></g><g fill="rgb(0%, 0%, 0%)" fill-opacity="1"><g transform="translate(867.192797, 309.858842)"><g><path d="M 46.453125 -1.703125 C 45.234375 -6.128906 44.1875 -10.410156 43.3125 -14.546875 C 42.445312 -18.679688 41.273438 -22.878906 39.796875 -27.140625 C 38.753906 -26.703125 37.578125 -26.414062 36.265625 -26.28125 C 34.960938 -26.15625 33.570312 -26.09375 32.09375 -26.09375 C 30.789062 -26.09375 29.460938 -26.113281 28.109375 -26.15625 C 26.765625 -26.207031 25.441406 -26.234375 24.140625 -26.234375 L 23.09375 -26.234375 C 21.351562 -22.578125 19.875 -18.660156 18.65625 -14.484375 C 17.4375 -10.304688 16.21875 -6.128906 15 -1.953125 C 14.65625 -1.253906 13.804688 -0.6875 12.453125 -0.25 C 11.109375 0.175781 9.695312 0.390625 8.21875 0.390625 C 6.738281 0.390625 5.429688 0.109375 4.296875 -0.453125 C 3.171875 -1.023438 2.609375 -2.003906 2.609375 -3.390625 C 2.609375 -4.609375 2.828125 -5.957031 3.265625 -7.4375 C 3.703125 -8.914062 4.222656 -10.394531 4.828125 -11.875 C 5.429688 -13.351562 6.082031 -14.832031 6.78125 -16.3125 C 7.476562 -17.789062 8.046875 -19.140625 8.484375 -20.359375 L 9.921875 -24.015625 C 11.046875 -26.972656 12.195312 -29.734375 13.375 -32.296875 C 14.550781 -34.859375 15.722656 -37.398438 16.890625 -39.921875 C 18.066406 -42.453125 19.242188 -45.019531 20.421875 -47.625 C 21.597656 -50.238281 22.835938 -53.066406 24.140625 -56.109375 C 24.742188 -57.585938 25.328125 -59.128906 25.890625 -60.734375 C 26.460938 -62.347656 27.007812 -63.457031 27.53125 -64.0625 C 28.144531 -64.757812 28.90625 -65.238281 29.8125 -65.5 C 30.726562 -65.757812 31.707031 -65.890625 32.75 -65.890625 C 34.664062 -65.890625 36.535156 -65.539062 38.359375 -64.84375 C 39.835938 -62.582031 40.878906 -60.273438 41.484375 -57.921875 C 42.097656 -55.578125 42.882812 -53.054688 43.84375 -50.359375 C 44.707031 -47.835938 45.679688 -45.316406 46.765625 -42.796875 C 47.859375 -40.273438 48.753906 -37.664062 49.453125 -34.96875 C 50.148438 -32.269531 50.820312 -29.742188 51.46875 -27.390625 C 52.125 -25.046875 52.800781 -22.765625 53.5 -20.546875 C 54.195312 -18.328125 54.914062 -16.085938 55.65625 -13.828125 C 56.394531 -11.566406 57.242188 -9.21875 58.203125 -6.78125 C 58.285156 -6.519531 58.347656 -6.257812 58.390625 -6 C 58.429688 -5.738281 58.453125 -5.390625 58.453125 -4.953125 C 58.453125 -3.992188 58.28125 -3.125 57.9375 -2.34375 C 57.0625 -1.65625 56.015625 -1.09375 54.796875 -0.65625 C 53.585938 -0.21875 52.375 0 51.15625 0 C 49.414062 0 47.847656 -0.566406 46.453125 -1.703125 Z M 32.875 -50.109375 C 31.832031 -47.847656 30.832031 -45.648438 29.875 -43.515625 C 28.925781 -41.378906 28.101562 -39.050781 27.40625 -36.53125 C 28.882812 -36.363281 30.316406 -36.234375 31.703125 -36.140625 C 33.097656 -36.054688 34.445312 -36.015625 35.75 -36.015625 L 37.0625 -36.015625 C 36.539062 -38.535156 35.929688 -40.945312 35.234375 -43.25 C 34.535156 -45.5625 33.75 -47.847656 32.875 -50.109375 Z M 32.875 -50.109375 "/></g></g></g><g fill="rgb(0%, 0%, 0%)" fill-opacity="1"><g transform="translate(928.255858, 309.858842)"><g><path d="M 37.453125 -14.484375 C 37.453125 -17.617188 36.6875 -20.054688 35.15625 -21.796875 C 33.632812 -23.535156 31.722656 -24.96875 29.421875 -26.09375 C 27.117188 -27.226562 24.640625 -28.207031 21.984375 -29.03125 C 19.328125 -29.851562 16.847656 -30.914062 14.546875 -32.21875 C 12.242188 -33.53125 10.332031 -35.25 8.8125 -37.375 C 7.289062 -39.507812 6.53125 -42.445312 6.53125 -46.1875 L 6.53125 -47.625 C 6.613281 -49.019531 6.914062 -50.476562 7.4375 -52 C 7.957031 -53.519531 8.628906 -55 9.453125 -56.4375 C 10.285156 -57.875 11.222656 -59.15625 12.265625 -60.28125 C 13.304688 -61.414062 14.394531 -62.285156 15.53125 -62.890625 C 16.132812 -63.242188 17.15625 -63.59375 18.59375 -63.9375 C 20.03125 -64.28125 21.640625 -64.582031 23.421875 -64.84375 C 25.203125 -65.101562 27.050781 -65.320312 28.96875 -65.5 C 30.882812 -65.675781 32.625 -65.765625 34.1875 -65.765625 C 37.226562 -65.765625 39.988281 -65.375 42.46875 -64.59375 C 44.945312 -63.8125 46.273438 -62.460938 46.453125 -60.546875 L 46.453125 -59.625 C 46.453125 -57.800781 45.84375 -56.582031 44.625 -55.96875 C 43.40625 -55.363281 41.882812 -55.0625 40.0625 -55.0625 C 39.101562 -55.0625 37.992188 -55.101562 36.734375 -55.1875 C 35.472656 -55.28125 34.1875 -55.390625 32.875 -55.515625 C 31.570312 -55.648438 30.3125 -55.757812 29.09375 -55.84375 C 27.875 -55.9375 26.875 -55.984375 26.09375 -55.984375 C 24.96875 -55.984375 24.1875 -55.894531 23.75 -55.71875 C 22.351562 -55.28125 21.265625 -54.210938 20.484375 -52.515625 C 19.703125 -50.816406 19.3125 -48.96875 19.3125 -46.96875 C 19.3125 -44.707031 20.050781 -42.898438 21.53125 -41.546875 C 23.007812 -40.203125 24.832031 -39.007812 27 -37.96875 C 29.175781 -36.925781 31.566406 -35.882812 34.171875 -34.84375 C 36.785156 -33.800781 39.179688 -32.40625 41.359375 -30.65625 C 43.535156 -28.914062 45.363281 -26.675781 46.84375 -23.9375 C 48.320312 -21.195312 49.0625 -17.609375 49.0625 -13.171875 C 49.0625 -11.691406 48.882812 -10.320312 48.53125 -9.0625 C 48.1875 -7.800781 47.582031 -6.648438 46.71875 -5.609375 C 45.925781 -4.648438 44.703125 -3.800781 43.046875 -3.0625 C 41.398438 -2.320312 39.597656 -1.734375 37.640625 -1.296875 C 35.679688 -0.867188 33.660156 -0.546875 31.578125 -0.328125 C 29.492188 -0.109375 27.578125 0 25.828125 0 C 25.304688 0 23.867188 -0.191406 21.515625 -0.578125 C 19.171875 -0.972656 16.691406 -1.492188 14.078125 -2.140625 C 11.472656 -2.796875 9.128906 -3.582031 7.046875 -4.5 C 4.960938 -5.414062 3.921875 -6.4375 3.921875 -7.5625 C 3.921875 -8.957031 4.179688 -10.023438 4.703125 -10.765625 C 5.222656 -11.503906 5.894531 -12.046875 6.71875 -12.390625 C 7.539062 -12.742188 8.453125 -12.960938 9.453125 -13.046875 C 10.453125 -13.128906 11.429688 -13.171875 12.390625 -13.171875 L 12.921875 -13.171875 C 13.441406 -13.171875 14.222656 -13 15.265625 -12.65625 C 16.304688 -12.3125 17.523438 -11.921875 18.921875 -11.484375 C 20.316406 -11.046875 21.816406 -10.648438 23.421875 -10.296875 C 25.023438 -9.953125 26.65625 -9.78125 28.3125 -9.78125 C 28.664062 -9.78125 29.34375 -9.867188 30.34375 -10.046875 C 31.34375 -10.222656 32.363281 -10.503906 33.40625 -10.890625 C 34.445312 -11.285156 35.378906 -11.785156 36.203125 -12.390625 C 37.035156 -13.003906 37.453125 -13.703125 37.453125 -14.484375 Z M 37.453125 -14.484375 "/></g></g></g><g fill="rgb(0%, 0%, 0%)" fill-opacity="1"><g transform="translate(982.403621, 309.858842)"><g><path d="M 46.453125 -1.703125 C 45.234375 -6.128906 44.1875 -10.410156 43.3125 -14.546875 C 42.445312 -18.679688 41.273438 -22.878906 39.796875 -27.140625 C 38.753906 -26.703125 37.578125 -26.414062 36.265625 -26.28125 C 34.960938 -26.15625 33.570312 -26.09375 32.09375 -26.09375 C 30.789062 -26.09375 29.460938 -26.113281 28.109375 -26.15625 C 26.765625 -26.207031 25.441406 -26.234375 24.140625 -26.234375 L 23.09375 -26.234375 C 21.351562 -22.578125 19.875 -18.660156 18.65625 -14.484375 C 17.4375 -10.304688 16.21875 -6.128906 15 -1.953125 C 14.65625 -1.253906 13.804688 -0.6875 12.453125 -0.25 C 11.109375 0.175781 9.695312 0.390625 8.21875 0.390625 C 6.738281 0.390625 5.429688 0.109375 4.296875 -0.453125 C 3.171875 -1.023438 2.609375 -2.003906 2.609375 -3.390625 C 2.609375 -4.609375 2.828125 -5.957031 3.265625 -7.4375 C 3.703125 -8.914062 4.222656 -10.394531 4.828125 -11.875 C 5.429688 -13.351562 6.082031 -14.832031 6.78125 -16.3125 C 7.476562 -17.789062 8.046875 -19.140625 8.484375 -20.359375 L 9.921875 -24.015625 C 11.046875 -26.972656 12.195312 -29.734375 13.375 -32.296875 C 14.550781 -34.859375 15.722656 -37.398438 16.890625 -39.921875 C 18.066406 -42.453125 19.242188 -45.019531 20.421875 -47.625 C 21.597656 -50.238281 22.835938 -53.066406 24.140625 -56.109375 C 24.742188 -57.585938 25.328125 -59.128906 25.890625 -60.734375 C 26.460938 -62.347656 27.007812 -63.457031 27.53125 -64.0625 C 28.144531 -64.757812 28.90625 -65.238281 29.8125 -65.5 C 30.726562 -65.757812 31.707031 -65.890625 32.75 -65.890625 C 34.664062 -65.890625 36.535156 -65.539062 38.359375 -64.84375 C 39.835938 -62.582031 40.878906 -60.273438 41.484375 -57.921875 C 42.097656 -55.578125 42.882812 -53.054688 43.84375 -50.359375 C 44.707031 -47.835938 45.679688 -45.316406 46.765625 -42.796875 C 47.859375 -40.273438 48.753906 -37.664062 49.453125 -34.96875 C 50.148438 -32.269531 50.820312 -29.742188 51.46875 -27.390625 C 52.125 -25.046875 52.800781 -22.765625 53.5 -20.546875 C 54.195312 -18.328125 54.914062 -16.085938 55.65625 -13.828125 C 56.394531 -11.566406 57.242188 -9.21875 58.203125 -6.78125 C 58.285156 -6.519531 58.347656 -6.257812 58.390625 -6 C 58.429688 -5.738281 58.453125 -5.390625 58.453125 -4.953125 C 58.453125 -3.992188 58.28125 -3.125 57.9375 -2.34375 C 57.0625 -1.65625 56.015625 -1.09375 54.796875 -0.65625 C 53.585938 -0.21875 52.375 0 51.15625 0 C 49.414062 0 47.847656 -0.566406 46.453125 -1.703125 Z M 32.875 -50.109375 C 31.832031 -47.847656 30.832031 -45.648438 29.875 -43.515625 C 28.925781 -41.378906 28.101562 -39.050781 27.40625 -36.53125 C 28.882812 -36.363281 30.316406 -36.234375 31.703125 -36.140625 C 33.097656 -36.054688 34.445312 -36.015625 35.75 -36.015625 L 37.0625 -36.015625 C 36.539062 -38.535156 35.929688 -40.945312 35.234375 -43.25 C 34.535156 -45.5625 33.75 -47.847656 32.875 -50.109375 Z M 32.875 -50.109375 "/></g></g></g><g fill="rgb(0%, 0%, 0%)" fill-opacity="1"><g transform="translate(1043.466636, 309.858842)"><g><path d="M 34.1875 -55.328125 C 34.101562 -53.066406 34.035156 -50.738281 33.984375 -48.34375 C 33.941406 -45.945312 33.921875 -43.488281 33.921875 -40.96875 C 33.921875 -34.269531 34.007812 -27.984375 34.1875 -22.109375 C 34.363281 -16.242188 34.492188 -10.003906 34.578125 -3.390625 C 33.972656 -2.429688 32.863281 -1.625 31.25 -0.96875 C 29.644531 -0.320312 28.054688 0 26.484375 0 C 25.359375 0 24.335938 -0.21875 23.421875 -0.65625 C 22.503906 -1.09375 21.875 -1.785156 21.53125 -2.734375 C 21.269531 -3.347656 21.140625 -4.046875 21.140625 -4.828125 C 21.140625 -5.609375 21.203125 -6.410156 21.328125 -7.234375 C 21.460938 -8.066406 21.53125 -8.960938 21.53125 -9.921875 C 21.445312 -13.484375 21.40625 -17.242188 21.40625 -21.203125 C 21.40625 -25.160156 21.378906 -29.097656 21.328125 -33.015625 C 21.285156 -36.929688 21.222656 -40.734375 21.140625 -44.421875 C 21.054688 -48.117188 20.925781 -51.492188 20.75 -54.546875 C 20.3125 -54.628906 19.875 -54.671875 19.4375 -54.671875 C 19.007812 -54.671875 18.578125 -54.671875 18.140625 -54.671875 C 17.179688 -54.671875 16.179688 -54.648438 15.140625 -54.609375 C 14.097656 -54.566406 13.050781 -54.546875 12 -54.546875 C 10.957031 -54.546875 9.867188 -54.585938 8.734375 -54.671875 C 7.609375 -54.753906 6.585938 -54.945312 5.671875 -55.25 C 4.765625 -55.5625 4.023438 -56 3.453125 -56.5625 C 2.890625 -57.125 2.609375 -57.882812 2.609375 -58.84375 C 2.609375 -60.5 3.148438 -61.804688 4.234375 -62.765625 C 5.328125 -63.722656 6.765625 -64.394531 8.546875 -64.78125 C 10.328125 -65.175781 12.328125 -65.414062 14.546875 -65.5 C 16.765625 -65.59375 19.003906 -65.640625 21.265625 -65.640625 C 25.179688 -65.640625 29.140625 -65.484375 33.140625 -65.171875 C 37.140625 -64.867188 40.796875 -64.71875 44.109375 -64.71875 L 49.0625 -64.71875 C 50.800781 -64.71875 52.320312 -64.457031 53.625 -63.9375 C 54.9375 -63.414062 55.632812 -62.15625 55.71875 -60.15625 L 55.71875 -59.234375 C 55.71875 -57.234375 54.847656 -55.90625 53.109375 -55.25 C 51.367188 -54.601562 49.28125 -54.28125 46.84375 -54.28125 C 44.582031 -54.28125 42.296875 -54.429688 39.984375 -54.734375 C 37.679688 -55.035156 35.75 -55.234375 34.1875 -55.328125 Z M 34.1875 -55.328125 "/></g></g></g><g fill="rgb(0%, 0%, 0%)" fill-opacity="1"><g transform="translate(536.043141, 409.608837)"><g><path d="M 21.015625 -3.265625 C 20.316406 -2.222656 19.25 -1.351562 17.8125 -0.65625 C 16.375 0.0390625 14.914062 0.390625 13.4375 0.390625 C 12.476562 0.390625 11.585938 0.257812 10.765625 0 C 9.941406 -0.257812 9.179688 -0.738281 8.484375 -1.4375 C 8.128906 -2.5625 7.953125 -3.992188 7.953125 -5.734375 C 7.953125 -7.472656 8.0625 -9.28125 8.28125 -11.15625 C 8.5 -13.03125 8.609375 -14.96875 8.609375 -16.96875 C 8.523438 -24.269531 8.195312 -31.832031 7.625 -39.65625 C 7.0625 -47.488281 6.695312 -55.101562 6.53125 -62.5 C 7.21875 -63.457031 8.363281 -64.257812 9.96875 -64.90625 C 11.582031 -65.5625 13.175781 -65.890625 14.75 -65.890625 C 16.914062 -65.890625 18.476562 -65.238281 19.4375 -63.9375 C 19.789062 -63.5 20.007812 -62.953125 20.09375 -62.296875 C 20.175781 -61.648438 20.21875 -60.9375 20.21875 -60.15625 C 20.21875 -58.9375 20.148438 -57.671875 20.015625 -56.359375 C 19.890625 -55.054688 19.828125 -53.753906 19.828125 -52.453125 L 19.828125 -50.625 C 19.828125 -44.1875 20.046875 -37.789062 20.484375 -31.4375 C 20.921875 -25.09375 21.140625 -18.53125 21.140625 -11.75 C 21.140625 -10.269531 21.140625 -8.851562 21.140625 -7.5 C 21.140625 -6.15625 21.097656 -4.742188 21.015625 -3.265625 Z M 21.015625 -3.265625 "/></g></g></g><g fill="rgb(0%, 0%, 0%)" fill-opacity="1"><g transform="translate(563.704173, 409.608837)"><g><path d="M 21.53125 -46.84375 C 21.53125 -44.582031 21.441406 -42.101562 21.265625 -39.40625 C 21.097656 -36.707031 21.015625 -33.96875 21.015625 -31.1875 L 21.015625 -29.484375 C 21.015625 -26.878906 21.316406 -24.335938 21.921875 -21.859375 C 22.523438 -19.378906 22.914062 -17.140625 23.09375 -15.140625 C 23.09375 -14.265625 23.113281 -13.367188 23.15625 -12.453125 C 23.195312 -11.546875 23.21875 -10.613281 23.21875 -9.65625 C 23.21875 -8.4375 23.175781 -7.328125 23.09375 -6.328125 C 23.007812 -5.328125 22.835938 -4.476562 22.578125 -3.78125 C 22.140625 -2.738281 21.179688 -1.847656 19.703125 -1.109375 C 18.222656 -0.367188 16.65625 0 15 0 C 13.695312 0 12.5 -0.28125 11.40625 -0.84375 C 10.320312 -1.414062 9.566406 -2.351562 9.140625 -3.65625 C 9.140625 -5.300781 9.140625 -6.753906 9.140625 -8.015625 C 9.140625 -9.285156 9.113281 -10.460938 9.0625 -11.546875 C 9.019531 -12.628906 8.929688 -13.738281 8.796875 -14.875 C 8.671875 -16.007812 8.519531 -17.316406 8.34375 -18.796875 C 8.175781 -20.273438 8.046875 -21.882812 7.953125 -23.625 C 7.867188 -25.363281 7.828125 -27.101562 7.828125 -28.84375 C 7.828125 -31.96875 7.890625 -35.140625 8.015625 -38.359375 C 8.148438 -41.578125 8.21875 -44.578125 8.21875 -47.359375 C 8.21875 -50.234375 8.085938 -52.710938 7.828125 -54.796875 C 7.648438 -55.753906 7.390625 -56.601562 7.046875 -57.34375 C 6.703125 -58.082031 6.53125 -58.84375 6.53125 -59.625 C 6.53125 -60.15625 6.742188 -60.851562 7.171875 -61.71875 C 7.523438 -62.238281 8.15625 -62.738281 9.0625 -63.21875 C 9.976562 -63.695312 11.046875 -64.109375 12.265625 -64.453125 C 13.484375 -64.804688 14.765625 -65.09375 16.109375 -65.3125 C 17.460938 -65.53125 18.789062 -65.640625 20.09375 -65.640625 C 21.3125 -65.640625 22.441406 -65.53125 23.484375 -65.3125 C 24.523438 -65.09375 25.351562 -64.765625 25.96875 -64.328125 C 27.007812 -63.546875 28.03125 -62.394531 29.03125 -60.875 C 30.03125 -59.351562 31.050781 -57.851562 32.09375 -56.375 C 33.488281 -54.457031 34.859375 -52.390625 36.203125 -50.171875 C 37.554688 -47.953125 38.90625 -45.734375 40.25 -43.515625 C 41.601562 -41.296875 42.953125 -39.117188 44.296875 -36.984375 C 45.648438 -34.859375 46.976562 -32.925781 48.28125 -31.1875 C 48.363281 -31.625 48.40625 -32.101562 48.40625 -32.625 C 48.40625 -33.144531 48.40625 -33.753906 48.40625 -34.453125 C 48.40625 -35.929688 48.335938 -37.539062 48.203125 -39.28125 C 48.078125 -41.019531 47.945312 -42.78125 47.8125 -44.5625 C 47.6875 -46.34375 47.535156 -48.054688 47.359375 -49.703125 C 47.191406 -51.359375 47.109375 -52.84375 47.109375 -54.15625 C 47.109375 -54.84375 47.082031 -55.617188 47.03125 -56.484375 C 46.988281 -57.359375 46.96875 -58.234375 46.96875 -59.109375 C 46.96875 -59.710938 46.96875 -60.253906 46.96875 -60.734375 C 46.96875 -61.210938 47.054688 -61.671875 47.234375 -62.109375 C 47.671875 -63.328125 48.429688 -64.238281 49.515625 -64.84375 C 50.609375 -65.457031 51.847656 -65.765625 53.234375 -65.765625 C 54.710938 -65.765625 56.125 -65.414062 57.46875 -64.71875 C 58.820312 -64.019531 59.757812 -62.976562 60.28125 -61.59375 C 60.019531 -59.5 59.890625 -57.234375 59.890625 -54.796875 C 59.890625 -50.796875 60.0625 -46.554688 60.40625 -42.078125 C 60.757812 -37.597656 60.9375 -33.445312 60.9375 -29.625 C 60.9375 -27.09375 60.957031 -24.828125 61 -22.828125 C 61.039062 -20.828125 61.125 -18.957031 61.25 -17.21875 C 61.382812 -15.476562 61.582031 -13.757812 61.84375 -12.0625 C 62.101562 -10.375 62.5 -8.613281 63.03125 -6.78125 C 63.03125 -6.613281 63.050781 -6.503906 63.09375 -6.453125 C 63.132812 -6.410156 63.15625 -6.300781 63.15625 -6.125 C 63.15625 -5.695312 63.109375 -5.242188 63.015625 -4.765625 C 62.929688 -4.285156 62.847656 -3.695312 62.765625 -3 C 61.628906 -2.132812 60.410156 -1.414062 59.109375 -0.84375 C 57.804688 -0.28125 56.457031 0 55.0625 0 C 53.84375 0 52.800781 -0.21875 51.9375 -0.65625 C 50.28125 -1.4375 48.929688 -2.757812 47.890625 -4.625 C 46.847656 -6.5 45.847656 -8.394531 44.890625 -10.3125 C 41.492188 -17.007812 37.75 -23.679688 33.65625 -30.328125 C 29.570312 -36.984375 25.53125 -42.878906 21.53125 -48.015625 Z M 21.53125 -46.84375 "/></g></g></g><g fill="rgb(0%, 0%, 0%)" fill-opacity="1"><g transform="translate(633.378673, 409.608837)"><g><path d="M 34.1875 -55.328125 C 34.101562 -53.066406 34.035156 -50.738281 33.984375 -48.34375 C 33.941406 -45.945312 33.921875 -43.488281 33.921875 -40.96875 C 33.921875 -34.269531 34.007812 -27.984375 34.1875 -22.109375 C 34.363281 -16.242188 34.492188 -10.003906 34.578125 -3.390625 C 33.972656 -2.429688 32.863281 -1.625 31.25 -0.96875 C 29.644531 -0.320312 28.054688 0 26.484375 0 C 25.359375 0 24.335938 -0.21875 23.421875 -0.65625 C 22.503906 -1.09375 21.875 -1.785156 21.53125 -2.734375 C 21.269531 -3.347656 21.140625 -4.046875 21.140625 -4.828125 C 21.140625 -5.609375 21.203125 -6.410156 21.328125 -7.234375 C 21.460938 -8.066406 21.53125 -8.960938 21.53125 -9.921875 C 21.445312 -13.484375 21.40625 -17.242188 21.40625 -21.203125 C 21.40625 -25.160156 21.378906 -29.097656 21.328125 -33.015625 C 21.285156 -36.929688 21.222656 -40.734375 21.140625 -44.421875 C 21.054688 -48.117188 20.925781 -51.492188 20.75 -54.546875 C 20.3125 -54.628906 19.875 -54.671875 19.4375 -54.671875 C 19.007812 -54.671875 18.578125 -54.671875 18.140625 -54.671875 C 17.179688 -54.671875 16.179688 -54.648438 15.140625 -54.609375 C 14.097656 -54.566406 13.050781 -54.546875 12 -54.546875 C 10.957031 -54.546875 9.867188 -54.585938 8.734375 -54.671875 C 7.609375 -54.753906 6.585938 -54.945312 5.671875 -55.25 C 4.765625 -55.5625 4.023438 -56 3.453125 -56.5625 C 2.890625 -57.125 2.609375 -57.882812 2.609375 -58.84375 C 2.609375 -60.5 3.148438 -61.804688 4.234375 -62.765625 C 5.328125 -63.722656 6.765625 -64.394531 8.546875 -64.78125 C 10.328125 -65.175781 12.328125 -65.414062 14.546875 -65.5 C 16.765625 -65.59375 19.003906 -65.640625 21.265625 -65.640625 C 25.179688 -65.640625 29.140625 -65.484375 33.140625 -65.171875 C 37.140625 -64.867188 40.796875 -64.71875 44.109375 -64.71875 L 49.0625 -64.71875 C 50.800781 -64.71875 52.320312 -64.457031 53.625 -63.9375 C 54.9375 -63.414062 55.632812 -62.15625 55.71875 -60.15625 L 55.71875 -59.234375 C 55.71875 -57.234375 54.847656 -55.90625 53.109375 -55.25 C 51.367188 -54.601562 49.28125 -54.28125 46.84375 -54.28125 C 44.582031 -54.28125 42.296875 -54.429688 39.984375 -54.734375 C 37.679688 -55.035156 35.75 -55.234375 34.1875 -55.328125 Z M 34.1875 -55.328125 "/></g></g></g><g fill="rgb(0%, 0%, 0%)" fill-opacity="1"><g transform="translate(691.701709, 409.608837)"><g><path d="M 19.96875 -55.328125 C 19.707031 -52.367188 19.597656 -49.78125 19.640625 -47.5625 C 19.679688 -45.34375 19.53125 -42.664062 19.1875 -39.53125 C 20.75 -39.269531 22.3125 -39.140625 23.875 -39.140625 C 25.445312 -39.140625 27.015625 -39.203125 28.578125 -39.328125 C 30.140625 -39.460938 31.75 -39.53125 33.40625 -39.53125 C 36.007812 -39.53125 38.488281 -39.226562 40.84375 -38.625 C 41.539062 -37.226562 41.890625 -35.921875 41.890625 -34.703125 C 41.890625 -32.960938 41.082031 -31.679688 39.46875 -30.859375 C 37.863281 -30.035156 35.90625 -29.492188 33.59375 -29.234375 C 31.289062 -28.972656 28.832031 -28.863281 26.21875 -28.90625 C 23.613281 -28.945312 21.351562 -28.925781 19.4375 -28.84375 C 19.4375 -25.789062 19.476562 -22.695312 19.5625 -19.5625 C 19.65625 -16.4375 19.789062 -13.4375 19.96875 -10.5625 C 21.09375 -10.300781 22.195312 -10.128906 23.28125 -10.046875 C 24.375 -9.960938 25.441406 -9.921875 26.484375 -9.921875 C 29.179688 -9.921875 31.832031 -10.09375 34.4375 -10.4375 C 37.050781 -10.78125 39.878906 -10.953125 42.921875 -10.953125 C 43.617188 -10.953125 44.269531 -10.953125 44.875 -10.953125 C 45.488281 -10.953125 46.144531 -10.910156 46.84375 -10.828125 C 47.800781 -10.222656 48.472656 -9.523438 48.859375 -8.734375 C 49.253906 -7.953125 49.453125 -7.171875 49.453125 -6.390625 C 49.453125 -4.828125 48.773438 -3.367188 47.421875 -2.015625 C 46.078125 -0.671875 44.363281 0.0859375 42.28125 0.265625 L 41.75 0.265625 C 41.0625 0.265625 40.320312 0.195312 39.53125 0.0625 C 38.75 -0.0625 37.96875 -0.125 37.1875 -0.125 L 16.4375 -0.125 C 15.570312 0.0390625 14.832031 0.125 14.21875 0.125 C 12.570312 0.125 10.984375 -0.265625 9.453125 -1.046875 C 7.929688 -1.828125 7.171875 -3.257812 7.171875 -5.34375 C 7.085938 -10.832031 7.023438 -15.398438 6.984375 -19.046875 C 6.941406 -22.703125 6.894531 -25.75 6.84375 -28.1875 C 6.800781 -30.625 6.757812 -32.625 6.71875 -34.1875 C 6.675781 -35.75 6.65625 -37.226562 6.65625 -38.625 C 6.65625 -40.363281 6.695312 -42.296875 6.78125 -44.421875 C 6.875 -46.554688 6.921875 -48.753906 6.921875 -51.015625 C 6.921875 -52.410156 6.851562 -53.820312 6.71875 -55.25 C 6.59375 -56.6875 6.53125 -58.015625 6.53125 -59.234375 C 6.53125 -60.804688 6.703125 -61.984375 7.046875 -62.765625 C 7.304688 -63.367188 7.804688 -63.84375 8.546875 -64.1875 C 9.285156 -64.539062 10.15625 -64.78125 11.15625 -64.90625 C 12.15625 -65.039062 13.21875 -65.128906 14.34375 -65.171875 C 15.476562 -65.210938 16.566406 -65.234375 17.609375 -65.234375 L 18.53125 -65.234375 C 20.53125 -65.234375 22.3125 -65.191406 23.875 -65.109375 C 25.445312 -65.023438 26.972656 -64.984375 28.453125 -64.984375 C 29.921875 -64.984375 31.394531 -65.046875 32.875 -65.171875 C 34.351562 -65.304688 35.703125 -65.414062 36.921875 -65.5 L 37.84375 -65.5 C 38.445312 -65.5 39.078125 -65.519531 39.734375 -65.5625 C 40.390625 -65.613281 41.0625 -65.640625 41.75 -65.640625 C 44.007812 -65.640625 46.007812 -65.351562 47.75 -64.78125 C 49.488281 -64.21875 50.359375 -62.9375 50.359375 -60.9375 L 50.359375 -60.015625 C 50.191406 -58.890625 49.691406 -58 48.859375 -57.34375 C 48.035156 -56.695312 47.015625 -56.195312 45.796875 -55.84375 C 44.578125 -55.5 43.1875 -55.257812 41.625 -55.125 C 40.0625 -55 38.492188 -54.9375 36.921875 -54.9375 C 35.273438 -54.9375 33.664062 -54.957031 32.09375 -55 C 30.53125 -55.039062 29.140625 -55.0625 27.921875 -55.0625 C 26.878906 -55.0625 25.859375 -55.125 24.859375 -55.25 C 23.859375 -55.382812 22.835938 -55.453125 21.796875 -55.453125 C 21.003906 -55.453125 20.394531 -55.410156 19.96875 -55.328125 Z M 19.96875 -55.328125 "/></g></g></g><g fill="rgb(0%, 0%, 0%)" fill-opacity="1"><g transform="translate(748.589486, 409.608837)"><g><path d="M 20.875 -22.1875 C 20.4375 -21.050781 20.21875 -19.703125 20.21875 -18.140625 C 20.21875 -16.921875 20.304688 -15.65625 20.484375 -14.34375 C 20.660156 -13.039062 20.75 -11.828125 20.75 -10.703125 C 20.75 -9.046875 20.679688 -7.429688 20.546875 -5.859375 C 20.421875 -4.296875 20.050781 -3.082031 19.4375 -2.21875 C 18.914062 -1.519531 18.15625 -0.972656 17.15625 -0.578125 C 16.15625 -0.191406 15.046875 0 13.828125 0 C 12.609375 0 11.410156 -0.238281 10.234375 -0.71875 C 9.066406 -1.195312 8.132812 -1.914062 7.4375 -2.875 C 7.351562 -9.65625 7.285156 -15.347656 7.234375 -19.953125 C 7.191406 -24.566406 7.148438 -28.414062 7.109375 -31.5 C 7.066406 -34.59375 7 -37.03125 6.90625 -38.8125 C 6.820312 -40.601562 6.757812 -42.0625 6.71875 -43.1875 C 6.675781 -44.320312 6.632812 -45.234375 6.59375 -45.921875 C 6.550781 -46.617188 6.53125 -47.445312 6.53125 -48.40625 C 6.53125 -49.800781 6.570312 -51.171875 6.65625 -52.515625 C 6.738281 -53.867188 6.910156 -55.15625 7.171875 -56.375 C 7.523438 -58.113281 8.632812 -59.394531 10.5 -60.21875 C 12.375 -61.039062 14.441406 -61.800781 16.703125 -62.5 L 17.75 -62.765625 C 20.09375 -63.460938 22.894531 -64.15625 26.15625 -64.84375 C 29.425781 -65.539062 32.671875 -65.890625 35.890625 -65.890625 C 37.628906 -65.890625 39.257812 -65.757812 40.78125 -65.5 C 42.300781 -65.238281 43.753906 -64.757812 45.140625 -64.0625 C 46.015625 -63.632812 46.953125 -63.003906 47.953125 -62.171875 C 48.953125 -61.347656 49.953125 -60.457031 50.953125 -59.5 C 51.953125 -58.539062 52.863281 -57.515625 53.6875 -56.421875 C 54.519531 -55.335938 55.238281 -54.363281 55.84375 -53.5 C 56.539062 -52.539062 56.953125 -51.472656 57.078125 -50.296875 C 57.210938 -49.128906 57.28125 -47.9375 57.28125 -46.71875 L 57.28125 -43.71875 C 57.101562 -40.40625 56.554688 -37.703125 55.640625 -35.609375 C 54.734375 -33.523438 53.5625 -31.8125 52.125 -30.46875 C 50.6875 -29.125 48.96875 -28.035156 46.96875 -27.203125 C 44.96875 -26.378906 42.75 -25.53125 40.3125 -24.65625 C 42.226562 -22.488281 43.925781 -20.75 45.40625 -19.4375 C 46.882812 -18.132812 48.296875 -16.894531 49.640625 -15.71875 C 50.992188 -14.550781 52.34375 -13.269531 53.6875 -11.875 C 55.039062 -10.476562 56.546875 -8.609375 58.203125 -6.265625 C 57.929688 -5.390625 57.625 -4.601562 57.28125 -3.90625 C 56.9375 -3.21875 56.585938 -2.523438 56.234375 -1.828125 C 55.273438 -1.304688 54.273438 -0.867188 53.234375 -0.515625 C 52.191406 -0.171875 51.0625 0 49.84375 0 C 48.71875 0 47.367188 -0.21875 45.796875 -0.65625 C 42.054688 -4.65625 38.988281 -7.9375 36.59375 -10.5 C 34.207031 -13.070312 32.253906 -15.097656 30.734375 -16.578125 C 29.210938 -18.054688 28.035156 -19.140625 27.203125 -19.828125 C 26.378906 -20.523438 25.660156 -20.984375 25.046875 -21.203125 C 24.441406 -21.421875 23.832031 -21.570312 23.21875 -21.65625 C 22.613281 -21.75 21.832031 -21.925781 20.875 -22.1875 Z M 38.359375 -33.40625 C 40.359375 -33.925781 42.226562 -34.90625 43.96875 -36.34375 C 45.707031 -37.78125 46.578125 -39.710938 46.578125 -42.140625 C 46.578125 -42.316406 46.554688 -42.515625 46.515625 -42.734375 C 46.472656 -42.953125 46.453125 -43.148438 46.453125 -43.328125 C 46.273438 -44.015625 45.835938 -44.988281 45.140625 -46.25 C 44.453125 -47.519531 43.648438 -48.785156 42.734375 -50.046875 C 41.816406 -51.304688 40.835938 -52.457031 39.796875 -53.5 C 38.753906 -54.539062 37.84375 -55.191406 37.0625 -55.453125 C 35.582031 -56.066406 34.054688 -56.375 32.484375 -56.375 C 30.140625 -56.375 27.898438 -55.914062 25.765625 -55 C 23.640625 -54.082031 21.707031 -53.273438 19.96875 -52.578125 C 19.789062 -51.015625 19.703125 -49.492188 19.703125 -48.015625 C 19.703125 -46.535156 19.703125 -45.054688 19.703125 -43.578125 C 19.703125 -41.578125 19.722656 -39.617188 19.765625 -37.703125 C 19.804688 -35.796875 19.875 -33.882812 19.96875 -31.96875 C 21.007812 -32.3125 22.140625 -32.523438 23.359375 -32.609375 C 24.578125 -32.703125 25.796875 -32.75 27.015625 -32.75 L 31.3125 -32.75 C 32.53125 -32.75 33.726562 -32.789062 34.90625 -32.875 C 36.082031 -32.96875 37.234375 -33.144531 38.359375 -33.40625 Z M 38.359375 -33.40625 "/></g></g></g><g fill="rgb(0%, 0%, 0%)" fill-opacity="1"><g transform="translate(809.391576, 409.608837)"><g><path d="M 21.53125 -46.84375 C 21.53125 -44.582031 21.441406 -42.101562 21.265625 -39.40625 C 21.097656 -36.707031 21.015625 -33.96875 21.015625 -31.1875 L 21.015625 -29.484375 C 21.015625 -26.878906 21.316406 -24.335938 21.921875 -21.859375 C 22.523438 -19.378906 22.914062 -17.140625 23.09375 -15.140625 C 23.09375 -14.265625 23.113281 -13.367188 23.15625 -12.453125 C 23.195312 -11.546875 23.21875 -10.613281 23.21875 -9.65625 C 23.21875 -8.4375 23.175781 -7.328125 23.09375 -6.328125 C 23.007812 -5.328125 22.835938 -4.476562 22.578125 -3.78125 C 22.140625 -2.738281 21.179688 -1.847656 19.703125 -1.109375 C 18.222656 -0.367188 16.65625 0 15 0 C 13.695312 0 12.5 -0.28125 11.40625 -0.84375 C 10.320312 -1.414062 9.566406 -2.351562 9.140625 -3.65625 C 9.140625 -5.300781 9.140625 -6.753906 9.140625 -8.015625 C 9.140625 -9.285156 9.113281 -10.460938 9.0625 -11.546875 C 9.019531 -12.628906 8.929688 -13.738281 8.796875 -14.875 C 8.671875 -16.007812 8.519531 -17.316406 8.34375 -18.796875 C 8.175781 -20.273438 8.046875 -21.882812 7.953125 -23.625 C 7.867188 -25.363281 7.828125 -27.101562 7.828125 -28.84375 C 7.828125 -31.96875 7.890625 -35.140625 8.015625 -38.359375 C 8.148438 -41.578125 8.21875 -44.578125 8.21875 -47.359375 C 8.21875 -50.234375 8.085938 -52.710938 7.828125 -54.796875 C 7.648438 -55.753906 7.390625 -56.601562 7.046875 -57.34375 C 6.703125 -58.082031 6.53125 -58.84375 6.53125 -59.625 C 6.53125 -60.15625 6.742188 -60.851562 7.171875 -61.71875 C 7.523438 -62.238281 8.15625 -62.738281 9.0625 -63.21875 C 9.976562 -63.695312 11.046875 -64.109375 12.265625 -64.453125 C 13.484375 -64.804688 14.765625 -65.09375 16.109375 -65.3125 C 17.460938 -65.53125 18.789062 -65.640625 20.09375 -65.640625 C 21.3125 -65.640625 22.441406 -65.53125 23.484375 -65.3125 C 24.523438 -65.09375 25.351562 -64.765625 25.96875 -64.328125 C 27.007812 -63.546875 28.03125 -62.394531 29.03125 -60.875 C 30.03125 -59.351562 31.050781 -57.851562 32.09375 -56.375 C 33.488281 -54.457031 34.859375 -52.390625 36.203125 -50.171875 C 37.554688 -47.953125 38.90625 -45.734375 40.25 -43.515625 C 41.601562 -41.296875 42.953125 -39.117188 44.296875 -36.984375 C 45.648438 -34.859375 46.976562 -32.925781 48.28125 -31.1875 C 48.363281 -31.625 48.40625 -32.101562 48.40625 -32.625 C 48.40625 -33.144531 48.40625 -33.753906 48.40625 -34.453125 C 48.40625 -35.929688 48.335938 -37.539062 48.203125 -39.28125 C 48.078125 -41.019531 47.945312 -42.78125 47.8125 -44.5625 C 47.6875 -46.34375 47.535156 -48.054688 47.359375 -49.703125 C 47.191406 -51.359375 47.109375 -52.84375 47.109375 -54.15625 C 47.109375 -54.84375 47.082031 -55.617188 47.03125 -56.484375 C 46.988281 -57.359375 46.96875 -58.234375 46.96875 -59.109375 C 46.96875 -59.710938 46.96875 -60.253906 46.96875 -60.734375 C 46.96875 -61.210938 47.054688 -61.671875 47.234375 -62.109375 C 47.671875 -63.328125 48.429688 -64.238281 49.515625 -64.84375 C 50.609375 -65.457031 51.847656 -65.765625 53.234375 -65.765625 C 54.710938 -65.765625 56.125 -65.414062 57.46875 -64.71875 C 58.820312 -64.019531 59.757812 -62.976562 60.28125 -61.59375 C 60.019531 -59.5 59.890625 -57.234375 59.890625 -54.796875 C 59.890625 -50.796875 60.0625 -46.554688 60.40625 -42.078125 C 60.757812 -37.597656 60.9375 -33.445312 60.9375 -29.625 C 60.9375 -27.09375 60.957031 -24.828125 61 -22.828125 C 61.039062 -20.828125 61.125 -18.957031 61.25 -17.21875 C 61.382812 -15.476562 61.582031 -13.757812 61.84375 -12.0625 C 62.101562 -10.375 62.5 -8.613281 63.03125 -6.78125 C 63.03125 -6.613281 63.050781 -6.503906 63.09375 -6.453125 C 63.132812 -6.410156 63.15625 -6.300781 63.15625 -6.125 C 63.15625 -5.695312 63.109375 -5.242188 63.015625 -4.765625 C 62.929688 -4.285156 62.847656 -3.695312 62.765625 -3 C 61.628906 -2.132812 60.410156 -1.414062 59.109375 -0.84375 C 57.804688 -0.28125 56.457031 0 55.0625 0 C 53.84375 0 52.800781 -0.21875 51.9375 -0.65625 C 50.28125 -1.4375 48.929688 -2.757812 47.890625 -4.625 C 46.847656 -6.5 45.847656 -8.394531 44.890625 -10.3125 C 41.492188 -17.007812 37.75 -23.679688 33.65625 -30.328125 C 29.570312 -36.984375 25.53125 -42.878906 21.53125 -48.015625 Z M 21.53125 -46.84375 "/></g></g></g><g fill="rgb(0%, 0%, 0%)" fill-opacity="1"><g transform="translate(879.066087, 409.608837)"><g><path d="M 37.453125 -14.484375 C 37.453125 -17.617188 36.6875 -20.054688 35.15625 -21.796875 C 33.632812 -23.535156 31.722656 -24.96875 29.421875 -26.09375 C 27.117188 -27.226562 24.640625 -28.207031 21.984375 -29.03125 C 19.328125 -29.851562 16.847656 -30.914062 14.546875 -32.21875 C 12.242188 -33.53125 10.332031 -35.25 8.8125 -37.375 C 7.289062 -39.507812 6.53125 -42.445312 6.53125 -46.1875 L 6.53125 -47.625 C 6.613281 -49.019531 6.914062 -50.476562 7.4375 -52 C 7.957031 -53.519531 8.628906 -55 9.453125 -56.4375 C 10.285156 -57.875 11.222656 -59.15625 12.265625 -60.28125 C 13.304688 -61.414062 14.394531 -62.285156 15.53125 -62.890625 C 16.132812 -63.242188 17.15625 -63.59375 18.59375 -63.9375 C 20.03125 -64.28125 21.640625 -64.582031 23.421875 -64.84375 C 25.203125 -65.101562 27.050781 -65.320312 28.96875 -65.5 C 30.882812 -65.675781 32.625 -65.765625 34.1875 -65.765625 C 37.226562 -65.765625 39.988281 -65.375 42.46875 -64.59375 C 44.945312 -63.8125 46.273438 -62.460938 46.453125 -60.546875 L 46.453125 -59.625 C 46.453125 -57.800781 45.84375 -56.582031 44.625 -55.96875 C 43.40625 -55.363281 41.882812 -55.0625 40.0625 -55.0625 C 39.101562 -55.0625 37.992188 -55.101562 36.734375 -55.1875 C 35.472656 -55.28125 34.1875 -55.390625 32.875 -55.515625 C 31.570312 -55.648438 30.3125 -55.757812 29.09375 -55.84375 C 27.875 -55.9375 26.875 -55.984375 26.09375 -55.984375 C 24.96875 -55.984375 24.1875 -55.894531 23.75 -55.71875 C 22.351562 -55.28125 21.265625 -54.210938 20.484375 -52.515625 C 19.703125 -50.816406 19.3125 -48.96875 19.3125 -46.96875 C 19.3125 -44.707031 20.050781 -42.898438 21.53125 -41.546875 C 23.007812 -40.203125 24.832031 -39.007812 27 -37.96875 C 29.175781 -36.925781 31.566406 -35.882812 34.171875 -34.84375 C 36.785156 -33.800781 39.179688 -32.40625 41.359375 -30.65625 C 43.535156 -28.914062 45.363281 -26.675781 46.84375 -23.9375 C 48.320312 -21.195312 49.0625 -17.609375 49.0625 -13.171875 C 49.0625 -11.691406 48.882812 -10.320312 48.53125 -9.0625 C 48.1875 -7.800781 47.582031 -6.648438 46.71875 -5.609375 C 45.925781 -4.648438 44.703125 -3.800781 43.046875 -3.0625 C 41.398438 -2.320312 39.597656 -1.734375 37.640625 -1.296875 C 35.679688 -0.867188 33.660156 -0.546875 31.578125 -0.328125 C 29.492188 -0.109375 27.578125 0 25.828125 0 C 25.304688 0 23.867188 -0.191406 21.515625 -0.578125 C 19.171875 -0.972656 16.691406 -1.492188 14.078125 -2.140625 C 11.472656 -2.796875 9.128906 -3.582031 7.046875 -4.5 C 4.960938 -5.414062 3.921875 -6.4375 3.921875 -7.5625 C 3.921875 -8.957031 4.179688 -10.023438 4.703125 -10.765625 C 5.222656 -11.503906 5.894531 -12.046875 6.71875 -12.390625 C 7.539062 -12.742188 8.453125 -12.960938 9.453125 -13.046875 C 10.453125 -13.128906 11.429688 -13.171875 12.390625 -13.171875 L 12.921875 -13.171875 C 13.441406 -13.171875 14.222656 -13 15.265625 -12.65625 C 16.304688 -12.3125 17.523438 -11.921875 18.921875 -11.484375 C 20.316406 -11.046875 21.816406 -10.648438 23.421875 -10.296875 C 25.023438 -9.953125 26.65625 -9.78125 28.3125 -9.78125 C 28.664062 -9.78125 29.34375 -9.867188 30.34375 -10.046875 C 31.34375 -10.222656 32.363281 -10.503906 33.40625 -10.890625 C 34.445312 -11.285156 35.378906 -11.785156 36.203125 -12.390625 C 37.035156 -13.003906 37.453125 -13.703125 37.453125 -14.484375 Z M 37.453125 -14.484375 "/></g></g></g><g fill="rgb(0%, 0%, 0%)" fill-opacity="1"><g transform="translate(933.213897, 409.608837)"><g><path d="M 51.015625 -29.625 C 48.671875 -30.226562 46.191406 -30.53125 43.578125 -30.53125 C 39.753906 -30.53125 36.078125 -30.050781 32.546875 -29.09375 C 29.023438 -28.132812 25.703125 -27.3125 22.578125 -26.625 C 22.484375 -26.1875 22.4375 -25.726562 22.4375 -25.25 C 22.4375 -24.769531 22.4375 -24.3125 22.4375 -23.875 C 22.4375 -21.4375 22.609375 -19.019531 22.953125 -16.625 C 23.304688 -14.238281 23.484375 -11.914062 23.484375 -9.65625 C 23.484375 -8 23.285156 -6.410156 22.890625 -4.890625 C 22.503906 -3.367188 21.832031 -2 20.875 -0.78125 C 20.175781 -0.601562 19.328125 -0.382812 18.328125 -0.125 C 17.328125 0.132812 16.304688 0.265625 15.265625 0.265625 C 13.609375 0.265625 12.390625 -0.125 11.609375 -0.90625 C 11.003906 -1.4375 10.613281 -2.175781 10.4375 -3.125 C 10.257812 -4.082031 10.171875 -5.171875 10.171875 -6.390625 C 10.171875 -7.691406 10.234375 -9.101562 10.359375 -10.625 C 10.492188 -12.15625 10.5625 -13.613281 10.5625 -15 L 10.5625 -16.046875 C 10.394531 -19.085938 10.3125 -22.28125 10.3125 -25.625 C 10.3125 -28.976562 10.242188 -32.375 10.109375 -35.8125 C 9.984375 -39.25 9.765625 -42.640625 9.453125 -45.984375 C 9.148438 -49.335938 8.695312 -52.539062 8.09375 -55.59375 C 7.914062 -56.539062 7.609375 -57.472656 7.171875 -58.390625 C 6.742188 -59.304688 6.53125 -60.15625 6.53125 -60.9375 C 6.789062 -62.414062 7.679688 -63.609375 9.203125 -64.515625 C 10.722656 -65.429688 12.351562 -65.890625 14.09375 -65.890625 C 15.132812 -65.890625 16.222656 -65.671875 17.359375 -65.234375 C 18.316406 -64.804688 19.097656 -64.066406 19.703125 -63.015625 C 20.304688 -61.972656 20.757812 -60.710938 21.0625 -59.234375 C 21.375 -57.753906 21.59375 -56.101562 21.71875 -54.28125 C 21.851562 -52.457031 21.921875 -50.628906 21.921875 -48.796875 C 21.921875 -48.015625 21.921875 -47.445312 21.921875 -47.09375 C 21.921875 -46.75 21.898438 -46.425781 21.859375 -46.125 C 21.816406 -45.820312 21.796875 -45.492188 21.796875 -45.140625 C 21.796875 -44.796875 21.796875 -44.320312 21.796875 -43.71875 C 21.796875 -42.40625 21.835938 -41.179688 21.921875 -40.046875 C 22.003906 -38.921875 22.132812 -38.007812 22.3125 -37.3125 C 26.75 -37.925781 30.988281 -38.644531 35.03125 -39.46875 C 39.082031 -40.300781 43.539062 -40.71875 48.40625 -40.71875 C 48.925781 -40.71875 49.425781 -40.691406 49.90625 -40.640625 C 50.382812 -40.597656 50.882812 -40.578125 51.40625 -40.578125 C 51.40625 -41.972656 51.425781 -43.34375 51.46875 -44.6875 C 51.519531 -46.039062 51.546875 -47.410156 51.546875 -48.796875 C 51.546875 -49.671875 51.546875 -50.390625 51.546875 -50.953125 C 51.546875 -51.515625 51.5 -52.015625 51.40625 -52.453125 C 51.320312 -52.890625 51.234375 -53.390625 51.140625 -53.953125 C 51.054688 -54.515625 50.929688 -55.273438 50.765625 -56.234375 C 50.671875 -56.929688 50.535156 -57.628906 50.359375 -58.328125 C 50.191406 -59.023438 50.109375 -59.722656 50.109375 -60.421875 C 50.109375 -61.109375 50.191406 -61.582031 50.359375 -61.84375 C 50.796875 -62.800781 51.796875 -63.582031 53.359375 -64.1875 C 54.929688 -64.800781 56.546875 -65.109375 58.203125 -65.109375 C 59.765625 -65.109375 60.976562 -64.804688 61.84375 -64.203125 C 62.894531 -63.328125 63.550781 -61.628906 63.8125 -59.109375 C 64.070312 -56.585938 64.203125 -53.804688 64.203125 -50.765625 C 64.203125 -48.066406 64.070312 -45.148438 63.8125 -42.015625 C 63.550781 -38.878906 63.421875 -35.660156 63.421875 -32.359375 L 63.421875 -30.921875 C 63.503906 -28.578125 63.695312 -26.445312 64 -24.53125 C 64.300781 -22.613281 64.539062 -20.785156 64.71875 -19.046875 C 65.238281 -14.785156 65.628906 -10.523438 65.890625 -6.265625 C 65.890625 -4.429688 65 -2.972656 63.21875 -1.890625 C 61.4375 -0.804688 59.628906 -0.265625 57.796875 -0.265625 C 57.109375 -0.265625 56.476562 -0.328125 55.90625 -0.453125 C 55.34375 -0.585938 54.84375 -0.875 54.40625 -1.3125 C 53.800781 -1.738281 53.390625 -2.539062 53.171875 -3.71875 C 52.953125 -4.894531 52.796875 -6.175781 52.703125 -7.5625 C 52.617188 -8.957031 52.578125 -10.375 52.578125 -11.8125 C 52.578125 -13.25 52.535156 -14.441406 52.453125 -15.390625 C 52.273438 -18.179688 52.035156 -20.640625 51.734375 -22.765625 C 51.429688 -24.898438 51.191406 -27.1875 51.015625 -29.625 Z M 51.015625 -29.625 "/></g></g></g><g fill="rgb(0%, 0%, 0%)" fill-opacity="1"><g transform="translate(1005.628398, 409.608837)"><g><path d="M 21.015625 -3.265625 C 20.316406 -2.222656 19.25 -1.351562 17.8125 -0.65625 C 16.375 0.0390625 14.914062 0.390625 13.4375 0.390625 C 12.476562 0.390625 11.585938 0.257812 10.765625 0 C 9.941406 -0.257812 9.179688 -0.738281 8.484375 -1.4375 C 8.128906 -2.5625 7.953125 -3.992188 7.953125 -5.734375 C 7.953125 -7.472656 8.0625 -9.28125 8.28125 -11.15625 C 8.5 -13.03125 8.609375 -14.96875 8.609375 -16.96875 C 8.523438 -24.269531 8.195312 -31.832031 7.625 -39.65625 C 7.0625 -47.488281 6.695312 -55.101562 6.53125 -62.5 C 7.21875 -63.457031 8.363281 -64.257812 9.96875 -64.90625 C 11.582031 -65.5625 13.175781 -65.890625 14.75 -65.890625 C 16.914062 -65.890625 18.476562 -65.238281 19.4375 -63.9375 C 19.789062 -63.5 20.007812 -62.953125 20.09375 -62.296875 C 20.175781 -61.648438 20.21875 -60.9375 20.21875 -60.15625 C 20.21875 -58.9375 20.148438 -57.671875 20.015625 -56.359375 C 19.890625 -55.054688 19.828125 -53.753906 19.828125 -52.453125 L 19.828125 -50.625 C 19.828125 -44.1875 20.046875 -37.789062 20.484375 -31.4375 C 20.921875 -25.09375 21.140625 -18.53125 21.140625 -11.75 C 21.140625 -10.269531 21.140625 -8.851562 21.140625 -7.5 C 21.140625 -6.15625 21.097656 -4.742188 21.015625 -3.265625 Z M 21.015625 -3.265625 "/></g></g></g><g fill="rgb(0%, 0%, 0%)" fill-opacity="1"><g transform="translate(1033.289453, 409.608837)"><g><path d="M 20.484375 -24.265625 C 20.398438 -23.742188 20.359375 -23.222656 20.359375 -22.703125 C 20.359375 -22.179688 20.359375 -21.617188 20.359375 -21.015625 C 20.359375 -20.054688 20.378906 -19.3125 20.421875 -18.78125 C 20.460938 -18.257812 20.484375 -17.757812 20.484375 -17.28125 C 20.484375 -16.8125 20.503906 -16.3125 20.546875 -15.78125 C 20.585938 -15.257812 20.609375 -14.476562 20.609375 -13.4375 C 20.609375 -12.832031 20.609375 -12.242188 20.609375 -11.671875 C 20.609375 -11.109375 20.566406 -10.566406 20.484375 -10.046875 C 20.398438 -8.910156 20.359375 -7.753906 20.359375 -6.578125 C 20.359375 -5.410156 20.179688 -4.476562 19.828125 -3.78125 C 18.523438 -1.257812 16.132812 0 12.65625 0 C 11.4375 0 10.175781 -0.21875 8.875 -0.65625 C 8.257812 -1.519531 7.84375 -2.410156 7.625 -3.328125 C 7.414062 -4.242188 7.3125 -5.222656 7.3125 -6.265625 C 7.3125 -7.222656 7.375 -8.222656 7.5 -9.265625 C 7.632812 -10.304688 7.742188 -11.304688 7.828125 -12.265625 C 8.085938 -14.609375 8.21875 -16.519531 8.21875 -18 C 8.21875 -19.3125 8.171875 -20.640625 8.078125 -21.984375 C 7.992188 -23.335938 7.953125 -25.054688 7.953125 -27.140625 C 7.953125 -32.015625 7.84375 -36.800781 7.625 -41.5 C 7.414062 -46.195312 7.09375 -50.546875 6.65625 -54.546875 C 6.570312 -54.804688 6.53125 -55.238281 6.53125 -55.84375 C 6.53125 -56.539062 6.570312 -57.171875 6.65625 -57.734375 C 6.738281 -58.304688 6.78125 -58.9375 6.78125 -59.625 C 6.78125 -60.0625 6.828125 -60.367188 6.921875 -60.546875 C 7.867188 -64.023438 10.128906 -65.765625 13.703125 -65.765625 L 16.4375 -65.765625 C 19.21875 -65.765625 22.175781 -65.828125 25.3125 -65.953125 C 28.445312 -66.085938 31.40625 -66.15625 34.1875 -66.15625 C 34.789062 -66.15625 35.351562 -66.15625 35.875 -66.15625 C 36.40625 -66.15625 36.929688 -66.066406 37.453125 -65.890625 C 42.148438 -64.847656 45.609375 -62.695312 47.828125 -59.4375 C 50.046875 -56.175781 51.195312 -52.328125 51.28125 -47.890625 L 51.28125 -47.234375 C 51.28125 -42.796875 50.300781 -39.1875 48.34375 -36.40625 C 46.382812 -33.625 43.90625 -31.40625 40.90625 -29.75 C 37.90625 -28.09375 34.597656 -26.894531 30.984375 -26.15625 C 27.378906 -25.414062 23.878906 -24.785156 20.484375 -24.265625 Z M 38.75 -44.234375 C 38.925781 -45.097656 39.015625 -45.75 39.015625 -46.1875 C 39.015625 -47.40625 38.835938 -48.625 38.484375 -49.84375 C 38.140625 -51.0625 37.75 -52.019531 37.3125 -52.71875 C 36.53125 -53.9375 35.507812 -54.785156 34.25 -55.265625 C 32.988281 -55.742188 31.578125 -55.984375 30.015625 -55.984375 C 28.359375 -55.984375 26.660156 -55.765625 24.921875 -55.328125 C 23.179688 -54.890625 21.570312 -54.453125 20.09375 -54.015625 C 19.832031 -50.109375 19.703125 -46.238281 19.703125 -42.40625 C 19.703125 -40.925781 19.722656 -39.46875 19.765625 -38.03125 C 19.804688 -36.601562 19.828125 -35.234375 19.828125 -33.921875 C 21.921875 -34.097656 23.988281 -34.359375 26.03125 -34.703125 C 28.070312 -35.054688 29.960938 -35.625 31.703125 -36.40625 C 33.441406 -37.1875 34.921875 -38.1875 36.140625 -39.40625 C 37.359375 -40.625 38.226562 -42.234375 38.75 -44.234375 Z M 38.75 -44.234375 "/></g></g></g></svg>